<?xml version="1.0" encoding="UTF-8"?>
<svg id="OBJECTS" xmlns="http://www.w3.org/2000/svg" viewBox="0 0 357.3333 72">
  <defs>
    <style>
      .cls-1 {
        fill: #e4cfa8;
      }
    </style>
  </defs>
  <path class="cls-1" d="M180.7865,25.0141s6.5578,6.4868,5.8009,17.861c-.7278,10.9316,3.9603,16.4585,9.6152,15.7584,5.6586-.7002,5.5638-6.3626,5.5638-6.3626,0,0,.4706-5.7187-4.9983-5.7187,0,0,2.9224,.9327,2.5465,4.5533-.3776,3.6162-4.6736,4.4314-6.693,1.7506-5.2811-7.0041,1.412-19.8465-11.8352-27.8419Z"/>
  <path class="cls-1" d="M267.1509,32.8357s.259,.5871,.5564,1.6962c.2901,1.1089,.6403,2.7532,.6804,4.7927,.0603,2.0237-.2116,4.4697-1.1181,6.8143-.4489,1.1698-1.029,2.3218-1.7531,3.3405-.717,1.0366-1.556,1.9695-2.4973,2.7352-.9449,.7566-1.9885,1.3303-3.0628,1.6848-1.0709,.3569-2.1855,.4608-3.2453,.3298-1.0599-.131-2.0741-.533-2.915-1.1857-.8465-.6415-1.494-1.5563-1.868-2.5139-.3849-.9577-.4999-1.9379-.4944-2.7712,.0017-.8403,.1222-1.5517,.248-2.1164,.124-.5714,.2737-.9914,.3667-1.2805,.104-.2847,.1606-.436,.1606-.436,0,0-.0346,.1581-.1004,.4608-.0602,.3003-.1441,.7452-.2098,1.3099-.062,.567-.0931,1.2626-.0346,2.035,.062,.7725,.248,1.6262,.6331,2.4169,.3829,.7905,.9759,1.4951,1.7238,1.9942,.7461,.5037,1.6418,.7793,2.5739,.8606,.9394,.0813,1.919-.0813,2.8731-.4066,.9595-.3342,1.888-.8627,2.7344-1.5539,.8519-.6777,1.6272-1.5178,2.2912-2.4506,.6641-.9374,1.2423-1.9424,1.682-2.9994,.4379-1.0547,.7716-2.1366,.9887-3.2026,.2116-1.0684,.3284-2.1096,.3739-3.0764,.0877-1.94-.0838-3.5799-.2499-4.7091-.1715-1.1362-.3374-1.7684-.3374-1.7684Z"/>
  <path class="cls-1" d="M266.6328,41.0638s-.0091,.088-.0256,.2552c-.0273,.1626-.031,.4111-.093,.7137-.0583,.3071-.1278,.6821-.2445,1.0977-.1095,.4178-.259,.8786-.4616,1.3597-.1003,.2417-.2061,.49-.3319,.7385-.1185,.2529-.2499,.5105-.3995,.7611-.2809,.515-.6185,1.0254-.9942,1.5224-.3831,.4879-.7917,.9802-1.2514,1.4138-.4487,.4495-.9413,.8492-1.4484,1.2221-.5108,.3568-1.0452,.6571-1.5926,.9147-.5472,.2417-1.1092,.4111-1.6636,.5059-.5527,.0859-1.1036,.07-1.6126-.0453-.5126-.1218-.9723-.3748-1.3481-.6843-.3776-.3162-.6421-.7249-.8336-1.1067-.1806-.3839-.2974-.7431-.3648-1.0479-.0876-.2983-.0967-.5512-.1223-.7137-.0237-.1649-.0346-.2508-.0346-.2508,0,0,.0219,.0834,.0638,.244,.0438,.1558,.0876,.3952,.1934,.673,.0912,.2845,.2372,.6144,.4396,.9486,.2099,.3298,.4816,.6642,.8338,.9216,.3538,.2506,.7698,.4404,1.2385,.5103,.4671,.0656,.9651,.0339,1.4777-.0586,1.0215-.2191,2.0759-.7273,3.0482-1.4207,1.9519-1.3732,3.5645-3.4352,4.4237-5.2399,.1167-.2214,.2079-.4426,.2972-.6549,.0949-.2102,.1806-.4111,.2482-.61,.1514-.3884,.2482-.7384,.3319-1.0299,.0857-.2912,.126-.533,.1698-.6934,.0383-.1581,.0565-.2461,.0565-.2461Z"/>
  <path class="cls-1" d="M191.7735,36.9803s.3376,.1807,.9814,.4787c.6421,.305,1.5999,.6934,2.8276,1.1474,2.4461,.8877,6.0472,1.9176,10.3942,1.9763,.538-.0114,1.0927-.0248,1.6563-.0385,.5619-.0407,1.131-.1151,1.7111-.167,.5784-.104,1.1675-.2102,1.7677-.3163,.5709-.1738,1.153-.3003,1.7366-.5126,.5801-.2328,1.1804-.4314,1.7476-.7455,.5855-.2641,1.1382-.6322,1.7001-.9892,1.0964-.777,2.1489-1.703,3.0556-2.8504,1.815-2.2744,3.0118-5.4455,2.7746-8.7452-.1277-3.2614-1.6308-6.4191-4.0425-7.8601-1.1712-.7746-2.5156-1.1654-3.8655-1.2308-.155-.0023-.3702-.0339-.4761-.0157l-.5454,.0294c-.3867,.0044-.6877,.079-1.0014,.1377-.6349,.113-1.2825,.366-1.8808,.6642-1.1911,.6415-2.209,1.6803-2.9278,2.961-.3466,.6504-.6239,1.3529-.81,2.0869-.1568,.7363-.2735,1.493-.2407,2.2383-.0127,.1897,.0256,.3704,.0383,.5533l.0256,.2755,.0018,.0339c-.0018-.0089,.011,.0656-.0018-.0089l.0128,.0768,.0273,.1536,.115,.6189c.0438,.1852,.0966,.3388,.1404,.5105,.197,.673,.4725,1.3618,.8318,1.9265,.6969,1.1745,1.7129,1.9898,2.7984,2.4461,1.1037,.4292,2.2382,.5376,3.3474,.2597,.9358-.2733,1.9135-.9961,2.2838-2.0575,.1205-.2508,.1678-.5332,.2299-.8064,.0072-.0226,.0218-.0972,.0201-.0745l.0092-.1243,.0236-.2483c.0127-.1581,0-.262,.0055-.3998-.0145-.5533-.1678-1.0774-.3977-1.5246-.4633-.9103-1.3024-1.4432-2.0978-1.486l-.1496-.0091c-.0127-.0068-.0966,.0067-.1441,.0091-.1058,.0112-.2281,.0135-.3083,.0406-.1751,.0362-.3593,.1039-.5271,.1964-.3376,.1852-.6165,.4834-.8099,.838-.3867,.7092-.467,1.6285-.188,2.2541,.2864,.585,.841,.926,1.2989,1.0185,.4706,.113,.8938,.0068,1.1839-.1964,.301-.192,.4506-.472,.5472-.6481,.0839-.1967,.1259-.2982,.1259-.2982,0,0-.0364,.1062-.1003,.3094-.0876,.1897-.2226,.4969-.5253,.7364-.2901,.2461-.7407,.4133-1.2588,.3454-.5126-.0588-1.1365-.3185-1.5615-1.075-.3794-.7522-.3448-1.8476,.0802-2.7555,.2153-.4564,.5473-.8651,.9632-1.136,.208-.1355,.4287-.2373,.6787-.3073,.1277-.0451,.2243-.0519,.3374-.0745,.0638-.0068,.0876-.0204,.1842-.0273l.1842-.0021c.9833-.0226,2.0705,.5353,2.7583,1.6871,.343,.567,.5709,1.2761,.6239,2.026,.0073,.1919,.0201,.4155,.011,.585l-.0128,.2462-.0072,.1242c-.0092,.1062-.0165,.1107-.0237,.1695-.064,.3772-.126,.7611-.2664,1.1135-.104,.3749-.312,.6866-.4871,1.0254-.2188,.2845-.4232,.6144-.6968,.8356-.5034,.5218-1.1218,.8267-1.795,1.0797-1.2113,.3681-2.6013,.3116-3.9166-.1492-1.3116-.4878-2.5994-1.4365-3.5225-2.8774-.4779-.7046-.8318-1.5087-1.1017-2.401-.0638-.2258-.1367-.4629-.1897-.6798l-.1259-.6121-.0292-.1536-.0164-.0747c-.0201-.1016-.0091-.0563-.0146-.088l-.0055-.0451-.0401-.3569c-.0183-.2349-.062-.4766-.0583-.7137-.0548-.9622,.0674-1.9199,.2589-2.8527,.2134-.9283,.5455-1.8114,.967-2.6358,.8591-1.6284,2.1324-2.9519,3.5881-3.7402,.7406-.3793,1.4794-.6775,2.2875-.8311,.4051-.0792,.8209-.1626,1.1675-.1626l.5472-.0362c.2592-.0226,.4086,.0068,.6184,.0091,1.5688,.0677,3.1614,.5014,4.5861,1.4319,.7223,.4405,1.3736,1.0502,1.9847,1.7053,.5729,.7023,1.1293,1.45,1.5305,2.3195,.8629,1.6963,1.2896,3.6657,1.3827,5.6036l.0219,.6686,.0073,.167,.0018,.0837,.0018,.0925-.0018,.0451-.0182,.3683-.0347,.7363-.1003,.7205c-.1295,.9577-.3867,1.8678-.6842,2.7374-.6109,1.7368-1.5085,3.2591-2.5484,4.5195-1.0434,1.267-2.2255,2.281-3.4549,3.0761-.6276,.3683-1.2441,.7364-1.8845,.9961-.6219,.3162-1.2677,.5059-1.8953,.7226-.6329,.2056-1.2842,.3209-1.9081,.4767-.6202,.079-1.1858,.1716-1.8224,.2349-.6075,.0248-1.2021,.0654-1.7841,.0722-.5819-.0203-1.1529-.0383-1.7129-.0563-2.2365-.1401-4.2559-.5941-6.0071-1.118-1.7549-.5241-3.247-1.1271-4.462-1.6736-1.213-.5421-2.1342-1.0661-2.7581-1.4297-.622-.3659-.9449-.5827-.9449-.5827Z"/>
  <path class="cls-1" d="M191.7735,37.6985s.4214,.5329,1.3006,1.3979c.8793,.8697,2.2219,2.0554,4.048,3.309,1.8241,1.2445,4.1555,2.5003,6.9465,3.3925,2.7874,.8853,6.0325,1.2782,9.5515,.9124,3.4841-.3615,7.1837-1.6759,10.7024-4.0181,1.764-1.17,3.4843-2.586,5.1753-4.1785,1.6928-1.5967,3.3656-3.3448,5.084-5.1427,1.7184-1.798,3.4806-3.6591,5.3924-5.4117,1.9116-1.7481,3.9803-3.4083,6.2787-4.6346,2.2912-1.2424,4.794-2.044,7.3351-2.2835,.6914-.0475,1.1858-.0971,1.888-.0859,.664-.0112,1.2934,.0406,1.9373,.1016,1.2805,.1378,2.5648,.4292,3.8162,.9034,2.5046,.9306,4.8506,2.6764,6.6784,5.03,1.8388,2.3489,3.1449,5.2986,3.7487,8.4493,.3082,1.572,.4305,3.2051,.3538,4.8358-.0237,.4064-.0511,.813-.104,1.2218-.0383,.341-.1003,.7387-.1623,1.1406-.126,.7679-.2809,1.5178-.4689,2.2588-.7479,2.9519-2.0121,5.7232-3.7888,7.8892-1.7694,2.1661-4.037,3.6477-6.3427,4.2416-1.1492,.3116-2.3022,.4451-3.4331,.4496-1.1109,.0156-2.2948-.1311-3.3839-.4947-2.1999-.7001-4.2486-2.3739-5.3759-4.7476-1.153-2.3468-1.37-5.1225-.9486-7.485,.1021-.6144,.2353-1.1385,.4195-1.7572,.1405-.4563,.4031-1.127,.6586-1.5878,.5126-.9893,1.151-1.8114,1.8388-2.4958,1.37-1.3665,2.9697-2.2158,4.5568-2.3739,1.5214-.1107,3.1249,.2394,4.2139,1.4026,.5381,.5715,.9339,1.2941,1.142,2.0509,.2061,.7566,.2863,1.5087,.1969,2.2292-.2098,1.4975-1.0416,2.4484-1.8186,2.8978-.801,.454-1.5999,.3839-2.1344,.0971-.5472-.2868-.8502-.7092-1.0344-.9869-.0912-.1423-.1496-.2553-.1897-.3344-.042-.0745-.0621-.1152-.0621-.1152,0,0,.0237,.0362,.0731,.1062,.0437,.0724,.113,.1785,.217,.3027,.2007,.2506,.5363,.6144,1.0581,.8085,.5126,.1943,1.2222,.1514,1.8789-.3388,.6458-.4608,1.2752-1.3935,1.339-2.5229,.0565-1.1586-.3083-2.5318-1.2095-3.3698-.4379-.4269-.9959-.7092-1.6089-.865-.3137-.0768-.6112-.113-.9431-.1355-.1715,0-.3429-.0023-.5163-.0045-.1641,.0203-.3266,.0383-.4962,.0565-1.3297,.2281-2.6851,1.0638-3.8107,2.3309-1.131,1.2626-2.0121,2.97-2.2183,4.9667-.2699,1.9944,.0128,4.1605,.965,5.8927,.9377,1.7392,2.5029,2.9723,4.3124,3.4648,.9122,.2552,1.8334,.3388,2.8367,.28,.9887-.0451,1.9793-.2123,2.9388-.5173,1.9154-.6097,3.7049-1.8204,5.1133-3.6205,1.4101-1.7957,2.4316-4.1309,3.0245-6.6629,.1477-.6369,.2699-1.2829,.3667-1.9333,.0437-.3073,.0839-.6212,.124-.9961,.0291-.3116,.0511-.6278,.0693-.944,.0528-1.2648-.0493-2.5703-.3065-3.8373-.5017-2.5456-1.5834-4.9509-3.0884-6.8458-1.5013-1.9064-3.4186-3.2955-5.509-4.095-1.0471-.4064-2.138-.6662-3.2453-.795-.5527-.0586-1.1219-.1083-1.6582-.1015-.4944-.0227-1.1966,.0292-1.7001,.0586-2.2365,.1943-4.4182,.8718-6.465,1.9604-4.1227,2.1682-7.6907,5.7888-11.1804,9.2942-3.477,3.5393-7.0524,6.9158-10.8905,9.2466-3.8217,2.374-7.8512,3.4919-11.5562,3.6636-3.683,.201-7.0814-.4991-9.9162-1.6082-2.8512-1.1044-5.1534-2.6357-6.9375-4.0473-1.7858-1.4206-3.0427-2.7827-3.871-3.7358-.8208-.9599-1.2057-1.5334-1.2057-1.5334Z"/>
  <path class="cls-1" d="M305.5938,30.0915s.2956,.0588,.8465,.1672c.5509,.1151,1.3589,.3138,2.3642,.6775,1.0123,.3524,2.2163,.9057,3.5406,1.7007,1.3226,.7973,2.7437,1.8882,4.2084,3.1846,1.4594,1.3078,2.968,2.8165,4.5897,4.2687,1.6217,1.4613,3.4167,2.7782,5.416,3.6839,1.0033,.4472,2.0468,.8153,3.1139,1.0163,1.049,.192,2.1397,.2055,3.1796-.0338,1.0454-.235,2.0558-.7093,2.9369-1.4456,.8774-.734,1.6327-1.7165,2.1708-2.8525,.54-1.1339,.8756-2.4281,.912-3.693,.0493-1.3618-.1003-2.7056-.4414-3.9548-.3466-1.2466-.8993-2.3737-1.6363-3.2569-.7352-.8877-1.6437-1.5201-2.6196-1.9244-.4889-.201-.9832-.3454-1.503-.4381-.467-.0836-.9797-.0948-1.4485-.0294-.9449,.1333-1.8169,.6234-2.4354,1.4094-.6257,.7768-.9796,1.8317-1.0598,2.8978-.0366,.533-.0182,1.0774,.0657,1.59,.0749,.4629,.2427,.9554,.4469,1.3868,.4123,.8786,.9996,1.5946,1.6417,2.0666,.3229,.2349,.6641,.4155,1.0052,.5082,.3612,.0948,.7023,.1331,1.027,.1039,.6622-.0497,1.224-.4336,1.5341-1.0119,.312-.5759,.4196-1.2536,.2663-1.8001-.1441-.5579-.4724-.9667-.8007-1.1859-.3374-.219-.6877-.2303-.9468-.149-.5254,.1875-.7151,.533-.7223,.5105,.0109,.0226,.1606-.3456,.6968-.6212,.2645-.1242,.6513-.167,1.0544,.0273,.3995,.1919,.81,.6142,1.0398,1.2692,.1131,.3162,.1696,.7228,.1332,1.1067-.0438,.3998-.1497,.7815-.3339,1.1519-.354,.7476-1.0781,1.2964-1.8643,1.3823-.3939,.0542-.8062,.0248-1.2003-.0586-.4123-.0792-.8209-.2621-1.2077-.5059-.7753-.4993-1.4831-1.2649-2.0174-2.2542-.2682-.5037-.4853-1.0479-.6239-1.7029-.1186-.6032-.166-1.2378-.1459-1.8928,.0437-1.2987,.4268-2.6787,1.2039-3.7516,.7661-1.0864,1.9063-1.7616,3.0793-1.9809,.5928-.1062,1.1711-.1196,1.7913-.0383,.5637,.0747,1.1529,.2123,1.7256,.4225,1.1475,.4133,2.2894,1.1336,3.2125,2.2133,.9358,1.0661,1.6399,2.4415,2.0741,3.921,.4377,1.4793,.6366,3.0717,.6093,4.6367-.0384,1.6714-.4542,3.257-1.1072,4.6641-.655,1.4026-1.5708,2.6108-2.6488,3.5234-1.0745,.9148-2.3094,1.5133-3.5645,1.7934-1.2587,.2756-2.521,.2462-3.7341,.0114-1.1966-.235-2.3385-.6551-3.424-1.1565-2.1835-1.0119-4.0716-2.5681-5.7097-4.1334-1.64-1.581-3.0554-3.1981-4.431-4.5624-1.3553-1.3958-2.6614-2.5545-3.8854-3.4602-1.2149-.9237-2.3478-1.5787-3.2999-2.0733-.9523-.4879-1.7221-.8087-2.2547-1.0208-.5345-.1988-.8191-.3073-.8191-.3073Z"/>
  <path class="cls-1" d="M305.5938,30.0915s.2956,.0588,.8465,.1672c.5509,.1151,1.3589,.3138,2.3642,.6775,1.0123,.3524,2.2163,.9057,3.5406,1.7007,1.3226,.7973,2.7437,1.8882,4.2084,3.1846,1.4594,1.3078,2.968,2.8165,4.5897,4.2687,1.6217,1.4613,3.4167,2.7782,5.416,3.6839,1.0033,.4472,2.0468,.8153,3.1139,1.0163,1.049,.192,2.1397,.2055,3.1796-.0338,1.0454-.235,2.0558-.7093,2.9369-1.4456,.8774-.734,1.6327-1.7165,2.1708-2.8525,.54-1.1339,.8756-2.4281,.912-3.693,.0493-1.3618-.1003-2.7056-.4414-3.9548-.3466-1.2466-.8993-2.3737-1.6363-3.2569-.7352-.8877-1.6437-1.5201-2.6196-1.9244-.4889-.201-.9832-.3454-1.503-.4381-.467-.0836-.9797-.0948-1.4485-.0294-.9449,.1333-1.8169,.6234-2.4354,1.4094-.6257,.7768-.9796,1.8317-1.0598,2.8978-.0366,.533-.0182,1.0774,.0657,1.59,.0749,.4629,.2427,.9554,.4469,1.3868,.4123,.8786,.9996,1.5946,1.6417,2.0666,.3229,.2349,.6641,.4155,1.0052,.5082,.3612,.0948,.7023,.1331,1.027,.1039,.6622-.0497,1.224-.4336,1.5341-1.0119,.312-.5759,.4196-1.2536,.2663-1.8001-.1441-.5579-.4724-.9667-.8007-1.1859-.3374-.219-.6877-.2303-.9468-.149-.5254,.1875-.7151,.533-.7223,.5105,.0109,.0226,.1606-.3456,.6968-.6212,.2645-.1242,.6513-.167,1.0544,.0273,.3995,.1919,.81,.6142,1.0398,1.2692,.1131,.3162,.1696,.7228,.1332,1.1067-.0438,.3998-.1497,.7815-.3339,1.1519-.354,.7476-1.0781,1.2964-1.8643,1.3823-.3939,.0542-.8062,.0248-1.2003-.0586-.4123-.0792-.8209-.2621-1.2077-.5059-.7753-.4993-1.4831-1.2649-2.0174-2.2542-.2682-.5037-.4853-1.0479-.6239-1.7029-.1186-.6032-.166-1.2378-.1459-1.8928,.0437-1.2987,.4268-2.6787,1.2039-3.7516,.7661-1.0864,1.9063-1.7616,3.0793-1.9809,.5928-.1062,1.1711-.1196,1.7913-.0383,.5637,.0747,1.1529,.2123,1.7256,.4225,1.1475,.4133,2.2894,1.1336,3.2125,2.2133,.9358,1.0661,1.6399,2.4415,2.0741,3.921,.4377,1.4793,.6366,3.0717,.6093,4.6367-.0384,1.6714-.4542,3.257-1.1072,4.6641-.655,1.4026-1.5708,2.6108-2.6488,3.5234-1.0745,.9148-2.3094,1.5133-3.5645,1.7934-1.2587,.2756-2.521,.2462-3.7341,.0114-1.1966-.235-2.3385-.6551-3.424-1.1565-2.1835-1.0119-4.0716-2.5681-5.7097-4.1334-1.64-1.581-3.0554-3.1981-4.431-4.5624-1.3553-1.3958-2.6614-2.5545-3.8854-3.4602-1.2149-.9237-2.3478-1.5787-3.2999-2.0733-.9523-.4879-1.7221-.8087-2.2547-1.0208-.5345-.1988-.8191-.3073-.8191-.3073Z"/>
  <g>
    <path class="cls-1" d="M195.3927,0s-1.9902,6.5997,2.9516,7.8803c2.4025-5.4997-2.9516-7.8803-2.9516-7.8803Z"/>
    <path class="cls-1" d="M199.8948,6.577c.4287,1.1474,.0256,2.5071-.8992,3.0402-.9267,.5308-2.0249,.0338-2.4573-1.1135-.4287-1.1474-.0256-2.5071,.901-3.04,.9287-.5332,2.0232-.0339,2.4554,1.1133Z"/>
    <path class="cls-1" d="M198.9956,9.6172s1.8789-.0588,1.939-2.4032c.0438-1.5607-.5801-3.0648,1.1803-4.4358,0,0-3.0282,.4201-3.4714,3.8305-.0949,.7499-.0603,1.8725,.3521,3.0085Z"/>
    <path class="cls-1" d="M198.9956,9.6149s-1.2496,1.7415-2.7345,.2823c-.9887-.9666-1.5159-2.5251-3.497-1.7481,0,0,2.2146-2.5928,4.6024-.8062,.5254,.3907,1.1948,1.1495,1.6291,2.2721Z"/>
  </g>
  <g>
    <path class="cls-1" d="M279.9129,35.1846c-2.7984,3.5753-5.5729,7.8848-7.3388,12.5353,0,0,3.3384-5.2446,8.196-10.6967-.0163-1.0547-.4541-1.5811-.8572-1.8385Z"/>
    <g>
      <path class="cls-1" d="M354.1265,31.1417s.7571-3.8508-2.4516-3.8508c-4.6207,0-4.7138,6.3037-9.0117,8.6323-.4487,.244-.9923,.5376-1.6289,.8289,0,.0248,.0035,.0519,.0035,.0768-.0256,1.136-.2134,2.2609-.5527,3.3562,7.8386-2.6108,10.5493-9.2241,16.8482-6.2404,0,0-1.0379-2.4506-3.2069-2.803Z"/>
      <path class="cls-1" d="M339.387,37.4161c-.1112,1.118-.4158,2.2698-.9047,3.3156,.2061-.0451,.4123-.0881,.6092-.1377,.4469-1.0955,.7078-2.218,.7807-3.3541-.1586,.0609-.3192,.1196-.4852,.1761Z"/>
      <path class="cls-1" d="M305.8091,26.611c10.7318,4.6098,17.5232,14.8864,28.8951,14.5725,.7955-.0248,1.5471-.088,2.2657-.1829,.1806-.2868,.3558-.585,.5053-.8966,.3503-.7408,.5946-1.5449,.7261-2.3399-1.4448,.3636-3.1432,.5624-5.1059,.3727-.3302,.1966-.6969,.3275-1.0745,.3681-.3958,.0542-.8647,.0316-1.3427-.0654-.4377-.0859-.9012-.2779-1.3718-.576-.3886-.2483-.7533-.5624-1.0872-.9169-3.1759-1.2151-6.8243-3.4286-10.9561-7.205,0,0,5.0894,.2328,7.5412-5.9536,0,0-2.4098,1.9491-5.9706,1.2308-.0528,.0745-.1075,.1469-.1714,.2258-.3667,.4676-.923,.9916-1.5397,1.3529-.1495,.1016-.3137,.1649-.4651,.244-.1568,.079-.3174,.1219-.467,.1807-.1496,.0566-.3028,.0792-.4432,.1175-.1369,.0406-.2756,.0453-.3959,.061-.2499,.0429-.4542,.0316-.5983,.0316h-.2243s.0784-.0159,.2225-.0453c.1404-.0271,.3429-.0609,.5764-.1445,.1167-.043,.2445-.0724,.374-.1401,.1277-.0633,.2681-.1128,.4013-.1943,.1332-.0859,.2754-.1536,.4105-.2552,.1331-.1016,.2736-.1897,.3977-.3094,.467-.3998,.8536-.8966,1.12-1.3326-.7242-.2191-1.4831-.5399-2.2784-1.0231-.5161-.3141-1.0307-.6415-1.5468-.9667-.0366,.0224-.0712,.0451-.1078,.0722-.2061,.1469-.4633,.2824-.7278,.4381-.1331,.0813-.2846,.138-.4249,.2079-.1478,.0656-.2901,.1399-.4415,.201-.1514,.0519-.3028,.1039-.4524,.1558-.1496,.0453-.2919,.1084-.4397,.1266-.1441,.027-.2845,.0518-.4195,.0768-.1314,.018-.2535,.0609-.3721,.0519-.4616-.0091-.7718-.0159-.7718-.0159,0,0,.3028-.0565,.7534-.149,.1131-.0114,.2281-.0813,.3503-.1243,.1222-.0497,.2517-.1062,.3867-.1604,.1349-.0429,.2664-.1377,.3977-.2123,.1349-.0768,.2698-.1536,.403-.2326,.1314-.0857,.2592-.1873,.3869-.28,.124-.0972,.2499-.174,.3647-.2779,.1387-.1196,.2682-.2303,.3886-.3365-1.1839-.7476-2.3841-1.4636-3.6282-2.0192,0,.0023-.0018,.0023-.0018,.0044-.0876,.0949-.1934,.1808-.2974,.2802-.1057,.0971-.2115,.2056-.3411,.2891-.124,.086-.2499,.174-.3812,.2665-.124,.0993-.2718,.1492-.4086,.2237-.1386,.0678-.2754,.1378-.4103,.2055-.1424,.043-.2829,.0859-.4178,.1242-.1332,.0407-.2627,.0792-.3849,.1152-.1223,.0407-.2427,.0362-.3503,.0542-.4342,.0407-.7205,.0722-.7205,.0722,0,0,.2754-.0925,.6913-.2349,.1022-.0429,.2189-.0588,.3266-.1242,.1131-.0631,.2298-.1287,.3485-.1943,.1222-.0677,.2445-.1355,.3685-.2055,.1186-.0904,.2335-.1852,.3521-.2779,.113-.0993,.2407-.167,.3393-.2868,.1021-.1062,.2024-.2123,.301-.3162,.0966-.088,.1715-.201,.2462-.3027-2.355-.8988-4.9017-1.1224-7.8696,.2237l.4469,.1761c.1113,.0453,2.7527,1.1114,3.7524,4.0949,.2226,.6574,.3411,1.3531,.3685,2.0802Z"/>
    </g>
  </g>
  <path class="cls-1" d="M178.6667,28.3614s-8.7032,12.1128,0,25.9175c8.7032-13.8047,0-25.9175,0-25.9175Z"/>
  <path class="cls-1" d="M185.8796,17.8363c-2.0998-.6687-3.7141,.3319-4.8816,1.7097,2.0687-6.5907-2.3313-11.6927-2.3313-11.6927,0,0-4.4018,5.1021-2.3331,11.6927-1.1639-1.3777-2.78-2.3784-4.8797-1.7097-4.9508,1.5741-3.9604,12.7814-3.9604,12.7814,3.6775-14.0101,11.1732-6.6538,11.1732-6.6538,0,0,7.4957-7.3563,11.1732,6.6538,0,0,.9887-11.2072-3.9603-12.7814Z"/>
  <path class="cls-1" d="M204.3112,31.9594c-3.0155-4.4361-3.4879-8.5962-1.2242-14.3354,0,0-6.2242,1.3777-5.2809,13.5176,0,0-5.5638-6.6515-4.0534-18.6765,0,0-4.5368,15.2909,3.205,22.5297,6.1201,5.7189,16.8774,.5827,16.8774,.5827,0,0-6.505,.8153-9.524-3.6182Zm3.568,4.1986c-.1989-.018-.4432-.0406-.7242-.0677-.2773-.0271-.5966-.0519-.9322-.1672-.3374-.0903-.706-.1919-1.0964-.3116-.3831-.131-.7733-.3501-1.1803-.5511-.4177-.174-.8026-.5037-1.2021-.7974l-.3028-.2303-.2718-.2823-.5509-.5736c-.1825-.192-.3156-.4451-.4761-.6663-.1459-.2349-.3247-.4382-.4342-.7048-.1259-.2461-.2425-.5014-.3575-.7499-.1148-.2506-.1805-.5262-.2699-.7791-.1915-.5059-.2463-1.0502-.3448-1.5336-.0456-.5037-.0985-.9736-.0802-1.4117-.0128-.4358,.0346-.8335,.0656-1.1791,.0456-.3456,.0912-.6459,.1459-.8853,.0475-.244,.1022-.4292,.1405-.5556,.0346-.1243,.0583-.1899,.0583-.1899,0,0-.0291,.2824-.0311,.7747-.0072,.4879,0,1.1836,.1041,1.9945,.0328,.4064,.1386,.8311,.2134,1.2805,.1332,.4358,.2243,.908,.416,1.3484,.093,.2169,.1605,.4608,.2754,.6708,.1167,.2123,.2316,.4246,.341,.646,.0986,.2303,.2609,.4043,.3941,.6075,.146,.192,.2627,.4155,.4324,.5804l.4815,.524,.2408,.262,.2701,.2123c.3648,.2642,.6822,.6189,1.069,.8087,.3739,.2055,.7133,.4675,1.0671,.6392,.3612,.1581,.6987,.3207,1.0088,.472,.312,.1649,.6129,.2599,.8738,.3524,.2645,.0993,.4944,.1852,.6859,.2574,.3814,.156,.5966,.244,.5966,.244,0,0-.2263-.0091-.6257-.0385Z"/>
  <path class="cls-1" d="M224.4886,2.4258c-5.4671,2.8007-2.9224,11.0897-2.9224,11.0897,0,0-4.1483-5.0209-11.881-1.9853-6.8262,2.681-11.0309-2.6832-11.0309-2.6832,0,0,3.8655,7.5866,11.881,4.5512,8.0136-3.0356,13.1743,3.2772,14.3837,8.1106,1.3353,5.3371-1.1856,10.3354-2.3186,12.9034,0,0,4.3398-5.371,3.9622-11.092-.3758-5.7189-3.2999-10.1548-.8483-15.4669,2.4518-5.31,6.9776-2.6268,6.9776-2.6268,0,0-2.7345-5.6036-8.2033-2.8007Zm1.4046,1.2693c-.115,.0971-.2518,.2169-.4123,.3522-.155,.1355-.3027,.3412-.4779,.5218-.0857,.0948-.1789,.1875-.2682,.2936-.0784,.1175-.1569,.2394-.2408,.3613-.0839,.1242-.1678,.2462-.2572,.3728-.0711,.1422-.1422,.2867-.2153,.4358-.0711,.1469-.1605,.2823-.217,.4472-.053,.1626-.1095,.3275-.1751,.4879-.1424,.3162-.1825,.6933-.2829,1.0367-.0583,.3636-.1404,.7251-.166,1.093-.0292,.3659-.0766,.7273-.0766,1.0865-.0311,.7114,0,1.3891,.0182,1.9762,.0712,1.1654,.166,1.9718,.166,1.9718,0,0-.3648-.6889-.6403-1.8679-.062-.2936-.1367-.6142-.1805-.9645-.0475-.3478-.104-.7158-.1076-1.1067-.0256-.3884-.022-.7927,.0054-1.206,.0237-.4089,.0986-.8246,.1606-1.2399l.1623-.6075c.0456-.2056,.1095-.3998,.197-.5851,.1405-.3862,.3102-.7431,.5218-1.0525,.1003-.1558,.1915-.3185,.2955-.4585,.1168-.131,.2316-.2506,.3429-.3727,.1113-.1196,.2171-.2326,.3247-.3433,.115-.0903,.2335-.167,.3429-.2462,.2226-.149,.4178-.3026,.6055-.3839,.1972-.0813,.365-.1401,.5035-.192,.2773-.0971,.4324-.1401,.4324-.1401,0,0-.1332,.1266-.3612,.3298Z"/>
  <path class="cls-1" d="M273.4809,26.367c-.0895-.0271-.1788-.061-.2609-.1016-.1915-.1018-.3886-.2011-.5856-.3027-.1934-.1016-.3849-.1943-.5564-.3342-.177-.1243-.3483-.2506-.5126-.3704-.1624-.1243-.3264-.2281-.467-.3522-.1387-.1289-.2664-.2555-.3867-.3683-.467-.4495-.7808-.7497-.7808-.7497,0,0,.3758,.1422,.9394,.3566,.1369,.0521,.2864,.1086,.4432,.1695,.1589,.0498,.3357,.0768,.509,.1175,.1751,.036,.3557,.0745,.5363,.1152,.1805,.0474,.3703,.0497,.5527,.0588,.073,.0021,.1442,.0067,.2171,.0067-.9085-3.8102-2.9095-7.7989-6.9684-10.9813-.1624-.1264-.3264-.2394-.4907-.3592-.4798,.7702-1.1219,1.6105-1.8643,2.2948-.2153,.2123-.4469,.3998-.675,.5759-.2206,.1875-.4615,.3275-.6859,.4743-.2171,.1537-.4506,.2574-.662,.366-.208,.1151-.4141,.1964-.6038,.262-.3758,.1536-.6969,.2281-.9175,.2755-.2209,.0521-.3449,.0813-.3449,.0813,0,0,.1095-.0813,.3028-.2235,.1934-.1355,.4653-.3344,.7589-.6212,.1532-.1355,.3119-.2845,.4651-.4675,.1551-.1808,.3266-.3501,.4743-.567,.1532-.21,.3174-.4134,.4542-.6527,.1459-.2282,.2882-.4608,.4105-.7139,.4213-.7905,.717-1.6397,.9084-2.3646-4.9435-2.7691-10.5256-2.9837-15.5932-1.6194,.0257,.3748,.0493,.777,.0456,1.2128,.0037,.5782-.0383,1.1971-.1168,1.8001-.051,.3027-.0802,.603-.1568,.8921-.0638,.2891-.1222,.5715-.217,.8358-.0804,.2665-.1643,.5149-.2683,.7408-.0948,.2258-.1768,.4405-.2863,.6234-.1021,.1784-.1934,.3454-.2754,.49-.0966,.1334-.1806,.2462-.2463,.341-.1349,.1875-.2134,.2936-.2134,.2936,0,0,.0475-.1287,.1314-.3568,.0383-.113,.0876-.2462,.146-.4043,.0383-.1626,.0857-.3456,.1349-.5465,.0565-.192,.0785-.4178,.1131-.6483,.0438-.2281,.0565-.4743,.0657-.7273,.0237-.2483,.0109-.5105,.0035-.7723,.002-.2597-.0418-.5287-.0601-.7884-.0675-.524-.1643-1.0367-.2864-1.5043-.0857-.3431-.1842-.6527-.2791-.9372-4.0589,1.4139-7.6726,3.8058-10.1918,6.6335,.062,.2102,.0986,.4472,.1532,.6889,.0438,.2576,.1167,.5173,.1422,.8018,.0311,.2802,.0657,.567,.0986,.8604,.042,.287,.0383,.5897,.0437,.8856,.0073,.2936,.0092,.5871,.0128,.8763,0,.2845-.0438,.5691-.0638,.8379-.0237,.2688-.0493,.5285-.073,.7723-.0091,.2441-.0802,.4699-.1185,.6754-.177,.8153-.2973,1.3574-.2973,1.3574,0,0-.0219-.5533-.0565-1.3845-.0128-.2055-.002-.4269-.053-.6572-.0347-.2303-.0766-.4697-.115-.7205-.0473-.244-.0711-.5014-.135-.7499-.0711-.2461-.1404-.4969-.2115-.7475-.0693-.2485-.1296-.497-.2318-.7251-.0894-.2259-.1805-.4517-.2663-.6708-.0493-.1422-.1168-.2709-.1843-.3952-5.8374,7.9841-7.5612,17.73-13.8785,21.8092,0,0,7.1217-3.4195,13.6705-11.44,8.3912-10.2699,16.9102-12.6413,25.6299-9.5245,9.3508,3.3382,12.6598,12.3207,12.6598,17.5744,0,0,1.576-5.2084,.6148-11.3067Zm-32.4377-7.8916c-.0347,.2688-.0949,.5467-.1806,.813-.0802,.2711-.1825,.5309-.3065,.7546-.1112,.2279-.228,.4313-.3575,.5827-.239,.3139-.436,.4787-.436,.4787,0,0,.0402-.3026,.1588-.6866,.0638-.1875,.1185-.4155,.1879-.6504,.0749-.2349,.1623-.4744,.2263-.7273,.0893-.2394,.1513-.49,.2261-.7228,.0784-.2281,.1295-.4495,.2007-.639,.1112-.3796,.2024-.6574,.2024-.6574,0,0,.0256,.0678,.0511,.192,.0309,.1264,.051,.305,.0637,.5262,0,.2123,.0075,.472-.0363,.7363Zm1.8423-1.2331c-.0146,.2055-.0729,.4021-.1093,.6075-.0493,.1988-.0876,.4043-.1496,.5918-.0693,.1852-.1514,.359-.228,.5308-.0712,.1693-.1497,.3297-.2226,.4809-.0804,.1446-.1806,.2599-.2645,.3728-.3376,.4516-.5946,.6978-.5946,.6978,0,0,.1112-.3998,.3229-.9169,.0492-.1311,.1148-.2665,.1677-.4134,.0439-.1581,.0877-.3206,.1442-.4855,.053-.1649,.1004-.3365,.1624-.5038,.0492-.1716,.0747-.3568,.113-.5374,.0401-.1763,.1004-.3524,.1186-.5332,.0146-.1805,.0438-.3566,.0675-.5306,.0291-.1738,.0363-.3433,.0438-.5014,0-.1626,.0254-.3207,.0236-.4608-.0073-.2868,.0018-.533-.0164-.7025-.0018-.1761-.0147-.2823-.0147-.2823,0,0,.0548,.0768,.1205,.2371,.0329,.0769,.0894,.1763,.1186,.2938,.0328,.1151,.0747,.2506,.1112,.3996,.0384,.1492,.0548,.3139,.0749,.4923,.0201,.1763,.053,.3659,.0329,.558-.0055,.1964-.0055,.3998-.022,.6053Zm9.7011-.7431c-.1532,.1219-.3229,.1919-.4761,.2642-.1532,.0836-.3047,.131-.4451,.1626-.2791,.0903-.5181,.0993-.6841,.0993-.166,.0023-.259-.0045-.259-.0045,0,0,.0839-.0474,.2353-.1333,.0729-.0362,.1641-.0836,.2664-.1355,.104-.0519,.2098-.1355,.3319-.2055,.1186-.07,.2463-.1536,.3722-.2529,.1314-.0995,.2681-.1943,.3958-.3209,.135-.1151,.2664-.237,.3977-.3793,.1332-.1266,.259-.2733,.3776-.4314,.2554-.2914,.4706-.6347,.6749-.9531,.1952-.3298,.374-.6483,.5145-.9328,.2881-.5668,.4651-.9802,.4651-.9802,0,0,.0073,.4766-.1678,1.1474-.084,.3388-.2189,.7182-.3958,1.1044-.0986,.1875-.1917,.3907-.3102,.5715-.1222,.1829-.2371,.3749-.3814,.5399-.2718,.3386-.591,.6322-.912,.8401Zm4.7229-3.9006c0,.0993-.0092,.2214-.0346,.3524-.0274,.1308-.0366,.2936-.0894,.4472-.0511,.1557-.1058,.3274-.1698,.5059-.062,.1805-.1641,.341-.2571,.5194-.1041,.167-.1825,.3772-.3175,.5194-.1277,.156-.2535,.3163-.3812,.4744-.1295,.1581-.2681,.3003-.4158,.4178-.1424,.1287-.2919,.2371-.4324,.3524-.1442,.1083-.2754,.2258-.4196,.2957-.1404,.0769-.2754,.1446-.3994,.2032-.498,.2396-.8428,.3344-.8428,.3344,0,0,.2645-.3116,.6823-.6866,.1038-.0949,.2151-.1943,.3374-.2936,.1259-.0993,.2316-.2415,.3557-.359,.124-.1243,.2462-.2576,.3794-.3772,.1369-.1152,.2592-.2529,.374-.4043,.1222-.1401,.2444-.2802,.363-.4157,.1277-.1331,.2153-.2935,.3229-.4336,.0931-.1513,.2171-.2733,.2918-.4223,.0785-.1446,.1606-.2777,.2372-.4021,.0767-.1264,.1222-.2553,.1788-.3636,.0547-.1107,.0986-.2078,.1277-.2936,.0692-.1649,.0985-.2733,.0985-.2733,0,0,.0202,.1039,.011,.3027Zm10.4708,7.3359c-.3812,.1897-.9157,.3569-1.4629,.427-.2754,.0089-.5473,.0586-.8064,.0156-.259-.0294-.4997-.045-.7004-.1151-.4031-.1378-.6512-.2642-.6512-.2642,0,0,.279-.0339,.6731-.036,.1989,.0021,.4324-.0407,.6749-.0475,.2445-.0045,.5072-.0565,.7699-.0768,.1294,0,.259-.0339,.3903-.0497,.1277-.0135,.2555-.0294,.3777-.0474,.2444-.0453,.4778-.061,.6749-.0971,.2025-.025,.3722-.0475,.4889-.0612,.1205-.0135,.1862-.0226,.1862-.0226,0,0-.2316,.1899-.6148,.3749Z"/>
  <path class="cls-1" d="M257.2984,26.7057c-15.4618-3.153-18.479,12.4902-28.6616,19.8465-10.1826,7.354-26.21,1.8678-26.21,1.8678,7.7328,5.8364,13.2474,5.8589,20.1774,4.4361,3.1176-.6415,5.8448,1.0886,6.1274,3.9683,.2117,2.1367-1.8843,4.4359-1.8843,4.4359,10.7462-1.0525,5.3722-10.1548,5.3722-10.1548,7.4481,.3478,11.881-7.6882,11.881-7.6882-2.5484,1.7707-5.6568,0-5.6568,0,7.4317-1.17,10.3686-9.7076,10.3686-9.7076-2.0705,1.6353-4.8086,.7025-4.8086,.7025,3.7743-.4675,5.7517-3.5031,7.6361-5.371,1.8845-1.8678,5.6586-2.3354,5.6586-2.3354Zm-18.4078,20.0995c.1332-.0204,.2116-.0453,.2116-.0453,0,0-.053,.0722-.1641,.174-.1114,.1105-.2829,.2235-.4944,.3568-.2226,.0927-.4816,.2394-.7753,.2823-.1478,.0294-.2992,.0678-.4524,.0859-.1532,.0023-.312,.0023-.4725,.0023-.1551-.0114-.3119-.0045-.4653-.0362-.1531-.0294-.3027-.0768-.445-.1128-.1424-.0362-.2792-.079-.4069-.1242-.1312-.0498-.2444-.1198-.3502-.1785-.4288-.2349-.6896-.4495-.6896-.4495,0,0,.3247-.0089,.7698,.0588,.1076,.018,.228,.0385,.354,.0588,.1277,.0045,.2626,.0091,.3995,.0247,.1369,.0182,.2754,.0227,.4195,.0498,.1424,.0226,.2863,.0045,.4305,.0089,.1459,.0091,.2882,.0159,.4305,.025,.1405-.0182,.2809-.0159,.416-.025,.1367,0,.2699,0,.3941-.0226,.1221-.018,.2425-.0271,.3538-.0362,.2151-.045,.4103-.0586,.5363-.0969Zm5.2226-9.0887c.4342-.2034,.7407-.3524,.7407-.3524,0,0-.0438,.0859-.1441,.2123-.0949,.1378-.2482,.3027-.4434,.4925-.1987,.167-.4396,.3793-.7188,.5285-.1367,.079-.2773,.167-.4267,.2417-.1534,.0586-.3083,.1218-.4634,.1805-.3119,.1221-.6293,.1943-.9339,.235-.2992,.0586-.5801,.079-.8246,.0565-.487-.0204-.8081-.0972-.8081-.0972,0,0,.3082-.1581,.768-.3026,.1131-.0339,.2335-.0701,.3684-.1107,.126-.0497,.2592-.104,.4014-.149,.1387-.0453,.2828-.1018,.4305-.138,.1496-.0383,.2919-.1105,.4397-.1648,.2972-.0904,.5891-.2078,.8646-.323,.2773-.0949,.5218-.2281,.7497-.3094Z"/>
  <path class="cls-1" d="M304.3479,30.9113c3.1084-7.4714-2.8311-9.8069-2.8311-9.8069,1.1311,5.0186-4.2431,9.2197-8.5427,10.0373-4.3032,.8177-8.0501,5.0209-8.0501,5.0209,.2809-2.1026-.8117-3.6883-3.0173-3.9707-2.7362-.3477-5.0894,2.9183-5.0894,2.9183,1.5068-1.6308,4.5222-1.1654,4.5222,1.9853s-2.2255,7.903-7.5467,13.423c-7.1599,7.4397-14.8891,7.9389-14.8891,7.9389,13.1306,3.4737,17.536-8.4042,23.8495-11.5572,6.3209-3.1507,7.0742,3.0377,7.0742,3.0377,2.8275-7.5889-3.1813-8.874-3.1813-8.874,0,0,4.5003-3.3835,8.9313-3.1509,4.4309,.2328,3.5844,6.3038,3.5844,6.3038,4.8049-2.6855,3.2052-8.4066,3.2052-8.4066,0,0,5.1004,.3457,5.6603,6.4213,.3321,3.5865-.5709,6.769-3.9767,8.3183-3.7651,1.7076-6.5872-.847-6.5872-.847,2.0759,3.7358,13.7635,5.2535,15.1791-5.6013,1.4157-10.8571-8.2946-13.1902-8.2946-13.1902Zm-21.135,5.8136c-.0164,.1649-.0346,.2597-.0346,.2597,0,0-.0311-.0925-.0785-.2485-.0493-.1557-.0857-.3793-.1787-.6277-.0457-.1221-.0804-.2621-.1369-.3977-.0566-.131-.1131-.2688-.1715-.4111-.0693-.1331-.1441-.2664-.2189-.4042-.0876-.1174-.1568-.2642-.2645-.3659-.1769-.2462-.4103-.4202-.6239-.5941-.1167-.0656-.2243-.1581-.3356-.21-.1095-.0633-.217-.1196-.3192-.1672-.4068-.1919-.7133-.2823-.7133-.2823,0,0,.301-.1467,.7753-.1107,.2408,.0089,.5163,.0857,.8064,.2146,.1349,.0859,.29,.1467,.4195,.2733,.1405,.1037,.2682,.2349,.3867,.3793,.1314,.1334,.2134,.3209,.3156,.4744,.0931,.167,.1496,.3545,.2226,.5217,.0547,.1785,.0876,.3569,.124,.5194,.0346,.1626,.0383,.3298,.0493,.4743,.0328,.2915-.0092,.5376-.0237,.7025Zm3.7888,6.6989c.1569,.0159,.3192,.0519,.4835,.1018,.1586,.0677,.3264,.113,.4834,.2123,.3137,.1738,.602,.4292,.8209,.7251,.124,.1287,.1989,.3048,.2846,.4493,.0911,.1423,.1459,.3004,.1934,.4473,.0492,.1399,.1003,.2665,.1185,.393,.0219,.1221,.0383,.2303,.053,.3162,.0254,.1763,.0309,.2756,.0309,.2756,0,0-.0492-.0813-.1369-.2214-.0383-.07-.0838-.1558-.1404-.2529-.0511-.0972-.135-.1876-.2006-.3004-.0748-.1084-.1497-.2258-.2445-.3298-.0967-.1062-.1843-.2303-.2956-.3251-.1076-.1062-.2188-.2055-.3411-.2936-.1167-.0995-.2444-.1763-.3776-.2485-.124-.0904-.2663-.131-.3995-.1966-.1387-.0429-.2718-.1128-.4105-.1422-.2719-.0836-.5345-.1264-.7643-.1695-.4561-.0656-.7899-.0881-.7899-.0881,0,0,.29-.2099,.7807-.3116,.2463-.0497,.5381-.0813,.8519-.0407Zm14.0536-3.1733c-.0511,.2055-.1076,.3975-.1606,.5783-.0657,.1716-.1369,.3319-.2024,.4766-.1185,.298-.2901,.49-.3814,.6413-.1003,.1446-.1623,.2214-.1623,.2214,0,0,.0219-.1084,.0657-.2891,.0346-.1875,.1277-.4223,.1788-.7317,.0273-.1514,.062-.3141,.1003-.479,.0201-.1738,.0419-.3545,.0712-.5353,.0254-.1805,.0092-.3725,.0309-.5623-.0055-.1875-.0127-.3795-.0346-.5692-.0346-.1852-.0438-.3772-.1003-.5511-.0438-.1807-.1004-.3547-.1624-.5196-.1277-.3251-.2773-.6256-.4342-.8673-.1459-.2438-.29-.4404-.3939-.5736-.1022-.1355-.1679-.21-.1679-.21,0,0,.3595,.0857,.7898,.4991,.1095,.0993,.2226,.2212,.3321,.3613,.1058,.1446,.2153,.3027,.3065,.4879,.0894,.1852,.1897,.3793,.2427,.5986,.0784,.2123,.104,.4472,.1496,.6752,.0164,.2326,.0219,.4676,.0164,.6934-.0201,.2235-.0438,.4517-.0839,.6549Zm2.3988-13.5064c-.0219,.1333-.0401,.2665-.0657,.4021l-.1095,.3952c-.0657,.2688-.2024,.4946-.301,.7385-.115,.2303-.2699,.4246-.3941,.6256-.1477,.1808-.3047,.3366-.4451,.4858-.1441,.1511-.3065,.2461-.4414,.3522-.2681,.2214-.5363,.3048-.7078,.3907-.1733,.0768-.2754,.113-.2754,.113,0,0,.0802-.0836,.2243-.2349,.1369-.1514,.354-.3207,.5692-.5941,.1057-.1331,.2353-.2574,.3503-.4133,.1112-.1604,.228-.3275,.3466-.5014,.0983-.1875,.2024-.3818,.3064-.5782,.0785-.2123,.1934-.4066,.2408-.6371l.1021-.3342,.0657-.341c.0511-.2259,.062-.4608,.0931-.6821-.002-.2259,.0291-.4451,.0164-.6574-.0037-.2123-.0128-.4155-.0274-.6007-.0566-.7476-.1661-1.2604-.1661-1.2604,0,0,.2829,.4111,.4835,1.1791,.0511,.1897,.0986,.3998,.1259,.6278,.0456,.2305,.0493,.4766,.0621,.7317-.0147,.2555,.0035,.5264-.053,.7929Zm7.3879,15.6634c-.0017,.2711-.0035,.5399-.0091,.8085-.0438,.5287-.1551,1.0391-.239,1.5337-.1387,.4697-.2938,.9147-.4324,1.3347-.1623,.4089-.3648,.759-.5308,1.0932-.0857,.1649-.166,.323-.2445,.472-.0875,.1423-.1842,.2621-.2681,.3863-.1696,.2349-.3192,.4381-.4415,.6053-.248,.3321-.3958,.5128-.3958,.5128,0,0,.093-.2371,.2591-.6347,.0857-.1943,.1897-.4337,.3065-.7048,.0601-.1331,.1312-.2755,.1897-.4292,.051-.1579,.1095-.3229,.166-.499,.113-.3478,.2572-.7093,.3739-1.1068,.0912-.4043,.1843-.8312,.2938-1.2648,.0492-.4472,.104-.908,.1441-1.3711,0-.2349-.0018-.4697-.0055-.7069v-.3524l-.0511-.3501-.0821-.7001c-.0583-.2259-.1148-.4541-.1696-.6754l-.0821-.3342-.1148-.3185c-.0785-.2123-.146-.427-.2263-.628-.1952-.3818-.3448-.7882-.5527-1.1247-.1897-.3524-.3922-.6642-.5819-.9577-.3886-.5692-.7424-1.0276-1.0051-1.3326-.2554-.3139-.4178-.4788-.4178-.4788,0,0,.197,.0881,.5163,.3094,.3247,.2146,.7699,.5692,1.2514,1.0797,.2408,.2597,.498,.5442,.7315,.8989,.259,.3274,.4743,.734,.706,1.1473,.1004,.2147,.1934,.4451,.2937,.6754l.1477,.3478,.1059,.3795c.0674,.253,.1422,.5059,.2061,.7679l.1131,.8017,.0528,.4066-.0073,.4089Z"/>
  <path class="cls-1" d="M300.9713,21.292l-.1824-.8132c-.9394,.472-1.9191,1.093-2.9497,1.9062,0,0,2.5465-8.2935-3.3894-11.7945-5.9048-3.4804-12.0726,2.1073-12.1656,6.3107,0,0,3.2033-5.4885,7.3533-2.568,4.15,2.918,1.8845,9.2195-1.4137,12.0225-1.2368,1.0502-3.205,2.9001-5.3869,5.3325,.7753,.2438,1.4065,.6684,1.8698,1.2602,4.8451-4.6052,10.511-8.393,15.761-7.9254,.6129-1.231,.7844-2.4868,.5034-3.7311Zm-5.4834-2.6066c-.0384,.4451-.0695,.8673-.1405,1.2445-.0547,.3818-.1314,.7228-.2097,1.0232-.0694,.3003-.1441,.5556-.2136,.7634-.1349,.4134-.2206,.646-.2206,.646,0,0,.0182-.2574,.0566-.6957,.0236-.2167,.04-.4856,.0583-.7905,.0219-.3004,.0383-.6437,.0437-1.0119,.0202-.3727-.0054-.7702-.0091-1.1857-.0273-.4157-.0657-.847-.1314-1.2852-.0274-.2212-.0839-.4336-.124-.6549-.0565-.2146-.1168-.4292-.1751-.646-.1441-.4201-.301-.8401-.5254-1.2106-.3995-.7747-.9868-1.3845-1.5869-1.8656-.6093-.4744-1.2441-.8085-1.8078-1.0526-1.1291-.4741-1.9501-.6322-1.9501-.6322,0,0,.2025-.0453,.5654-.0678,.3613-.0135,.8831-.0135,1.5051,.1198,.31,.0586,.6438,.1513,.9904,.2867,.3466,.1446,.715,.3029,1.069,.5467,.3521,.2394,.7188,.5059,1.0398,.8673,.3284,.3478,.6256,.7544,.8774,1.2062,.2572,.4472,.4341,.9531,.591,1.4501,.1442,.5035,.2244,1.0208,.2719,1.5154,.051,.497,.0401,.978,.0256,1.4297Z"/>
  <path class="cls-1" d="M176.5451,25.0141s-6.5561,6.4868-5.799,17.861c.7278,10.9316-3.9586,16.4585-9.6172,15.7584-5.655-.7002-5.562-6.3626-5.562-6.3626,0,0-.4725-5.7187,4.9965-5.7187,0,0-2.9241,.9327-2.5464,4.5533,.3793,3.6162,4.6736,4.4314,6.6965,1.7506,5.2792-7.0041-1.4156-19.8465,11.8317-27.8419Z"/>
  <path class="cls-1" d="M90.1824,32.8357s-.2571,.5871-.5564,1.6962c-.2918,1.1089-.6384,2.7532-.6822,4.7927-.0583,2.0237,.2153,4.4697,1.1201,6.8143,.4487,1.1698,1.0288,2.3218,1.7549,3.3405,.717,1.0366,1.5524,1.9695,2.4955,2.7352,.9467,.7566,1.9883,1.3303,3.061,1.6848,1.0745,.3569,2.1872,.4608,3.2471,.3298,1.0598-.131,2.0741-.533,2.915-1.1857,.8464-.6415,1.4921-1.5563,1.868-2.5139,.3866-.9577,.5016-1.9379,.4944-2.7712-.0018-.8403-.1223-1.5517-.2463-2.1164-.124-.5714-.2773-.9914-.3703-1.2805-.1021-.2847-.1569-.436-.1569-.436,0,0,.0347,.1581,.1004,.4608,.0565,.3003,.1405,.7452,.2079,1.3099,.062,.567,.0949,1.2626,.0366,2.035-.064,.7725-.25,1.6262-.6349,2.4169-.3831,.7905-.9777,1.4951-1.7238,1.9942-.7461,.5037-1.64,.7793-2.5741,.8606-.9393,.0813-1.919-.0813-2.8748-.4066-.9578-.3342-1.8882-.8627-2.7327-1.5539-.8519-.6777-1.6272-1.5178-2.2893-2.4506-.6658-.9374-1.2478-1.9424-1.6855-2.9994-.4379-1.0547-.7681-2.1366-.987-3.2026-.2115-1.0684-.3283-2.1096-.3739-3.0764-.0912-1.94,.0857-3.5799,.2499-4.7091,.1678-1.1362,.3374-1.7684,.3374-1.7684Z"/>
  <path class="cls-1" d="M90.7005,41.0638s.0092,.088,.0274,.2552c.0237,.1626,.0274,.4111,.0912,.7137,.0583,.3071,.1259,.6821,.2444,1.0977,.1076,.4178,.2572,.8786,.4616,1.3597,.1003,.2417,.2043,.49,.3319,.7385,.1186,.2529,.2517,.5105,.3977,.7611,.2826,.515,.6202,1.0254,.9941,1.5224,.385,.4879,.7936,.9802,1.2514,1.4138,.4506,.4495,.9431,.8492,1.4485,1.2221,.5126,.3568,1.0489,.6571,1.5943,.9147,.5472,.2417,1.1092,.4111,1.6619,.5059,.5564,.0859,1.1054,.07,1.6163-.0453,.5089-.1218,.9704-.3748,1.3444-.6843,.3794-.3162,.6439-.7249,.8336-1.1067,.1824-.3839,.301-.7431,.3667-1.0479,.0894-.2983,.0966-.5512,.124-.7137,.0219-.1649,.0328-.2508,.0328-.2508,0,0-.0219,.0834-.0638,.244-.0438,.1558-.0876,.3952-.1952,.673-.0912,.2845-.237,.6144-.4396,.9486-.2098,.3298-.4798,.6642-.8301,.9216-.3538,.2506-.7733,.4404-1.2403,.5103-.4671,.0656-.967,.0339-1.4776-.0586-1.0216-.2191-2.0777-.7273-3.0464-1.4207-1.9556-1.3732-3.5646-3.4352-4.4255-5.2399-.1167-.2214-.208-.4426-.2973-.6549-.0948-.2102-.1825-.4111-.2482-.61-.1513-.3884-.2499-.7384-.3338-1.0299-.0839-.2912-.1259-.533-.1678-.6934-.0366-.1581-.0566-.2461-.0566-.2461Z"/>
  <path class="cls-1" d="M165.5618,36.9803s-.3376,.1807-.9833,.4787c-.6403,.305-1.5998,.6934-2.8275,1.1474-2.4481,.8877-6.0472,1.9176-10.3925,1.9763-.5417-.0114-1.0944-.0248-1.6581-.0385-.5619-.0407-1.131-.1151-1.7111-.167-.5801-.104-1.1692-.2102-1.7677-.3163-.5709-.1738-1.1547-.3003-1.7366-.5126-.5819-.2328-1.1783-.4314-1.7475-.7455-.5856-.2641-1.1383-.6322-1.702-.9892-1.0945-.777-2.1471-1.703-3.0519-2.8504-1.8169-2.2744-3.0135-5.4455-2.7764-8.7452,.1259-3.2614,1.6308-6.4191,4.0443-7.8601,1.1692-.7746,2.5136-1.1654,3.8654-1.2308,.155-.0023,.3685-.0339,.4743-.0157l.5473,.0294c.3849,.0044,.6859,.079,.9996,.1377,.6348,.113,1.2824,.366,1.8807,.6642,1.1913,.6415,2.2091,1.6803,2.9278,2.961,.3466,.6504,.6239,1.3529,.8064,2.0869,.1606,.7363,.2773,1.493,.2444,2.2383,.011,.1897-.0254,.3704-.0383,.5533l-.0254,.2755-.002,.0339c.002-.0089-.009,.0656,.0037-.0089l-.0146,.0768-.0274,.1536-.1167,.6189c-.0438,.1852-.0949,.3388-.1386,.5105-.1972,.673-.4726,1.3618-.8319,1.9265-.6969,1.1745-1.7129,1.9898-2.7984,2.4461-1.1036,.4292-2.2364,.5376-3.3473,.2597-.9376-.2733-1.9136-.9961-2.2839-2.0575-.1185-.2508-.1714-.5332-.2317-.8064-.0037-.0226-.0201-.0972-.0182-.0745l-.011-.1243-.0219-.2483c-.0127-.1581-.0017-.262-.0054-.3998,.0146-.5533,.1677-1.0774,.3976-1.5246,.4633-.9103,1.3006-1.4432,2.0978-1.486l.1477-.0091c.0147-.0068,.1004,.0067,.146,.0091,.1058,.0112,.228,.0135,.3082,.0406,.1733,.0362,.3612,.1039,.5291,.1964,.3356,.1852,.6129,.4834,.8062,.838,.3904,.7092,.4706,1.6285,.1879,2.2541-.2846,.585-.8391,.926-1.2971,1.0185-.4687,.113-.8938,.0068-1.1856-.1964-.2992-.192-.4506-.472-.5472-.6481-.0822-.1967-.1241-.2982-.1241-.2982,0,0,.0364,.1062,.1021,.3094,.084,.1897,.2208,.4969,.5236,.7364,.2919,.2461,.7389,.4133,1.2587,.3454,.5127-.0588,1.1328-.3185,1.5615-1.075,.3795-.7522,.3466-1.8476-.0821-2.7555-.2151-.4564-.5472-.8651-.9613-1.136-.2079-.1355-.4268-.2373-.6767-.3073-.1296-.0451-.228-.0519-.3394-.0745-.0637-.0068-.0875-.0204-.1842-.0273l-.1842-.0021c-.9851-.0226-2.0705,.5353-2.7564,1.6871-.3448,.567-.5728,1.2761-.6257,2.026-.0072,.1919-.0201,.4155-.0109,.585l.0128,.2462,.0072,.1242c.0073,.1062,.0146,.1107,.0237,.1695,.0602,.3772,.124,.7611,.2663,1.1135,.1059,.3749,.312,.6866,.4853,1.0254,.2225,.2845,.425,.6144,.6969,.8356,.5052,.5218,1.1236,.8267,1.7968,1.0797,1.2094,.3681,2.603,.3116,3.9147-.1492,1.3134-.4878,2.6012-1.4365,3.5244-2.8774,.4779-.7046,.83-1.5087,1.1017-2.401,.062-.2258,.1387-.4629,.1897-.6798l.124-.6121,.0329-.1536,.0146-.0747c.0183-.1016,.0092-.0563,.0147-.088l.0037-.0451,.042-.3569c.0201-.2349,.0637-.4766,.0583-.7137,.0548-.9622-.0693-1.9199-.259-2.8527-.2153-.9283-.5472-1.8114-.965-2.6358-.861-1.6284-2.1325-2.9519-3.5899-3.7402-.7389-.3793-1.4814-.6775-2.2876-.8311-.4031-.0792-.8208-.1626-1.1692-.1626l-.5455-.0362c-.259-.0226-.4086,.0068-.6184,.0091-1.567,.0677-3.1595,.5014-4.586,1.4319-.7242,.4405-1.3736,1.0502-1.9847,1.7053-.5747,.7023-1.1293,1.45-1.5305,2.3195-.8629,1.6963-1.2897,3.6657-1.3828,5.6036l-.0237,.6686-.0054,.167-.002,.0837v.1377l.0165,.3683,.0383,.7363,.0986,.7205c.1312,.9577,.3866,1.8678,.6822,2.7374,.6129,1.7368,1.5085,3.2591,2.5502,4.5195,1.0452,1.267,2.2273,2.281,3.4569,3.0761,.6256,.3683,1.2404,.7364,1.8807,.9961,.6239,.3162,1.2695,.5059,1.8991,.7226,.631,.2056,1.2823,.3209,1.9061,.4767,.6202,.079,1.1839,.1716,1.8225,.2349,.6074,.0248,1.2002,.0654,1.784,.0722,.5819-.0203,1.153-.0383,1.7129-.0563,2.2365-.1401,4.2541-.5941,6.0071-1.118,1.7549-.5241,3.2489-1.1271,4.462-1.6736,1.213-.5421,2.1342-1.0661,2.7581-1.4297,.622-.3659,.9469-.5827,.9469-.5827Z"/>
  <path class="cls-1" d="M165.5618,37.6985s-.4233,.5329-1.3044,1.3979c-.8756,.8697-2.2218,2.0554-4.046,3.309-1.8242,1.2445-4.1573,2.5003-6.9447,3.3925-2.791,.8853-6.0363,1.2782-9.5533,.9124-3.486-.3615-7.1855-1.6759-10.7025-4.0181-1.7622-1.17-3.4843-2.586-5.1771-4.1785-1.6891-1.5967-3.3637-3.3448-5.0839-5.1427-1.7184-1.798-3.4806-3.6591-5.3924-5.4117-1.9099-1.7481-3.9785-3.4083-6.277-4.6346-2.2912-1.2424-4.794-2.044-7.3351-2.2835-.6914-.0475-1.1858-.0971-1.888-.0859-.6658-.0112-1.2933,.0406-1.9373,.1016-1.2805,.1378-2.5648,.4292-3.8144,.9034-2.5064,.9306-4.8504,2.6764-6.6801,5.03-1.837,2.3489-3.143,5.2986-3.7488,8.4493-.31,1.572-.4304,3.2051-.3538,4.8358,.0256,.4064,.053,.813,.104,1.2218,.0401,.341,.0986,.7387,.1588,1.1406,.1277,.7679,.2863,1.5178,.4725,2.2588,.7497,2.9519,2.0121,5.7232,3.7888,7.8892,1.7695,2.1661,4.0351,3.6477,6.3428,4.2416,1.1492,.3116,2.3039,.4451,3.4312,.4496,1.1127,.0156,2.2967-.1311,3.3876-.4947,2.1981-.7001,4.2466-2.3739,5.3722-4.7476,1.1547-2.3468,1.37-5.1225,.9485-7.485-.102-.6144-.2316-1.1385-.4158-1.7572-.1442-.4563-.4031-1.127-.6603-1.5878-.5163-.9893-1.153-1.8114-1.837-2.4958-1.3717-1.3665-2.9697-2.2158-4.5586-2.3739-1.5232-.1107-3.1249,.2394-4.2139,1.4026-.538,.5715-.9339,1.2941-1.1437,2.0509-.2043,.7566-.2846,1.5087-.197,2.2292,.2116,1.4975,1.0416,2.4484,1.8205,2.8978,.8009,.454,1.6016,.3839,2.1344,.0971,.5454-.2868,.85-.7092,1.0324-.9869,.0931-.1423,.1514-.2553,.1935-.3344,.04-.0745,.0602-.1152,.0602-.1152,0,0-.0237,.0362-.0712,.1062-.0456,.0724-.115,.1785-.2188,.3027-.2008,.2506-.5364,.6144-1.0582,.8085-.5143,.1943-1.2221,.1514-1.8807-.3388-.6439-.4608-1.2732-1.3935-1.3389-2.5229-.0548-1.1586,.31-2.5318,1.2094-3.3698,.4379-.4269,.9979-.7092,1.6108-.865,.3138-.0768,.6112-.113,.9431-.1355,.1696,0,.3411-.0023,.5145-.0045,.164,.0203,.3301,.0383,.4961,.0565,1.3298,.2281,2.6871,1.0638,3.8125,2.3309,1.1311,1.2626,2.0139,2.97,2.2164,4.9667,.2701,1.9944-.0128,4.1605-.9632,5.8927-.9394,1.7392-2.5046,2.9723-4.3106,3.4648-.9139,.2552-1.8334,.3388-2.8385,.28-.9906-.0451-1.9792-.2123-2.9369-.5173-1.919-.6097-3.7086-1.8204-5.1151-3.6205-1.4099-1.7957-2.4316-4.1309-3.0262-6.6629-.1459-.6369-.2699-1.2829-.3648-1.9333-.042-.3073-.0857-.6212-.1223-.9961-.0309-.3116-.0547-.6278-.0711-.944-.053-1.2648,.0493-2.5703,.3065-3.8373,.5034-2.5456,1.5834-4.9509,3.0902-6.8458,1.4994-1.9064,3.4166-3.2955,5.5089-4.095,1.0454-.4064,2.1362-.6662,3.2436-.795,.5527-.0586,1.1236-.1083,1.6581-.1015,.4962-.0227,1.1966,.0292,1.7002,.0586,2.2364,.1943,4.4164,.8718,6.4667,1.9604,4.1209,2.1682,7.6889,5.7888,11.1787,9.2942,3.4769,3.5393,7.0523,6.9158,10.8886,9.2466,3.8217,2.374,7.8532,3.4919,11.5581,3.6636,3.683,.201,7.0815-.4991,9.9182-1.6082,2.8494-1.1044,5.1514-2.6357,6.9337-4.0473,1.7878-1.4206,3.0446-2.7827,3.8728-3.7358,.8228-.9599,1.2077-1.5334,1.2077-1.5334Z"/>
  <path class="cls-1" d="M51.7395,30.0915s-.2937,.0588-.8465,.1672c-.549,.1151-1.3589,.3138-2.3659,.6775-1.0106,.3524-2.2146,.9057-3.5389,1.7007-1.3243,.7973-2.7417,1.8882-4.2084,3.1846-1.4594,1.3078-2.9662,2.8165-4.5915,4.2687-1.618,1.4613-3.4166,2.7782-5.416,3.6839-1.0014,.4472-2.045,.8153-3.1121,1.0163-1.0471,.192-2.1379,.2055-3.1813-.0338-1.0435-.235-2.056-.7093-2.9352-1.4456-.881-.734-1.6325-1.7165-2.1726-2.8525-.538-1.1339-.8736-2.4281-.9102-3.693-.0511-1.3618,.1004-2.7056,.4415-3.9548,.3447-1.2466,.8975-2.3737,1.6344-3.2569,.7352-.8877,1.6455-1.5201,2.6196-1.9244,.4889-.201,.9869-.3454,1.5068-.4381,.4651-.0836,.9777-.0948,1.4466-.0294,.9468,.1333,1.8169,.6234,2.4371,1.4094,.6239,.7768,.9777,1.8317,1.0581,2.8978,.0364,.533,.0201,1.0774-.064,1.59-.0766,.4629-.2462,.9554-.4487,1.3868-.4123,.8786-.9978,1.5946-1.6436,2.0666-.3211,.2349-.6605,.4155-1.0033,.5082-.3613,.0948-.7023,.1331-1.0288,.1039-.6586-.0497-1.2222-.4336-1.5324-1.0119-.3119-.5759-.4195-1.2536-.2663-1.8001,.1441-.5579,.4725-.9667,.8026-1.1859,.3374-.219,.6841-.2303,.9432-.149,.5271,.1875,.7168,.533,.7241,.5105-.0127,.0226-.1605-.3456-.6949-.6212-.2682-.1242-.6531-.167-1.0562,.0273-.4013,.1919-.8117,.6142-1.0397,1.2692-.1131,.3162-.1698,.7228-.1332,1.1067,.0438,.3998,.1496,.7815,.3338,1.1519,.354,.7476,1.0781,1.2964,1.8643,1.3823,.3959,.0542,.8045,.0248,1.1985-.0586,.4141-.0792,.8209-.2621,1.2095-.5059,.7771-.4993,1.4831-1.2649,2.0157-2.2542,.2681-.5037,.487-1.0479,.622-1.7029,.1205-.6032,.1696-1.2378,.1496-1.8928-.0438-1.2987-.4268-2.6787-1.204-3.7516-.7661-1.0864-1.9063-1.7616-3.0773-1.9809-.5948-.1062-1.1729-.1196-1.7933-.0383-.5636,.0747-1.1529,.2123-1.7238,.4225-1.1493,.4133-2.2895,1.1336-3.2142,2.2133-.9341,1.0661-1.6382,2.4415-2.076,3.921-.4359,1.4793-.6348,3.0717-.6075,4.6367,.0366,1.6714,.4525,3.257,1.1055,4.6641,.6568,1.4026,1.5725,2.6108,2.6488,3.5234,1.0781,.9148,2.3131,1.5133,3.5662,1.7934,1.2588,.2756,2.5193,.2462,3.7341,.0114,1.1966-.235,2.3386-.6551,3.4241-1.1565,2.1852-1.0119,4.0716-2.5681,5.7097-4.1334,1.6399-1.581,3.0555-3.1981,4.4309-4.5624,1.3554-1.3958,2.6633-2.5545,3.8855-3.4602,1.2149-.9237,2.3477-1.5787,3.2981-2.0733,.954-.4879,1.7256-.8087,2.2564-1.0208,.5345-.1988,.8191-.3073,.8191-.3073Z"/>
  <path class="cls-1" d="M51.7395,30.0915s-.2937,.0588-.8465,.1672c-.549,.1151-1.3589,.3138-2.3659,.6775-1.0106,.3524-2.2146,.9057-3.5389,1.7007-1.3243,.7973-2.7417,1.8882-4.2084,3.1846-1.4594,1.3078-2.9662,2.8165-4.5915,4.2687-1.618,1.4613-3.4166,2.7782-5.416,3.6839-1.0014,.4472-2.045,.8153-3.1121,1.0163-1.0471,.192-2.1379,.2055-3.1813-.0338-1.0435-.235-2.056-.7093-2.9352-1.4456-.881-.734-1.6325-1.7165-2.1726-2.8525-.538-1.1339-.8736-2.4281-.9102-3.693-.0511-1.3618,.1004-2.7056,.4415-3.9548,.3447-1.2466,.8975-2.3737,1.6344-3.2569,.7352-.8877,1.6455-1.5201,2.6196-1.9244,.4889-.201,.9869-.3454,1.5068-.4381,.4651-.0836,.9777-.0948,1.4466-.0294,.9468,.1333,1.8169,.6234,2.4371,1.4094,.6239,.7768,.9777,1.8317,1.0581,2.8978,.0364,.533,.0201,1.0774-.064,1.59-.0766,.4629-.2462,.9554-.4487,1.3868-.4123,.8786-.9978,1.5946-1.6436,2.0666-.3211,.2349-.6605,.4155-1.0033,.5082-.3613,.0948-.7023,.1331-1.0288,.1039-.6586-.0497-1.2222-.4336-1.5324-1.0119-.3119-.5759-.4195-1.2536-.2663-1.8001,.1441-.5579,.4725-.9667,.8026-1.1859,.3374-.219,.6841-.2303,.9432-.149,.5271,.1875,.7168,.533,.7241,.5105-.0127,.0226-.1605-.3456-.6949-.6212-.2682-.1242-.6531-.167-1.0562,.0273-.4013,.1919-.8117,.6142-1.0397,1.2692-.1131,.3162-.1698,.7228-.1332,1.1067,.0438,.3998,.1496,.7815,.3338,1.1519,.354,.7476,1.0781,1.2964,1.8643,1.3823,.3959,.0542,.8045,.0248,1.1985-.0586,.4141-.0792,.8209-.2621,1.2095-.5059,.7771-.4993,1.4831-1.2649,2.0157-2.2542,.2681-.5037,.487-1.0479,.622-1.7029,.1205-.6032,.1696-1.2378,.1496-1.8928-.0438-1.2987-.4268-2.6787-1.204-3.7516-.7661-1.0864-1.9063-1.7616-3.0773-1.9809-.5948-.1062-1.1729-.1196-1.7933-.0383-.5636,.0747-1.1529,.2123-1.7238,.4225-1.1493,.4133-2.2895,1.1336-3.2142,2.2133-.9341,1.0661-1.6382,2.4415-2.076,3.921-.4359,1.4793-.6348,3.0717-.6075,4.6367,.0366,1.6714,.4525,3.257,1.1055,4.6641,.6568,1.4026,1.5725,2.6108,2.6488,3.5234,1.0781,.9148,2.3131,1.5133,3.5662,1.7934,1.2588,.2756,2.5193,.2462,3.7341,.0114,1.1966-.235,2.3386-.6551,3.4241-1.1565,2.1852-1.0119,4.0716-2.5681,5.7097-4.1334,1.6399-1.581,3.0555-3.1981,4.4309-4.5624,1.3554-1.3958,2.6633-2.5545,3.8855-3.4602,1.2149-.9237,2.3477-1.5787,3.2981-2.0733,.954-.4879,1.7256-.8087,2.2564-1.0208,.5345-.1988,.8191-.3073,.8191-.3073Z"/>
  <g>
    <path class="cls-1" d="M161.9407,0s1.9903,6.5997-2.9515,7.8803c-2.4025-5.4997,2.9515-7.8803,2.9515-7.8803Z"/>
    <path class="cls-1" d="M157.4386,6.577c-.4287,1.1474-.0274,2.5071,.8993,3.0402,.9267,.5308,2.0267,.0338,2.4554-1.1135,.4304-1.1474,.0256-2.5071-.8975-3.04-.9285-.5332-2.0267-.0339-2.4573,1.1133Z"/>
    <path class="cls-1" d="M158.3379,9.6172s-1.8772-.0588-1.9392-2.4032c-.0418-1.5607,.5784-3.0648-1.1801-4.4358,0,0,3.0281,.4201,3.4714,3.8305,.0966,.7499,.0583,1.8725-.3521,3.0085Z"/>
    <path class="cls-1" d="M158.3379,9.6149s1.2496,1.7415,2.7344,.2823c.9887-.9666,1.516-2.5251,3.4971-1.7481,0,0-2.2164-2.5928-4.6025-.8062-.5254,.3907-1.1948,1.1495-1.629,2.2721Z"/>
  </g>
  <g>
    <path class="cls-1" d="M77.4205,35.1846c2.7982,3.5753,5.5729,7.8848,7.3406,12.5353,0,0-3.3402-5.2446-8.1998-10.6967,.0199-1.0547,.456-1.5811,.8592-1.8385Z"/>
    <g>
      <path class="cls-1" d="M3.205,31.1417s-.7533-3.8508,2.4518-3.8508c4.6243,0,4.7137,6.3037,9.0134,8.6323,.4487,.244,.9923,.5376,1.6272,.8289,0,.0248-.0018,.0519-.0018,.0768,.0237,1.136,.2134,2.2609,.5528,3.3562-7.8369-2.6108-10.5512-9.2241-16.8483-6.2404,0,0,1.0379-2.4506,3.205-2.803Z"/>
      <path class="cls-1" d="M17.9482,37.4161c.1076,1.118,.4141,2.2698,.903,3.3156-.2061-.0451-.4105-.0881-.6112-.1377-.4432-1.0955-.706-2.218-.7788-3.3541,.1569,.0609,.3211,.1196,.487,.1761Z"/>
      <path class="cls-1" d="M51.5242,26.611c-10.7316,4.6098-17.5232,14.8864-28.8951,14.5725-.7954-.0248-1.5488-.088-2.2657-.1829-.1842-.2868-.3557-.585-.5052-.8966-.352-.7408-.5947-1.5449-.726-2.3399,1.4448,.3636,3.143,.5624,5.1041,.3727,.3338,.1966,.6968,.3275,1.0763,.3681,.3976,.0542,.8646,.0316,1.3407-.0654,.4379-.0859,.903-.2779,1.3736-.576,.3904-.2483,.7516-.5624,1.089-.9169,3.1759-1.2151,6.8225-3.4286,10.9542-7.205,0,0-5.0912,.2328-7.543-5.9536,0,0,2.4116,1.9491,5.9743,1.2308,.051,.0745,.104,.1469,.1696,.2258,.3647,.4676,.923,.9916,1.5378,1.3529,.1514,.1016,.3137,.1649,.4688,.244,.1532,.079,.3156,.1219,.4633,.1807,.1514,.0566,.3047,.0792,.4415,.1175,.1405,.0406,.2773,.0453,.4013,.061,.2462,.0429,.4542,.0316,.5965,.0316h.2263s-.0822-.0159-.2225-.0453c-.1424-.0271-.3449-.0609-.5766-.1445-.1185-.043-.2462-.0724-.3758-.1401-.1276-.0633-.2681-.1128-.4013-.1943-.1331-.0859-.2771-.1536-.4086-.2552-.1349-.1016-.2754-.1897-.3995-.3094-.467-.3998-.8537-.8966-1.1182-1.3326,.7225-.2191,1.4813-.5399,2.2748-1.0231,.5181-.3141,1.0325-.6415,1.5488-.9667,.0383,.0224,.0693,.0451,.1095,.0722,.2061,.1469,.4615,.2824,.7278,.4381,.1331,.0813,.2809,.138,.425,.2079,.1441,.0656,.29,.1399,.4379,.201,.1532,.0519,.3027,.1039,.4541,.1558,.1497,.0453,.2919,.1084,.4397,.1266,.1441,.027,.2845,.0518,.4177,.0768,.135,.018,.2554,.0609,.3722,.0519,.4633-.0091,.7716-.0159,.7716-.0159,0,0-.301-.0565-.7516-.149-.1131-.0114-.228-.0813-.352-.1243-.1223-.0497-.2518-.1062-.3867-.1604-.1332-.0429-.2627-.1377-.3977-.2123-.1332-.0768-.2663-.1536-.4013-.2326-.1332-.0857-.259-.1873-.3867-.28-.124-.0972-.2535-.174-.3648-.2779-.1387-.1196-.2664-.2303-.3904-.3365,1.1858-.7476,2.3842-1.4636,3.6302-2.0192,0,.0023,.0017,.0023,.0017,.0044,.0857,.0949,.1917,.1808,.2956,.2802,.1076,.0971,.2153,.2056,.3429,.2891,.1241,.086,.2499,.174,.3794,.2665,.126,.0993,.2737,.1492,.4105,.2237,.1367,.0678,.2756,.1378,.4123,.2055,.1422,.043,.2809,.0859,.416,.1242,.1331,.0407,.2609,.0792,.3849,.1152,.1222,.0407,.2425,.0362,.352,.0542,.4305,.0407,.7188,.0722,.7188,.0722,0,0-.2773-.0925-.6932-.2349-.1004-.0429-.2153-.0588-.3266-.1242-.1113-.0631-.228-.1287-.3485-.1943-.1185-.0677-.2427-.1355-.3684-.2055-.115-.0904-.2335-.1852-.3503-.2779-.1131-.0993-.239-.167-.3374-.2868-.1041-.1062-.2044-.2123-.303-.3162-.0966-.088-.1715-.201-.2461-.3027,2.3567-.8988,4.9015-1.1224,7.8676,.2237l-.4469,.1761c-.1095,.0453-2.7508,1.1114-3.7505,4.0949-.2208,.6574-.3429,1.3531-.3685,2.0802Z"/>
    </g>
  </g>
  <path class="cls-1" d="M183.665,50.5184c-.5691,3.8531-3.8672,6.3037-4.9983,9.3416-1.1328-3.0379-4.4327-5.4885-4.9965-9.3416,0,0-1.6053,4.6729,1.1293,10.2765,2.5539,5.2378,3.8672,11.2051,3.8672,11.2051,0,0,1.3135-5.9674,3.8692-11.2051,2.7326-5.6036,1.1291-10.2765,1.1291-10.2765Z"/>
  <path class="cls-1" d="M143.4999,35.5776s10.7555,5.1361,16.8756-.5827c7.7437-7.2388,3.2052-22.5297,3.2052-22.5297,1.5105,12.025-4.0535,18.6765-4.0535,18.6765,.9432-12.1399-5.2791-13.5176-5.2791-13.5176,2.2621,5.7391,1.7895,9.8993-1.2277,14.3354-3.0153,4.4335-9.5204,3.6182-9.5204,3.6182Zm5.3267,.6189s.217-.088,.6002-.244c.1897-.0722,.4178-.1581,.6841-.2574,.2627-.0925,.5619-.1875,.8719-.3524,.3137-.1513,.6513-.3139,1.0088-.472,.354-.1717,.6951-.4337,1.0708-.6392,.3849-.1897,.7023-.5444,1.069-.8087l.2701-.2123,.239-.262,.4834-.524c.166-.1649,.2846-.3884,.4305-.5804,.1314-.2032,.2973-.3772,.3959-.6075,.1093-.2214,.2225-.4337,.3392-.646,.115-.21,.1826-.454,.2756-.6708,.1897-.4404,.2828-.9125,.414-1.3484,.0749-.4495,.1806-.8741,.2154-1.2805,.104-.8109,.1112-1.5066,.1058-1.9945-.0018-.4923-.0329-.7747-.0329-.7747,0,0,.0237,.0656,.0583,.1899,.0383,.1264,.0931,.3116,.1405,.5556,.0566,.2394,.1003,.5397,.1459,.8853,.0311,.3456,.0784,.7432,.0657,1.1791,.0182,.4381-.0346,.908-.0821,1.4117-.0966,.4834-.1514,1.0276-.3448,1.5336-.0894,.2529-.1533,.5285-.2682,.7791-.1148,.2485-.2335,.5038-.3593,.7499-.1095,.2665-.2845,.4699-.4322,.7048-.1588,.2212-.2938,.4743-.4763,.6663l-.549,.5736-.2736,.2823-.301,.2303c-.4013,.2938-.7845,.6234-1.204,.7974-.4068,.201-.7954,.4201-1.1821,.5511-.3886,.1198-.7571,.2214-1.0945,.3116-.3356,.1152-.653,.1401-.9339,.1672-.2791,.0271-.5236,.0497-.7223,.0677-.3996,.0294-.6276,.0385-.6276,.0385Z"/>
  <path class="cls-1" d="M124.6415,5.2265s4.5258-2.6832,6.9775,2.6268c2.4517,5.3121-.4706,9.748-.8482,15.4669-.3776,5.721,3.9603,11.092,3.9603,11.092-1.131-2.568-3.6519-7.5663-2.3186-12.9034,1.2113-4.8334,6.3719-11.1462,14.3855-8.1106,8.0138,3.0355,11.881-4.5512,11.881-4.5512,0,0-4.2046,5.3642-11.0308,2.6832-7.7328-3.0356-11.881,1.9853-11.881,1.9853,0,0,2.5465-8.289-2.9224-11.0897-5.4689-2.8029-8.2033,2.8007-8.2033,2.8007Zm6.4376-1.8613s.155,.043,.4322,.1401c.1387,.0519,.3065,.1107,.4999,.192s.3867,.2349,.6092,.3839c.1095,.0792,.2281,.156,.3429,.2462,.1058,.1107,.2134,.2237,.3247,.3433,.1113,.1221,.2263,.2417,.3431,.3727,.1038,.1401,.1952,.3027,.2935,.4585,.2134,.3094,.3832,.6663,.5236,1.0525,.0857,.1854,.1496,.3795,.1989,.5851l.1623,.6075c.0602,.4154,.1369,.8311,.1569,1.2399,.0274,.4133,.0328,.8176,.0073,1.206-.0037,.3908-.0603,.7588-.1058,1.1067-.0438,.3503-.1186,.6708-.1825,.9645-.2773,1.1791-.6384,1.8679-.6384,1.8679,0,0,.0911-.8064,.1623-1.9718,.0201-.5871,.053-1.2648,.0201-1.9762,.002-.3592-.0492-.7207-.0747-1.0865-.0311-.368-.1076-.7295-.1679-1.093-.102-.3434-.1404-.7205-.2845-1.0367-.062-.1604-.1205-.3253-.1751-.4879-.0547-.1649-.1459-.3003-.2153-.4472-.0729-.1492-.1459-.2936-.217-.4358-.0877-.1266-.1715-.2487-.2555-.3728-.0839-.1219-.1641-.2438-.2425-.3613-.0876-.1062-.1806-.1988-.2664-.2936-.177-.1807-.3247-.3863-.4798-.5218-.1568-.1354-.2972-.2552-.4103-.3522-.2299-.2032-.3612-.3298-.3612-.3298Z"/>
  <path class="cls-1" d="M84.4673,37.6737c0-5.2537,3.3091-14.2362,12.658-17.5744,8.7197-3.1168,17.2405-.7454,25.6299,9.5245,6.5489,8.0205,13.6724,11.44,13.6724,11.44-6.3154-4.0791-8.041-13.825-13.8803-21.8092-.0657,.1243-.1349,.253-.1824,.3952-.0876,.2191-.177,.4449-.2645,.6708-.104,.2281-.1624,.4766-.2335,.7251-.0712,.2506-.1404,.5014-.2098,.7475-.0675,.2485-.0894,.5059-.135,.7499-.0401,.2508-.0802,.4902-.1168,.7205-.0492,.2303-.04,.4517-.0528,.6572-.0346,.8312-.0566,1.3845-.0566,1.3845,0,0-.1185-.5421-.2972-1.3574-.0384-.2055-.1076-.4313-.1186-.6754-.0237-.2438-.0493-.5035-.073-.7723-.0201-.2688-.0638-.5533-.0638-.8379,.0038-.2892,.0073-.5827,.011-.8763,.0073-.2959,.0037-.5986,.0456-.8856,.0346-.2935,.0657-.5803,.0985-.8604,.0256-.2845,.0985-.5442,.1442-.8018,.0528-.2417,.0894-.4787,.1531-.6889-2.521-2.8277-6.1346-5.2196-10.1918-6.6335-.0966,.2845-.1969,.5941-.2809,.9372-.124,.4676-.2206,.9804-.2863,1.5043-.0182,.2597-.062,.5287-.0602,.7884-.0073,.2618-.0201,.524,.0035,.7723,.0092,.253,.0237,.4993,.064,.7273,.0364,.2305,.0583,.4563,.115,.6483,.0492,.201,.0948,.3839,.1349,.5465,.0565,.1581,.1058,.2914,.1459,.4043,.0839,.2281,.1332,.3568,.1332,.3568,0,0-.0785-.1062-.2134-.2936-.0693-.0948-.1514-.2076-.248-.341-.0822-.1446-.1734-.3116-.2756-.49-.1093-.1829-.1897-.3977-.2882-.6234-.1058-.2259-.1862-.4743-.2664-.7408-.093-.2642-.1532-.5467-.2189-.8358-.0747-.2891-.104-.5894-.1568-.8921-.0767-.603-.1167-1.2219-.115-1.8001-.0037-.4358,.0201-.838,.0475-1.2128-5.0694-1.3643-10.6551-1.1497-15.595,1.6194,.1897,.7249,.487,1.5741,.9085,2.3646,.1222,.253,.2645,.4856,.4103,.7139,.1369,.2393,.3011,.4426,.4544,.6527,.1477,.2169,.3192,.3862,.4743,.567,.1531,.1829,.3137,.3319,.4633,.4675,.2955,.2868,.5673,.4856,.7606,.6212,.1935,.1422,.3047,.2235,.3047,.2235,0,0-.1277-.0292-.3448-.0813-.2244-.0474-.5454-.1219-.9194-.2755-.1897-.0656-.3959-.1469-.6038-.262-.2098-.1086-.4451-.2123-.6622-.366-.2226-.1467-.4633-.2868-.6859-.4743-.228-.1761-.4597-.3636-.6749-.5759-.7425-.6843-1.3828-1.5246-1.8643-2.2948-.1643,.1198-.3302,.2328-.4926,.3592-4.0569,3.1824-6.0581,7.1711-6.9684,10.9813,.073,0,.1442-.0045,.2189-.0067,.1842-.0091,.3722-.0114,.5509-.0588,.1825-.0407,.3631-.0792,.5363-.1152,.1751-.0407,.3503-.0677,.5109-.1175,.1568-.0609,.3082-.1174,.4451-.1695,.5618-.2144,.9358-.3566,.9358-.3566,0,0-.312,.3003-.779,.7497-.1203,.1128-.2499,.2394-.3866,.3683-.1405,.1242-.3047,.2279-.467,.3522-.1643,.1198-.3357,.2461-.5109,.3704-.1732,.1399-.3648,.2326-.5581,.3342-.1972,.1016-.3924,.201-.5856,.3027-.0839,.0406-.1716,.0745-.259,.1016-.965,6.0983,.6129,11.3067,.6129,11.3067Zm31.7847-19.9346c.0146-.2212,.0346-.3998,.0657-.5262,.0254-.1242,.0511-.192,.0511-.192,0,0,.093,.2777,.2043,.6574,.0692,.1896,.1186,.411,.2006,.639,.073,.2328,.135,.4834,.2244,.7228,.0638,.2529,.1514,.4925,.2243,.7273,.0693,.2349,.1277,.4629,.1917,.6504,.1167,.384,.1586,.6866,.1586,.6866,0,0-.1969-.1648-.436-.4787-.1312-.1514-.2462-.3548-.3612-.5827-.1222-.2237-.2225-.4835-.3047-.7546-.0857-.2664-.1458-.5442-.1805-.813-.0438-.2642-.0383-.524-.0383-.7363Zm-1.8279-1.1021c-.0182-.1922,.0127-.3818,.0346-.558,.0201-.1784,.0366-.3431,.0749-.4923,.0364-.149,.0766-.2845,.1131-.3996,.0292-.1175,.0838-.2169,.115-.2938,.0674-.1604,.1222-.2371,.1222-.2371,0,0-.0128,.1062-.0165,.2823-.0164,.1695-.0054,.4157-.0146,.7025-.0018,.1401,.0237,.2982,.0237,.4608,.0073,.1581,.0146,.3275,.0438,.5014,.0219,.174,.0511,.3501,.0674,.5306,.0165,.1808,.0785,.3569,.1168,.5332,.0401,.1807,.0638,.3659,.1131,.5374,.0638,.1673,.1113,.3389,.1661,.5038,.0547,.1649,.0983,.3274,.1422,.4855,.053,.1469,.1203,.2823,.1678,.4134,.2134,.5171,.3229,.9169,.3229,.9169,0,0-.2572-.2462-.5947-.6978-.084-.113-.1843-.2282-.2645-.3728-.0729-.1513-.1532-.3116-.2244-.4809-.0729-.1717-.1568-.3456-.2261-.5308-.0602-.1875-.1004-.393-.1496-.5918-.0346-.2055-.0949-.4021-.1076-.6075-.0164-.2055-.0183-.4089-.0256-.6053Zm-10.5894-.978c-.1442-.1649-.2572-.3569-.3813-.5399-.1185-.1808-.2134-.384-.3082-.5715-.1805-.3862-.3137-.7656-.3976-1.1044-.1751-.6708-.1678-1.1474-.1678-1.1474,0,0,.1769,.4134,.4633,.9802,.1422,.2845,.3192,.603,.5163,.9328,.2042,.3185,.4195,.6618,.673,.9531,.1186,.1581,.2463,.3048,.3795,.4314,.1277,.1423,.2626,.2642,.3958,.3793,.1295,.1266,.2682,.2214,.3959,.3209,.1276,.0993,.2535,.1829,.3757,.2529,.1205,.07,.2281,.1536,.3302,.2055,.1021,.0519,.1915,.0993,.2663,.1355,.1514,.0859,.2353,.1333,.2353,.1333,0,0-.093,.0068-.259,.0045-.1641,0-.4048-.0091-.6822-.0993-.1422-.0316-.2937-.079-.4469-.1626-.1532-.0724-.3228-.1423-.4761-.2642-.3229-.2079-.6384-.5015-.912-.8401Zm-3.7998-3.3632s.0292,.1084,.0985,.2733c.0274,.0859,.073,.1829,.1278,.2936,.0583,.1083,.104,.2371,.1805,.3636,.0767,.1243,.1569,.2574,.2353,.4021,.0767,.149,.1989,.2711,.2919,.4223,.1075,.1401,.1952,.3004,.3246,.4336,.1186,.1355,.2408,.2756,.3612,.4157,.1131,.1514,.2354,.2891,.374,.4043,.1332,.1196,.2554,.2529,.3794,.3772,.126,.1175,.2316,.2597,.354,.359s.2353,.1987,.3393,.2936c.416,.3749,.6822,.6866,.6822,.6866,0,0-.3448-.0948-.8427-.3344-.126-.0586-.2609-.1263-.4014-.2032-.1422-.07-.2736-.1875-.4158-.2957-.1387-.1152-.29-.2237-.4342-.3524-.1496-.1175-.2864-.2597-.416-.4178-.1277-.1581-.2554-.3185-.3812-.4744-.135-.1422-.2134-.3524-.3174-.5194-.0931-.1784-.1952-.3389-.2554-.5194-.0658-.1785-.1222-.3503-.1696-.5059-.053-.1536-.0657-.3163-.0912-.4472-.0274-.131-.0346-.253-.0346-.3524-.0092-.1988,.0109-.3027,.0109-.3027Zm-11.1002,7.2636s.0692,.0091,.1915,.0226c.1167,.0136,.2846,.0362,.4852,.0612,.197,.036,.4324,.0518,.675,.0971,.124,.018,.2517,.0339,.3812,.0474,.1277,.0157,.2572,.0497,.3886,.0497,.2609,.0203,.5235,.0722,.768,.0768,.2445,.0068,.478,.0497,.6749,.0475,.3959,.0021,.6768,.036,.6768,.036,0,0-.2517,.1264-.6548,.2642-.1989,.0701-.4397,.0857-.6969,.1151-.259,.043-.5328-.0067-.8082-.0156-.5472-.0701-1.0817-.2373-1.4629-.427-.3831-.1851-.6184-.3749-.6184-.3749Z"/>
  <path class="cls-1" d="M105.6936,29.0411c1.8844,1.8679,3.8637,4.9035,7.6342,5.371,0,0-2.7344,.9328-4.8085-.7025,0,0,2.9369,8.5376,10.3705,9.7076,0,0-3.1102,1.7707-5.6569,0,0,0,4.4329,8.0361,11.881,7.6882,0,0-5.3759,9.1023,5.3741,10.1548,0,0-2.096-2.2992-1.8862-4.4359,.2826-2.8796,3.01-4.6098,6.1293-3.9683,6.9283,1.4229,12.4447,1.4003,20.1755-4.4361,0,0-16.0273,5.4863-26.2099-1.8678-10.1827-7.3563-13.1999-22.9994-28.6618-19.8465,0,0,3.7742,.4676,5.6586,2.3354Zm13.2838,17.861c.1113,.0091,.2316,.0182,.3557,.0362,.124,.0226,.2554,.0226,.3922,.0226,.1349,.0091,.2754,.0068,.4178,.025,.1404-.0091,.2845-.0159,.4304-.025,.1442-.0044,.2883,.0136,.4305-.0089,.1424-.0271,.2828-.0316,.4213-.0498,.135-.0156,.2682-.0201,.3977-.0247,.1259-.0203,.2445-.0407,.3558-.0588,.4432-.0677,.7678-.0588,.7678-.0588,0,0-.2608,.2146-.6876,.4495-.1076,.0588-.2226,.1287-.3503,.1785-.1295,.0451-.2664,.088-.4086,.1242-.1441,.036-.2918,.0834-.4451,.1128-.1514,.0316-.3102,.0248-.4671,.0362-.1586,0-.3156,0-.4706-.0023-.155-.018-.3064-.0565-.4523-.0859-.2938-.0429-.5527-.1896-.7735-.2823-.2153-.1333-.3867-.2462-.4962-.3568-.1113-.1018-.1641-.174-.1641-.174,0,0,.0784,.0248,.2116,.0453,.1277,.0383,.3192,.0519,.5345,.0969Zm-5.0056-8.8762c.2736,.1152,.5637,.2326,.8629,.323,.1477,.0542,.29,.1264,.4377,.1648,.1497,.0362,.2938,.0927,.4324,.138,.1405,.045,.2754,.0993,.4032,.149,.1314,.0406,.2534,.0768,.3684,.1107,.4561,.1445,.7643,.3026,.7643,.3026,0,0-.3191,.0768-.8044,.0972-.2444,.0226-.5271,.0021-.8281-.0565-.301-.0407-.6203-.113-.9321-.235-.1552-.0588-.3102-.1219-.4616-.1805-.1496-.0747-.29-.1626-.4287-.2417-.2809-.1492-.5181-.3615-.7206-.5285-.1934-.1897-.3465-.3547-.4414-.4925-.0986-.1264-.1441-.2123-.1441-.2123,0,0,.3064,.149,.7406,.3524,.2281,.0813,.4725,.2144,.7516,.3094Z"/>
  <path class="cls-1" d="M44.6909,44.1016c1.4137,10.8548,13.105,9.3372,15.1791,5.6013,0,0-2.8238,2.5545-6.5872,.847-3.4057-1.5493-4.3069-4.7318-3.9767-8.3183,.5582-6.0756,5.6623-6.4213,5.6623-6.4213,0,0-1.6036,5.7211,3.2052,8.4066,0,0-.8483-6.0711,3.5826-6.3038,4.4327-.2326,8.9313,3.1509,8.9313,3.1509,0,0-6.0089,1.2851-3.1814,8.874,0,0,.7551-6.1884,7.0724-3.0377,6.3172,3.153,11.3793,14.3602,23.8532,11.5572,0,0-8.4296-.6595-14.8926-7.9389-5.1352-5.7799-7.5468-10.2721-7.5468-13.423s3.0173-3.6161,4.5258-1.9853c0,0-2.3568-3.2659-5.0914-2.9183-2.2073,.2824-3.2999,1.8681-3.0172,3.9707,0,0-3.7487-4.2032-8.0501-5.0209-4.3015-.8176-9.6737-5.0186-8.5427-10.0373,0,0-5.9396,2.3355-2.8293,9.8069,0,0-9.712,2.3331-8.2964,13.1902Zm29.404-8.0791c.0147-.1445,.0147-.3116,.0511-.4743,.0366-.1625,.0693-.3409,.124-.5194,.0712-.1672,.1295-.3547,.2209-.5217,.1057-.1536,.1877-.341,.3156-.4744,.1203-.1445,.2499-.2756,.3886-.3793,.1294-.1266,.2845-.1875,.4212-.2733,.2866-.1289,.5638-.2056,.8027-.2146,.4761-.036,.7771,.1107,.7771,.1107,0,0-.3065,.0904-.7132,.2823-.1022,.0475-.208,.1039-.3193,.1672-.113,.0519-.2189,.1445-.3356,.21-.2134,.1738-.4452,.3478-.6239,.5941-.1076,.1016-.1751,.2485-.2645,.3659-.0747,.1378-.1496,.2711-.2206,.4042-.0565,.1423-.1131,.2802-.1733,.4111-.053,.1355-.0857,.2756-.1314,.3977-.0931,.2483-.1314,.472-.1825,.6277-.0455,.156-.0766,.2485-.0766,.2485,0,0-.0182-.0948-.0346-.2597-.0128-.1649-.0566-.411-.0257-.7025Zm-2.9114,7.4422c.4907,.1018,.779,.3116,.779,.3116,0,0-.3283,.0226-.788,.0881-.2318,.043-.4944,.0859-.7644,.1695-.1386,.0294-.2699,.0993-.4103,.1422-.1315,.0656-.2756,.1062-.3996,.1966-.1331,.0722-.2609,.149-.3776,.2485-.1222,.0881-.2353,.1875-.3411,.2936-.1131,.0948-.1989,.219-.2937,.3251-.0967,.104-.1715,.2214-.2463,.3298-.0675,.1128-.1514,.2032-.1989,.3004-.0565,.0971-.104,.1829-.1422,.2529-.0857,.1401-.1387,.2214-.1387,.2214,0,0,.0073-.0993,.0329-.2756,.0127-.0859,.0291-.1941,.0528-.3162,.0182-.1264,.0712-.253,.1186-.393,.0493-.1469,.1021-.305,.1915-.4473,.0857-.1445,.1624-.3206,.2864-.4493,.2189-.2959,.5071-.5512,.8208-.7251,.1551-.0993,.3247-.1446,.4835-.2123,.1623-.0498,.3266-.0859,.4834-.1018,.3138-.0406,.6075-.0089,.8519,.0407Zm-14.9929-3.869c0-.2258,0-.4608,.0219-.6934,.0437-.2281,.0693-.4629,.1459-.6752,.0565-.2193,.1532-.4134,.2427-.5986,.093-.1852,.2024-.3433,.31-.4879,.1076-.1401,.2189-.262,.3302-.3613,.4305-.4134,.7917-.4991,.7917-.4991,0,0-.0675,.0745-.1698,.21-.1038,.1333-.2462,.3298-.3958,.5736-.1551,.2417-.3028,.5421-.4324,.8673-.0637,.1649-.1185,.3389-.1623,.5196-.0583,.1738-.0693,.3659-.1003,.5511-.022,.1897-.0292,.3818-.0346,.5692,.0199,.1897,.0054,.3818,.0291,.5623,.0329,.1808,.051,.3615,.0712,.5353,.04,.1649,.0729,.3275,.102,.479,.0494,.3094,.1442,.5442,.1789,.7317,.0455,.1807,.0637,.2891,.0637,.2891,0,0-.0601-.0768-.1623-.2214-.0894-.1513-.2609-.3433-.3776-.6413-.0675-.1446-.1387-.305-.2062-.4766-.053-.1808-.1095-.3728-.1586-.5783-.0421-.2032-.0657-.4314-.0876-.6549Zm-2.366-13.6444c.0146-.2552,.0201-.5012,.062-.7317,.0274-.2281,.0766-.4381,.1277-.6278,.1989-.7679,.4835-1.1791,.4835-1.1791,0,0-.1113,.5128-.166,1.2604-.0147,.1852-.0237,.3884-.0257,.6007-.0146,.2123,.0165,.4314,.0147,.6574,.0311,.2212,.042,.4561,.0931,.6821l.0657,.341,.1021,.3342c.0473,.2305,.1641,.4248,.2389,.6371,.1059,.1964,.208,.3907,.3083,.5782,.1205,.1738,.2372,.341,.3466,.5014,.1148,.1558,.2445,.2802,.352,.4133,.2117,.2733,.4306,.4426,.5692,.5941,.1404,.1513,.2226,.2349,.2226,.2349,0,0-.1003-.0362-.2774-.113-.1695-.0859-.4377-.1693-.7058-.3907-.135-.1062-.2974-.2011-.4415-.3522-.1404-.1492-.2973-.305-.4432-.4858-.1277-.201-.2809-.3952-.3977-.6256-.0966-.244-.2335-.4697-.2992-.7385l-.1095-.3952c-.0254-.1355-.0438-.2688-.0657-.4021-.0565-.2665-.0383-.5374-.0547-.7929Zm-7.3387,16.0475l.0493-.4066,.115-.8017c.062-.262,.1386-.5149,.2061-.7679l.104-.3795,.1496-.3478c.1004-.2303,.1915-.4607,.2956-.6754,.2298-.4133,.4432-.8199,.7041-1.1473,.2335-.3547,.4924-.6392,.7296-.8989,.4853-.5105,.9285-.8651,1.2533-1.0797,.3175-.2212,.5144-.3094,.5144-.3094,0,0-.1606,.1649-.4178,.4788-.2626,.305-.6147,.7634-1.0033,1.3326-.1897,.2935-.3921,.6053-.5818,.9577-.208,.3365-.3575,.7429-.5528,1.1247-.0784,.201-.1496,.4157-.2261,.628l-.1131,.3185-.0839,.3342c-.0547,.2212-.1113,.4495-.1678,.6754l-.0857,.7001-.0475,.3501-.0018,.3524c-.0037,.2371-.0054,.472-.0091,.7069,.042,.4631,.0966,.9239,.1477,1.3711,.1095,.4336,.2006,.8604,.2937,1.2648,.1167,.3975,.2609,.759,.3722,1.1068,.0583,.1761,.1168,.341,.1677,.499,.0585,.1537,.1296,.2961,.188,.4292,.1186,.2711,.2243,.5105,.3064,.7048,.1679,.3975,.2592,.6347,.2592,.6347,0,0-.146-.1807-.3941-.5128-.1223-.1672-.2718-.3704-.4432-.6053-.0839-.1242-.1788-.244-.2664-.3863-.0784-.149-.1588-.3071-.2445-.472-.166-.3342-.3684-.6843-.529-1.0932-.1404-.4201-.2937-.865-.4341-1.3347-.0822-.4946-.1935-1.0051-.2408-1.5337-.0018-.2686-.0055-.5374-.0092-.8085l-.0037-.4089Z"/>
  <path class="cls-1" d="M56.8655,25.0232c5.2501-.4676,10.9141,3.3202,15.761,7.9254,.4616-.5918,1.0964-1.0164,1.8698-1.2602-2.1817-2.4325-4.15-4.2824-5.3869-5.3325-3.2999-2.803-5.5637-9.1046-1.4137-12.0225,4.1483-2.9205,7.3533,2.568,7.3533,2.568-.0931-4.2033-6.2606-9.791-12.1656-6.3107-5.9394,3.501-3.3911,11.7945-3.3911,11.7945-1.0307-.8132-2.0103-1.4342-2.9497-1.9062l-.1825,.8132c-.2791,1.2443-.1076,2.5002,.5052,3.7311Zm5.0055-7.7674c.0494-.4946,.1278-1.0119,.2719-1.5154,.1569-.497,.3356-1.0029,.5911-1.4501,.2499-.4517,.5509-.8583,.8793-1.2062,.3192-.3613,.6859-.6278,1.0397-.8673,.3521-.2438,.7223-.4021,1.0671-.5467,.3466-.1354,.6805-.2281,.9906-.2867,.6202-.1333,1.142-.1333,1.505-.1198,.3612,.0226,.5636,.0678,.5636,.0678,0,0-.8208,.1581-1.9501,.6322-.5636,.2441-1.1966,.5782-1.806,1.0526-.6019,.4811-1.1856,1.0909-1.5888,1.8656-.2226,.3704-.3812,.7905-.5236,1.2106-.0602,.2169-.1185,.4314-.1751,.646-.04,.2214-.0966,.4337-.1257,.6549-.064,.4382-.1022,.8695-.1296,1.2852-.0018,.4155-.0273,.813-.0091,1.1857,.0055,.3681,.0201,.7114,.0438,1.0119,.0164,.3048,.0309,.5738,.0583,.7905,.0401,.4382,.0548,.6957,.0548,.6957,0,0-.084-.2326-.2189-.646-.0693-.2078-.1459-.4631-.2134-.7634-.0785-.3004-.1551-.6415-.208-1.0232-.0747-.3772-.1076-.7994-.1404-1.2445-.0164-.4517-.0274-.9327,.0236-1.4297Z"/>
</svg>