<?xml version="1.0" encoding="UTF-8"?>
<svg id="OBJECTS" xmlns="http://www.w3.org/2000/svg" viewBox="0 0 253.6509 76.2125">
  <defs>
    <style>
      .cls-1 {
        fill: #ffcc5f;
      }
    </style>
  </defs>
  <g>
    <path class="cls-1" d="M200.8285,43.3818s.3087-.1357,.8761-.4194c.5662-.2774,1.377-.7276,2.3928-1.3226,2.0137-1.2022,4.8254-3.1051,7.5794-5.9994,.3317-.3714,.6699-.7506,1.0132-1.1381,.3318-.3977,.6482-.8191,.9812-1.2361,.3062-.4426,.6161-.8916,.9351-1.3488,.2601-.4733,.5598-.9293,.8057-1.4309,.2396-.5065,.5073-1.0087,.6879-1.5518,.2242-.5271,.3702-1.085,.5291-1.6448,.2626-1.1297,.4175-2.307,.3586-3.4957-.0987-2.3736-1.0747-4.7805-3.0166-6.2894-1.8535-1.5634-4.5115-2.1456-6.8057-1.2489-1.1542,.3945-2.2071,1.1048-3.0897,1.9797-.096,.1024-.2485,.2305-.3036,.3118l-.3253,.3831c-.2408,.2607-.3894,.5021-.5547,.7442-.3343,.4829-.602,1.0472-.8134,1.5993-.3945,1.1265-.4688,2.3383-.2216,3.4701,.1384,.561,.3434,1.1035,.6277,1.5967,.301,.4816,.6418,.9408,1.067,1.2956,.0974,.1032,.2165,.1691,.3241,.2549l.1653,.1198,.0192,.0167c-.0039-.0019,.041,.0269-.0065-.0019l.0513,.0288,.1012,.0589,.4086,.2344c.1281,.0653,.2434,.1076,.3651,.1653,.4906,.2087,1.035,.3701,1.5679,.4137,1.0747,.123,2.1533-.1486,3.0806-.6462,.9236-.5259,1.6909-1.2362,2.2353-2.1238,.4394-.7693,.6558-1.7927,.3112-2.5786-.0627-.2069-.1818-.3824-.2958-.563-.0051-.014-.0372-.0634-.0269-.0499l-.0602-.0705-.1204-.1396c-.0782-.0897-.1422-.1345-.2127-.2076-.3125-.2677-.693-.4303-1.0823-.5021-.7827-.1466-1.5974,.1486-2.1188,.661l-.0986,.0974c-.0102,.0051-.0576,.0691-.0845,.1012-.0602,.0781-.1358,.1601-.1704,.2293-.0884,.1351-.1703,.2946-.2242,.4521-.1089,.3216-.1217,.6584-.0487,.9691,.141,.6199,.5906,1.1374,1.1055,1.2636,.4983,.1051,1.0286-.0961,1.3668-.3561,.3574-.2593,.5636-.5995,.634-.8966,.0859-.2998,.0282-.5432-.0102-.6994-.0551-.1538-.0832-.2332-.0832-.2332,0,0,.0358,.0769,.105,.2254,.0512,.1525,.1319,.399,.0717,.7238-.0474,.3228-.2369,.7083-.5995,1.0241-.3522,.3145-.8826,.6014-1.5627,.5066-.6469-.1236-1.2208-.7006-1.4449-1.4474-.1153-.3747-.1307-.8058-.0167-1.2221,.0577-.2075,.1396-.4073,.2562-.6097,.0564-.1108,.114-.18,.1716-.2651,.0359-.0474,.0449-.0711,.1025-.1396l.1102-.1256c.6059-.6738,1.5871-1.1247,2.6439-1.003,.5238,.0551,1.0516,.26,1.4948,.6027,.1089,.0935,.237,.1966,.3241,.2869l.1256,.1358,.064,.0673c.0525,.0576,.0487,.066,.0755,.1012,.1679,.2312,.3344,.4675,.4395,.7436,.1408,.2606,.1793,.5546,.2536,.8421,.0153,.2947,.0692,.597,.0179,.8935-.0307,.6027-.2536,1.174-.538,1.753-.5547,1.003-1.4577,1.9125-2.5312,2.5619-1.0836,.6373-2.4069,1.0254-3.7672,.9197-.6841-.0371-1.3425-.2062-1.997-.4726-.1602-.0711-.3382-.1416-.4881-.214l-.4099-.2267-.1024-.057-.0513-.0288c-.0666-.0384-.0333-.0205-.0576-.034l-.0257-.0185-.2203-.1524c-.1409-.1064-.2997-.198-.4253-.3209-.5572-.4516-1.0004-1.0178-1.3885-1.616-.3715-.6142-.6456-1.2848-.8301-1.9835-.3471-1.4033-.2715-2.9276,.2127-4.3072,.2562-.6879,.5585-1.3393,.9812-1.9605,.2088-.3126,.4253-.6347,.6405-.8704l.3228-.3856c.1486-.1851,.26-.2709,.3919-.4118,1.0184-1.0215,2.2507-1.8733,3.6481-2.3627,.6905-.2651,1.4309-.3932,2.1674-.4752,.743-.0321,1.4974-.027,2.2199,.1422,1.4629,.2773,2.8002,.9824,3.912,1.9009l.3792,.3215,.0961,.082,.0474,.0403,.0499,.0455,.0218,.0243,.1922,.1973,.3778,.3984,.3292,.4278c.4394,.5739,.7724,1.2054,1.0607,1.8446,.5623,1.2899,.8275,2.6631,.8608,4.0023,.0371,1.3431-.1512,2.6515-.4894,3.8807-.1921,.6072-.374,1.2092-.6353,1.7709-.2178,.5809-.5201,1.1099-.7942,1.6441-.2857,.5284-.629,1.0241-.9338,1.523-.3459,.4586-.6482,.8864-1.0133,1.3476-.3676,.4201-.7147,.839-1.0772,1.2361-.3728,.383-.7417,.7583-1.1004,1.1259-1.4782,1.4353-2.9872,2.5651-4.368,3.4784-1.3834,.9172-2.6451,1.6198-3.7007,2.1584-1.0555,.5438-1.9188,.8999-2.5055,1.1369-.5893,.2325-.9094,.3413-.9094,.3413Z"/>
    <path class="cls-1" d="M169.9422,16.9629s.2165-.1153,.6225-.3305c.4073-.2113,1.0196-.5072,1.8254-.8133,.8057-.3139,1.8202-.6162,3.0089-.8493,1.1913-.2325,2.5594-.3561,4.044-.3939,1.482-.0275,3.0781,.0269,4.7267-.0077,1.6512-.0237,3.3587-.2158,5.0354-.7244,.8403-.2581,1.6729-.5828,2.4569-1.0043,.7672-.4163,1.4872-.9504,2.0777-1.5935,.5931-.6417,1.0683-1.3943,1.3513-2.2211,.2844-.8288,.3869-1.7216,.287-2.594-.0961-.8684-.3958-1.7234-.8787-2.412-.5111-.7474-1.1465-1.3872-1.8728-1.8816-.725-.4919-1.5397-.8173-2.3774-.9198-.8391-.1063-1.6909,.0064-2.494,.2767-.4048,.1345-.7865,.3036-1.1644,.5104-.3408,.1883-.6827,.4362-.9633,.7039-.57,.5381-.9466,1.2297-1.0414,1.9535-.0999,.725,.0909,1.459,.4637,2.0649,.1921,.3017,.4202,.5815,.6789,.8133,.2357,.2101,.5432,.385,.8506,.5144,.6225,.2619,1.2963,.3529,1.9073,.2856,.3061-.0365,.6007-.1069,.8633-.2286,.2767-.1294,.5137-.278,.7186-.4547,.4151-.3536,.6316-.8372,.6034-1.2964-.0256-.4624-.2255-.8749-.5457-1.0907-.3177-.2229-.6968-.2786-1.003-.23-.3087,.05-.5405,.2153-.6789,.3882-.2715,.36-.2562,.6392-.2715,.6283,.0166,.0077-.0346-.2607,.2087-.6744,.1269-.1973,.3613-.4125,.7058-.5079,.3382-.0961,.7776-.0762,1.1913,.1582,.2012,.1134,.4022,.2997,.5278,.5219,.1332,.2351,.2165,.4919,.2447,.7782,.0653,.5733-.1909,1.2234-.6738,1.6588-.2383,.2249-.5201,.4113-.8109,.5624-.3061,.164-.6456,.2677-1.0004,.3292-.7096,.1204-1.4795,.0641-2.2288-.1985-.3754-.1332-.7378-.3138-1.0901-.5944-.3203-.2632-.6046-.5751-.8557-.9325-.4881-.7116-.7903-1.6352-.7071-2.5888,.0692-.9582,.547-1.8818,1.2322-2.5773,.3485-.3523,.7225-.6469,1.1619-.9101,.4035-.2389,.8454-.4579,1.304-.6296,.9198-.3497,1.9599-.5316,2.9987-.4163,1.0414,.1024,2.0547,.4855,2.9334,1.0542,.8813,.5688,1.6486,1.3168,2.2557,2.1623,.6457,.9043,1.0056,1.9547,1.1388,3.0256,.1306,1.0695,.0141,2.1667-.3305,3.185-.342,1.0178-.9171,1.9477-1.6268,2.7176-.7186,.7724-1.5615,1.3802-2.453,1.8586-.88,.467-1.7997,.8096-2.7156,1.0805-1.8408,.5438-3.702,.6533-5.4069,.6334-1.7126-.0269-3.2907-.187-4.7421-.2279-1.45-.0711-2.772-.0379-3.9402,.0857-1.1682,.1128-2.175,.3254-2.9987,.5342-.8223,.2159-1.4577,.4253-1.892,.5751-.4316,.1576-.6609,.2434-.6609,.2434Z"/>
    <g>
      <path class="cls-1" d="M126.8434,42.6088s3.7685-3.7513-.0282-6.5546c-3.7673,2.8379,.0282,6.5546,.0282,6.5546Z"/>
      <path class="cls-1" d="M125.0885,36.3443c-.0051-.9536,.766-1.7312,1.719-1.735,.9556-.0045,1.7318,.7647,1.7383,1.719,.0025,.9556-.7699,1.7306-1.7229,1.7357-.9531,.0052-1.7293-.7647-1.7344-1.7197Z"/>
      <path class="cls-1" d="M126.8075,34.6093s-1.6127-.6905-2.4031,.8928c-.5264,1.053-.4701,2.3288-2.3966,2.5863,0,0,2.7053,.8889,4.1541-1.2785,.3164-.4771,.6379-1.261,.6456-2.2006Z"/>
      <path class="cls-1" d="M126.8075,34.6093s1.6089-.7084,2.412,.8704c.5368,1.0497,.4932,2.3243,2.4198,2.5625,0,0-2.6965,.9159-4.1632-1.2386-.324-.474-.6519-1.2554-.6686-2.1943Z"/>
    </g>
    <path class="cls-1" d="M130.6696,35.3574s.3484,.3541,1.0721,.93c.7225,.5776,1.8292,1.3667,3.3331,2.198,1.5025,.8301,3.4226,1.6653,5.7181,2.2558,2.2968,.5918,4.9701,.8531,7.8663,.6097,2.8719-.2421,5.918-1.1144,8.8142-2.6733,1.4514-.7775,2.868-1.7197,4.2605-2.7797,1.3936-1.06,2.772-2.2225,4.1861-3.4182,1.418-1.197,2.868-2.4357,4.4436-3.6007,1.5743-1.1612,3.2754-2.266,5.1699-3.0814,1.883-.8249,3.9466-1.359,6.0384-1.5204,.5687-.0321,.9774-.0641,1.5564-.0558,.5482-.0083,1.0632,.0263,1.5935,.0673,1.0554,.0922,2.1135,.2869,3.1434,.6014,2.0636,.6168,3.994,1.7799,5.5004,3.3465,1.5115,1.5595,2.5863,3.5226,3.0846,5.6176,.2561,1.0465,.3548,2.1321,.2907,3.2158-.0179,.2716-.0422,.5425-.082,.8128-.0346,.2267-.0807,.4912-.1332,.7589-.105,.5111-.2357,1.0094-.3868,1.5026-.6187,1.963-1.6588,3.8069-3.1217,5.248-1.459,1.4385-3.3228,2.4248-5.2237,2.8194-.9466,.2075-1.8958,.2971-2.8245,.2997-.9172,.0103-1.8894-.0877-2.7886-.3292-1.81-.4663-3.4996-1.5794-4.4257-3.1562-.9517-1.5628-1.1285-3.408-.7801-4.981,.0846-.4067,.1909-.7558,.3433-1.1676,.1165-.3042,.333-.7493,.5418-1.0548,.4253-.6584,.9505-1.2061,1.5141-1.6608,1.1298-.9088,2.4466-1.4731,3.7545-1.5781,1.2527-.0749,2.5721,.1588,3.4675,.9332,.4458,.3798,.7712,.8601,.944,1.3635,.1679,.5022,.2319,1.0024,.1627,1.4815-.1741,.9959-.8582,1.6287-1.4987,1.9284-.661,.3016-1.3194,.2562-1.76,.0653-.4496-.1915-.7007-.4714-.8493-.6571-.0768-.0948-.1255-.1717-.1575-.2229-.0346-.0512-.0512-.0768-.0512-.0768,0,0,.0192,.023,.0589,.0704,.0371,.0493,.0935,.1192,.1793,.2024,.1678,.1653,.4432,.4067,.8711,.5361,.424,.1313,1.0081,.1018,1.5499-.2235,.5303-.3075,1.0491-.9287,1.1003-1.6781,.0474-.7711-.2536-1.6845-.994-2.2404-.3612-.2856-.8223-.4733-1.3258-.5758-.2613-.0531-.5034-.0762-.7775-.0915-.1397,0-.2805-.0014-.424-.0026-.1345,.0128-.2703,.0256-.4086,.0371-1.094,.1512-2.2109,.7072-3.1384,1.55-.9325,.8403-1.6588,1.9772-1.8266,3.3035-.2216,1.3271,.0116,2.7682,.7942,3.9198,.7737,1.1554,2.0611,1.9765,3.5495,2.3044,.7519,.1684,1.5115,.2267,2.3365,.1863,.8172-.0313,1.6293-.1402,2.4197-.3451,1.5794-.4036,3.0537-1.2099,4.2105-2.4076,1.1618-1.1951,2.0046-2.747,2.4927-4.4321,.1204-.4214,.2229-.8512,.3023-1.2841,.0333-.2037,.0679-.4138,.0999-.6636,.0244-.2068,.0461-.4176,.0589-.627,.0423-.8422-.041-1.7094-.2536-2.5529-.4138-1.6915-1.304-3.2927-2.5439-4.5519-1.2362-1.2707-2.8143-2.1917-4.5372-2.7239-.8608-.2703-1.76-.4426-2.672-.5284-.4535-.0384-.9249-.0724-1.3643-.0679-.4086-.0166-.9863,.0192-1.4,.0391-1.842,.1294-3.6354,.5783-5.3249,1.3033-3.3933,1.4411-6.3318,3.8506-9.2062,6.1825-2.8604,2.3525-5.8053,4.598-8.9654,6.1479-3.1472,1.5782-6.4662,2.3237-9.5187,2.4377-3.032,.1326-5.8309-.3311-8.1661-1.0702-2.3454-.7353-4.2412-1.7517-5.7091-2.6919-1.4731-.946-2.5094-1.851-3.1884-2.4844-.6788-.6386-.9952-1.019-.9952-1.019Z"/>
    <path class="cls-1" d="M198.8827,27.8209c-.0731-.0199-.1448-.0403-.2139-.0685-.1576-.0667-.3203-.1332-.4829-.2011-.1589-.0666-.3177-.1294-.4587-.2223-.1447-.0839-.2856-.1672-.4214-.2472-.1332-.0826-.269-.1505-.3843-.2319-.114-.0877-.2203-.171-.3189-.2453-.3843-.2997-.6431-.4983-.6431-.4983,0,0,.31,.0936,.7737,.2371,.1141,.0345,.2344,.0716,.3651,.1107,.1307,.0346,.2767,.0519,.4189,.0788,.1435,.025,.2933,.05,.4432,.0756,.1486,.0339,.3023,.0339,.4534,.0403,.0602,0,.1192,.0033,.1794,.0064-.7481-2.5356-2.3967-5.1885-5.7387-7.3059-.1319-.0832-.2702-.1581-.4035-.2382-.397,.5117-.9248,1.0696-1.5359,1.5256-.1767,.1422-.3676,.2664-.5546,.3824-.1832,.1255-.3817,.2197-.5649,.317-.1806,.1024-.3728,.1704-.5456,.2434-.1717,.0755-.3395,.1294-.4984,.1729-.3074,.1025-.5725,.1518-.7557,.1838-.1806,.0346-.2831,.0538-.2831,.0538,0,0,.0896-.0538,.251-.1479,.1576-.091,.3818-.2216,.6239-.415,.1255-.0884,.2562-.1871,.3817-.3094,.1281-.1198,.269-.2318,.392-.3772,.1255-.141,.26-.2742,.3727-.433,.1204-.1524,.2383-.3081,.3382-.4753,.3472-.5252,.5905-1.09,.7494-1.5717-4.0709-1.842-8.6682-1.9861-12.8429-1.0792,.0218,.2505,.0423,.5175,.0398,.8077,.0025,.3856-.0321,.7961-.0961,1.1976-.0423,.2012-.0666,.3997-.1281,.5931-.0538,.1915-.1037,.3805-.1806,.5541-.0666,.1774-.1345,.3439-.2191,.4924-.0819,.1525-.1486,.2953-.2382,.4157-.0832,.1198-.1589,.23-.2254,.3274-.0808,.087-.1486,.1639-.205,.2267-.1102,.1229-.1742,.194-.1742,.194,0,0,.0384-.0858,.1089-.2376,.032-.0749,.073-.1646,.1191-.269,.032-.107,.0704-.2293,.1114-.3625,.0474-.1287,.0641-.2792,.0935-.4311,.0346-.1517,.0449-.317,.0538-.4841,.0206-.1659,.009-.3401,.0026-.5143,.0013-.1711-.0346-.3504-.0487-.5239-.0563-.3485-.1357-.6879-.2357-1.0004-.0704-.2287-.1511-.433-.2305-.6226-3.342,.9389-6.319,2.5305-8.3928,4.4103,.0512,.1402,.082,.2984,.1268,.4598,.0358,.1711,.096,.3427,.1178,.5329,.0244,.1871,.0525,.3766,.0807,.5726,.0334,.1909,.0321,.3907,.0359,.5892,.0051,.1935,.0064,.3882,.0116,.5809,0,.1903-.0372,.3811-.0539,.5592-.0218,.1787-.041,.3509-.0602,.5137-.0089,.1614-.0653,.3112-.0973,.4495-.1486,.5407-.2447,.9018-.2447,.9018,0,0-.0192-.3682-.0461-.9222-.0115-.1358-.0026-.2831-.0436-.4356-.032-.153-.0653-.3125-.0973-.4784-.0371-.1646-.0563-.3337-.1102-.5002-.0576-.1646-.1165-.3305-.1729-.4983-.0576-.1639-.1063-.3292-.1909-.4797-.0742-.1505-.1498-.3004-.219-.4464-.0409-.0961-.096-.18-.1524-.2651-4.8074,5.312-6.2255,11.7949-11.4287,14.508,0,0,5.8643-2.2776,11.2583-7.6102,6.9094-6.8313,13.9252-8.4068,21.105-6.3355,7.6984,2.2218,10.4256,8.1961,10.4256,11.6899,0,0,1.2976-3.4636,.5047-7.5198Zm-26.7116-5.25c-.0282,.1793-.0769,.3638-.1486,.5425-.0667,.18-.1487,.3516-.2511,.4989-.0922,.1544-.1883,.2889-.2959,.3894-.1973,.2088-.36,.3177-.36,.3177,0,0,.0346-.1998,.1307-.4567,.0512-.1248,.0986-.276,.1575-.4316,.0615-.1563,.1307-.3158,.1845-.4836,.0743-.1601,.1242-.3266,.187-.4803,.0641-.1524,.1063-.2998,.164-.4266,.0922-.251,.1665-.4355,.1665-.4355,0,0,.0218,.0448,.0435,.1261,.0257,.0852,.0423,.2031,.0539,.3504,0,.1415,.0038,.3145-.032,.4893Zm1.5179-.8198c-.0128,.1358-.0603,.269-.091,.4048-.0397,.1326-.0717,.2684-.123,.3946-.0551,.1216-.1242,.2369-.1857,.3509-.0602,.114-.1255,.2191-.1844,.3203-.0667,.096-.1499,.1729-.2178,.2478-.278,.3017-.4893,.4637-.4893,.4637,0,0,.0909-.2645,.2652-.6078,.0396-.0884,.096-.1781,.1383-.2773,.0371-.1031,.0717-.212,.1178-.3215,.0448-.1089,.0833-.2236,.1345-.335,.041-.114,.0615-.237,.0935-.3568,.0321-.1184,.082-.235,.0961-.3554,.0141-.1217,.0372-.2376,.0564-.3523,.023-.1153,.0294-.2293,.0371-.3356,0-.107,.0192-.2107,.0192-.3055-.0077-.1896,0-.3554-.0141-.4669-.0025-.1172-.0128-.1857-.0128-.1857,0,0,.0448,.0499,.1012,.1562,.0244,.0513,.0717,.1166,.0961,.1947,.0269,.0769,.0615,.1666,.0909,.2652,.0321,.1005,.0449,.2101,.0628,.3279,.0166,.1192,.0435,.2434,.0282,.3728-.0065,.1287-.0065,.2652-.0192,.4009Zm7.988-.4944c-.1256,.082-.2652,.1281-.392,.1767-.1256,.0564-.2498,.0859-.3676,.1077-.2293,.0602-.4253,.0659-.5624,.0659-.137,.0019-.2139-.0019-.2139-.0019,0,0,.0718-.032,.1947-.089,.0602-.025,.1358-.057,.2203-.0903,.0833-.0346,.1717-.0897,.2716-.1371,.0973-.0461,.2037-.1006,.3074-.1691,.1076-.0666,.2216-.1281,.3254-.2114,.1114-.0774,.2203-.1582,.3279-.2523,.1102-.0858,.2139-.1832,.3126-.2882,.2087-.1934,.3855-.4208,.5546-.6334,.1601-.2184,.3087-.4298,.424-.62,.237-.3773,.383-.6546,.383-.6546,0,0,.0064,.3183-.1396,.7654-.0679,.2248-.1794,.4772-.3267,.7352-.0794,.1243-.1563,.2588-.2549,.3798-.0999,.1211-.1947,.2473-.3151,.3581-.2216,.2248-.4855,.4195-.7493,.5585Zm3.8889-2.594c0,.0667-.0064,.1473-.0282,.2358-.0217,.0864-.0294,.194-.0743,.2971-.041,.1051-.0858,.2178-.1396,.3356-.0499,.1217-.1345,.2293-.2113,.3459-.0846,.1114-.1499,.2504-.2601,.3446-.105,.105-.21,.2094-.3151,.3151-.1063,.1076-.2203,.2011-.342,.2792-.1179,.0859-.2421,.1589-.3561,.2344-.1178,.0724-.2267,.1499-.3446,.1973-.1166,.0513-.2267,.0948-.3304,.1326-.4099,.1608-.6943,.2248-.6943,.2248,0,0,.2177-.2075,.5623-.4566,.0845-.0628,.1781-.1301,.278-.1954,.1025-.0666,.1882-.1627,.292-.2395,.1038-.0814,.205-.1717,.3139-.2505,.1127-.0762,.2139-.1684,.3074-.269,.0999-.0935,.1998-.1864,.2985-.2786,.1063-.0845,.178-.1947,.2664-.2856,.0768-.1012,.1793-.1819,.2408-.2806,.0641-.096,.1306-.1857,.1947-.269,.0628-.0839,.0999-.1691,.1473-.2421,.0449-.073,.0807-.137,.1051-.1947,.0576-.1101,.0806-.1838,.0806-.1838,0,0,.018,.0717,.009,.203Zm8.6234,4.8792c-.3152,.1268-.7545,.237-1.2054,.2837-.2267,.0065-.4522,.0385-.6635,.0116-.214-.0212-.4112-.0301-.5778-.0769-.3317-.0916-.5367-.1748-.5367-.1748,0,0,.2319-.0244,.5573-.025,.1626,.0006,.3548-.0276,.5546-.0314,.2011-.0013,.4176-.0385,.6341-.0513,.1063,0,.2139-.023,.3202-.032,.1038-.0115,.2113-.0217,.3113-.032,.2011-.0321,.3932-.0423,.5559-.0653,.1678-.0167,.3061-.0308,.4022-.0416,.0987-.0084,.1538-.0122,.1538-.0122,0,0-.1897,.1242-.506,.2472Z"/>
    <path class="cls-1" d="M143.7647,17.4894c-6.7352,2.5683-6.0255,8.7771-3.684,8.8744,2.2545,.0922,1.5781-2.3441,1.2272-3.4034-.5163-1.5603,.976-4.2714,4.4205-4.6653,3.684-.4214,4.3142,2.3864,4.3142,2.3864-2.4888-.1768-3.1921,2.2449-3.1921,2.2449,1.7537-.8781,4.5615-.4567,4.3143,2.5254-.2447,2.9807-1.8574,4.6313-1.8574,4.6313-1.6858-2.8418-4.842-1.2304-4.842-1.2304,1.1579,.0717,2.5606,1.7216,1.0183,4.0004-1.5448,2.2801-5.508,1.965-5.508,1.965,.8057-2.3512-.9134-3.1915-.9134-3.1915-.0691,1.1227-1.2271,1.9989-3.1908,1.7889-1.965-.2114-1.9291-1.5794-2.7361-2.6312-.8083-1.0523-1.947-1.0183-3.2626-2.754-1.0248-1.3533-1.2617-4.1227-.9466-5.9109,1.0286-5.8341,4.6127-7.001,5.526-7.2137,.9056-.2152,1.8753-.1639,2.6337,.2293,.3778,.1966,.6839,.4861,.8812,.8403,.2024,.3593,.2831,.7519,.2934,1.1939,.0294,.8185-.3472,1.6024-.9608,2.054-.6007,.4726-1.3923,.627-2.0354,.4745-.1601-.0383-.3112-.0973-.4496-.1729-.0295-.0173-.0756-.0474-.0922-.0538l-.105-.0768c-.0461-.0384-.1-.0884-.1473-.1442-.1858-.2216-.2883-.5014-.3164-.7756-.0551-.5558,.1921-1.0477,.4919-1.3334,.2997-.2934,.6237-.4317,.8428-.5073,.2216-.0724,.3484-.0922,.3484-.0922,0,0-.1268,0-.3612,.041-.2318,.0429-.5905,.1294-.9556,.4189-.3587,.2792-.7148,.8019-.725,1.4865-.0051,.3376,.0794,.7141,.3164,1.0382,.0576,.0833,.1243,.1588,.2075,.2383l.1025,.0896,.1332,.0935c.1703,.1115,.3599,.2037,.5598,.2703,.8095,.2601,1.7882,.1109,2.5888-.4342,.8172-.5368,1.3552-1.5615,1.3475-2.6349,.0115-.497-.0948-1.0773-.3689-1.5679-.269-.5009-.7032-.912-1.2015-1.1792-1.0081-.5437-2.1802-.5385-3.2165-.292-1.0503,.2466-5.4094,1.6262-6.1217,9.7961-.8082,9.2753,6.7212,14.2147,12.8851,14.5957,6.8416,.4208,15.2241-3.7896,15.7864-11.1218,.5316-6.9337-6.2625-12.4777-13.049-9.8902Zm-4.9124,16.6062c-.0269,.0603-.0615,.1358-.1166,.2062-.0525,.0725-.1063,.1653-.1832,.2453-.0794,.0789-.1678,.1672-.2651,.2543-.0897,.0986-.2126,.1563-.3305,.2345-.1243,.0672-.2408,.1677-.3817,.2126-.1396,.0512-.2793,.1024-.4202,.1563-.1409,.0512-.2844,.0934-.4304,.1089-.1447,.0268-.2882,.0403-.4253,.0588-.1396,.0148-.2703,.041-.3984,.0334-.1267-.0052-.2459-.0154-.3561-.025-.4406-.0352-.7237-.0967-.7237-.0967,0,0,.2895-.0794,.7109-.1447,.1051-.0161,.2178-.0334,.3382-.0475,.1204-.0115,.2421-.0615,.3702-.0858,.1281-.0281,.2575-.064,.392-.0883,.137-.0174,.2677-.0641,.3945-.1141,.1306-.0435,.26-.0871,.3881-.1293,.132-.0366,.2422-.1089,.3613-.1602,.1088-.0628,.2382-.0948,.3305-.1672,.096-.0653,.1934-.1235,.283-.1774,.0884-.0576,.1537-.1229,.2255-.1729,.0704-.0538,.1242-.1025,.1678-.1479,.0935-.0826,.1409-.1429,.1409-.1429,0,0-.0141,.0724-.0717,.1896Zm9.894-1.0862c-.0346,.2408-.0346,.497-.1101,.734-.0679,.2382-.1307,.4803-.2357,.6981-.0897,.2235-.1896,.4393-.3152,.6289-.1204,.1928-.2267,.3856-.3625,.5457-.1281,.1607-.2536,.3075-.374,.4432-.2306,.2735-.4765,.4509-.629,.5892-.16,.1333-.2536,.2037-.2536,.2037,0,0,.0551-.1076,.1601-.2843,.0961-.1845,.2691-.4183,.4317-.7225,.0807-.1524,.1691-.3171,.2703-.4836,.0974-.1671,.1639-.3638,.2613-.5475,.1063-.1832,.1614-.3933,.2421-.5919,.0922-.2011,.1358-.415,.1896-.627,.0756-.2069,.0756-.4253,.1191-.6334,.0013-.2114,.0423-.4214,.0192-.6232-.0051-.1006-.0128-.1992-.0153-.2991-.0141-.0973-.0269-.1928-.0436-.2856-.0294-.1858-.0768-.3606-.1217-.5214-.196-.6418-.4611-1.0452-.4611-1.0452,0,0,.1025,.0621,.2562,.2075,.073,.0743,.1717,.1614,.2574,.2798,.0961,.1147,.1896,.2537,.2793,.4157,.0884,.1602,.1819,.3414,.2434,.5419,.032,.1025,.0666,.2088,.1012,.3163,.0218,.1096,.0384,.223,.0576,.3383,.023,.1177,.0282,.2356,.0307,.356,.0026,.1211,.0141,.2447,.0026,.3664Zm6.0794-5.8565c-.0064,.1627-.0128,.3061-.0166,.424-.0154,.2331-.0295,.3651-.0295,.3651,0,0-.0397-.1294-.0974-.3549-.0269-.1127-.0589-.2485-.096-.4047-.0295-.1576-.0782-.3306-.1396-.5163-.0564-.1857-.1166-.3881-.173-.6008-.0807-.2055-.1653-.4213-.2459-.6443-.0769-.2254-.2101-.4335-.3062-.6635-.1012-.2242-.2485-.4279-.3727-.6456-.1448-.2011-.2831-.4111-.4458-.5956-.164-.1768-.3139-.3709-.4932-.5214-.1678-.1678-.3471-.3061-.5149-.4444-.178-.1211-.3433-.2505-.5086-.3459-.6532-.4048-1.1682-.5765-1.1682-.5765,0,0,.1358-.0089,.3728,.0154,.1152,.0167,.26,.034,.4188,.0731,.1628,.0384,.3446,.0871,.5342,.1639,.1947,.0653,.3958,.1665,.6047,.2767,.2023,.1229,.4264,.2433,.6225,.4137,.21,.1563,.4022,.3446,.5905,.5438,.187,.1985,.3458,.4298,.5149,.6501,.1332,.2433,.2869,.4765,.3958,.7269,.1025,.2505,.2114,.4958,.2806,.7424,.0704,.2471,.1229,.4892,.1793,.7159,.032,.2306,.0525,.4509,.0717,.6521,.0116,.0999,.0193,.1973,.0295,.2882-.0026,.0922-.0051,.18-.0077,.2626Z"/>
    <path class="cls-1" d="M221.7502,33.8202c.237-.055,.4765-.1166,.7224-.2011,.6815-.2267,1.3937-.5533,2.0329-1.0632,.6354-.5021,1.1951-1.2008,1.4885-2.0393,.0679-.2177,.123-.4099,.1626-.6603,.0269-.1748,.0513-.4515,.0269-.6872-.0371-.4753-.21-.9549-.4982-1.338-.5893-.7807-1.5026-1.1458-2.3468-1.2783l-.1614-.0237c-.0973-.0103-.1101-.0097-.1716-.0129-.1038-.0038-.1895-.0192-.3062-.0166l-.3548,.0192-.3356,.0596c-.4432,.1069-.8723,.3273-1.1874,.6578-.6238,.6507-.866,1.6377-.4189,2.4274,.2754,.4047,.5982,.5809,.9479,.7339,.3433,.1371,.7148,.1883,1.0658,.132,.3509-.0532,.6674-.2197,.8915-.4381,.2178-.2267,.3779-.4663,.4419-.7641,.1166-.5893-.2447-1.0318-.5469-1.2252-.3164-.2108-.6239-.2325-.8134-.2191-.1947,.0116-.2895,.059-.2895,.0519,0,.0071,.1038-.025,.2895-.0064,.1844,.0135,.4572,.0929,.7135,.3068,.2523,.2056,.4765,.6097,.3381,1.0113-.1332,.3811-.5841,.7743-1.0824,.7948-.251,.018-.5277-.0442-.7801-.1703-.2446-.1172-.5136-.3318-.6174-.5162-.2421-.4503-.0499-1.176,.3894-1.5859,.2191-.2133,.5098-.3497,.8288-.4137l.246-.0359,.2344-.0051c.0794-.0071,.1908,.0103,.2869,.0166,.0384,.0046,.1242,.0077,.1242,.0103l.1345,.0244c.7174,.1152,1.4001,.4419,1.8024,.9709,.2062,.26,.3189,.5745,.3509,.9024,.0192,.1659,.0153,.2921-.0167,.5169-.0192,.1447-.0691,.3407-.1204,.5047-.2087,.6814-.643,1.2758-1.1797,1.7338-.9453,.8101-2.1084,1.2316-3.1601,1.4775-6.8825-2.3543-13.915,3.5687-21.0613,9.2632-7.1606,5.7073-15.2075,7.2598-15.2075,7.2598,4.6677,.7058,13.286-3.7993,16.9316-2.9462,3.6481,.8531,1.7805,3.5123,1.7805,3.5123,0,0,3.0884-1.0746,3.4124-4.3142,.3254-3.2382-1.6524-3.4009-1.6524-3.4009,1.1529-1.1817,4.3424-3.0499,6.538-2.3864,2.1955,.6667,1.7856,3.8461,1.7856,3.8461,4.7255-4.9042-.2114-7.9234-.2114-7.9234,0,0,2.3749-2.5452,7.7613-.7999,5.3852,1.7434,3.8813,7.4929,1.3745,8.834-2.503,1.3386-4.4001-.8057-2.9615-1.7164,.4367-.278,1.0542-1.2541,.3151-2.0892-.6225-.7033-1.4629-.6277-2.3173,.2721-.8415,.8833-1.8868,3.0148,.2088,4.6525,2.5568,1.9989,5.8975,.1582,7.4039-2.1078,1.7626-2.644,1.5064-7.4705-3.2318-9.6072Z"/>
    <path class="cls-1" d="M206.7464,6.7s4.2912-1.737,3.7122-6.6904l.0052-.0038h-.0052v-.0058l-.0051,.0058c-4.9855-.0027-6.2152,4.4602-6.2152,4.4602-1.3988-6.1056-6.1883-3.889-6.1883-3.889,5.6452,2.2148,2.9424,9.8242,2.7989,10.2169l-.0128,.0134s.0064-.0032,.009-.0045c0,.0026-.0039,.0103-.0039,.0103l.0116-.0141c.3753-.1883,7.6216-3.7544,10.473,1.5993,0,0,1.6498-5.0156-4.5794-5.6983Z"/>
    <path class="cls-1" d="M129.0171,10.3302s2.7182-5.2852-1.9944-9.6167v-.0083c-.0013,0-.0013,.0019-.0039,.0025-.0012-.0006-.0038-.0025-.0038-.0025v.0083c-4.8522,4.1733-2.3108,9.545-2.3108,9.545-6.4739-4.7684-9.2767,1.4-9.2767,1.4,7.3463-2.576,11.0918,7.0901,11.2826,7.5922l-.0012,.025s.0025-.0083,.0051-.0122c.0013,.0039,.0051,.0122,.0051,.0122v-.025c.205-.4944,4.2669-10.0324,11.5247-7.2155,0,0-2.599-6.2588-9.2267-1.705Z"/>
    <path class="cls-1" d="M219.748,33.4929s.1487,.0634,.4176,.1825c.2729,.1211,.6725,.2909,1.1849,.506,.4983,.2396,1.1196,.4778,1.8036,.8193,.6943,.3214,1.4692,.6961,2.2878,1.1477,.83,.4265,1.6832,.9651,2.5657,1.548,.8877,.5841,1.7511,1.2899,2.6388,2.0405,.8864,.7513,1.76,1.6076,2.7322,2.4108l.3638,.3049,.3869,.2984c.2318,.1921,.5341,.3817,.8146,.5713,.5778,.3503,1.1773,.6648,1.8357,.8788,1.3014,.4354,2.8744,.4271,4.1144-.3293,.3163-.178,.5802-.3977,.8531-.6609l.1588-.1704,.1768-.2133c.1076-.1377,.2075-.2812,.2985-.431,.365-.5982,.5572-1.2963,.5597-1.9733,.0077-1.3674-.6853-2.6003-1.6601-3.317-.9735-.7187-2.2314-.9146-3.237-.5598-.5046,.1813-.9235,.5092-1.2169,.8826-.1409,.187-.2715,.3817-.3535,.5969-.0935,.2293-.1268,.4509-.1255,.6719,.0051,.44,.1781,.821,.397,1.1054,.2178,.2888,.4984,.4835,.7712,.5963,.5649,.2267,1.0516,.041,1.2925-.1179,.1281-.0801,.2126-.1556,.269-.2094,.0538-.0544,.0832-.0813,.0832-.0813,0,0-.032,.0237-.0922,.0704-.0628,.0455-.1563,.1096-.2895,.1704-.2536,.1229-.7109,.2216-1.1734-.0307-.4483-.2287-.88-.8147-.8338-1.4924,.0102-.1639,.0601-.3362,.1332-.4829,.0769-.1588,.1985-.3087,.3266-.4535,.2652-.2837,.6111-.5008,1.0094-.6148,.8019-.2229,1.7882-.0077,2.5222,.6148,.7404,.6021,1.231,1.6076,1.1695,2.6222-.0294,.5034-.1896,.9978-.4675,1.4346-.0705,.1089-.1499,.2146-.2306,.3152l-.123,.1383-.1601,.1626c-.1755,.1531-.3907,.3344-.6213,.4516-.9248,.5399-2.1007,.5175-3.1729,.1646-.5431-.1806-1.0632-.4573-1.5589-.7641-.2369-.1646-.4688-.3042-.7199-.5124l-.3523-.2767-.3483-.3004c-.921-.8038-1.8318-1.619-2.7554-2.3915-.9222-.7737-1.8881-1.4487-2.836-2.0245-.9504-.5681-1.8881-1.0382-2.7681-1.4187-.8851-.3766-1.7063-.6814-2.4467-.921-.7339-.2465-1.3923-.4163-1.9239-.5674-.538-.1345-.9646-.2287-1.2553-.2921-.2883-.0653-.4446-.0993-.4446-.0993Z"/>
    <path class="cls-1" d="M242.2428,42.377s.0218-.0468,.064-.1307c.0346-.0769,.1064-.1985,.1935-.3548,.0973-.1493,.2037-.3401,.3548-.5431,.1409-.2075,.3202-.4304,.5201-.6713,.2023-.2369,.4329-.4867,.6904-.7378,.2626-.2446,.5393-.506,.8544-.7416,.301-.2563,.6482-.4701,.994-.7033,.3523-.2248,.7327-.4112,1.1016-.6167,.3894-.1647,.775-.3523,1.1657-.4965,.3996-.1267,.7865-.274,1.1746-.3798,.3881-.0915,.766-.1812,1.1234-.2651,.3612-.0679,.7109-.1063,1.026-.1557,.319-.0493,.6123-.0896,.8749-.0947,.2613-.0167,.4894-.0295,.6789-.0397,.3754-.0218,.5918-.0333,.5918-.0333,0,0-.2164-.0013-.5918-.0039h-.6827c-.2652-.0102-.5585,.0128-.8826,.0436-.3241,.0294-.6763,.048-1.0465,.0935-.3651,.0628-.7545,.1306-1.1542,.1985-.4009,.0859-.8044,.2101-1.2194,.317-.4125,.123-.816,.2908-1.2285,.4362-.3958,.1902-.8031,.3587-1.181,.5714-.3715,.2203-.7481,.4227-1.0798,.6712-.3485,.2273-.6558,.4848-.9492,.7275-.2883,.2492-.5495,.4996-.7827,.7398-.228,.2427-.4342,.472-.5994,.6885-.1781,.2088-.3087,.4112-.4266,.57-.1063,.1678-.1922,.2972-.2498,.401-.0512,.0941-.0794,.1441-.0794,.1441l.7455,.3657Z"/>
    <path class="cls-1" d="M182.3034,4.3827s-14.5657-2.5875-23.0174,8.7989c0,0-5.3557-4.5141-11.6195,2.5689,0,0,5.3941-1.6595,9.3804,3.4592,3.9863,5.118,1.6383,12.4368-3.8992,17.1571,0,0,5.6156-2.8117,8.6809-9.1461,3.0615-6.3342,6.8698-18.5852,20.4748-22.838Zm-23.909,11.9718s-.0961-.1025-.2741-.2665c-.1781-.1639-.4394-.3817-.7775-.611-.1627-.1236-.36-.226-.5521-.3529-.2088-.0999-.4138-.2286-.6507-.3183-.1128-.0499-.2293-.1006-.3497-.1511-.1218-.041-.2447-.0801-.3677-.1204-.2434-.0993-.5137-.1307-.7698-.1967-.2613-.048-.5265-.08-.7865-.1121-.2652-.0089-.5227-.0185-.7737-.0268-.2511,.0192-.497,.0294-.7276,.0384-.2331,.023-.4484,.064-.6546,.0871-.2024,.0256-.3906,.0474-.5534,.0884-.1652,.0346-.3074,.0659-.4252,.0909-.2395,.0487-.3779,.0692-.3779,.0692,0,0,.123-.0621,.3446-.1614,.114-.0487,.251-.1076,.4073-.1762,.155-.0774,.3395-.1351,.5431-.1895,.2037-.057,.4228-.1307,.6597-.1736,.2421-.0385,.4958-.0781,.7622-.1101,.2665-.0122,.5444-.0167,.8275-.0141,.2792,.0269,.5662,.0551,.8505,.0998,.2767,.0795,.5624,.1205,.8237,.2313,.1319,.0506,.2652,.0992,.3945,.1492,.1217,.0615,.2473,.123,.3664,.1845,.2459,.1089,.4509,.2741,.6584,.4022,.1934,.1511,.3791,.2882,.5303,.44,.3164,.285,.5239,.5758,.6712,.7705,.1435,.2023,.2011,.3292,.2011,.3292Zm17.9474-10.7491s-.4586,.1595-1.2617,.44c-.4023,.1377-.8826,.3215-1.4347,.5265-.5457,.2177-1.1567,.4713-1.8061,.7788-.6508,.3074-1.3322,.677-2.0252,1.1042-.6841,.4419-1.3719,.9517-2.0444,1.5294-.6623,.588-1.2912,1.2528-1.9009,1.9573-.5752,.7045-1.1887,1.4872-1.6717,2.2705-.5008,.791-.9223,1.6306-1.2502,2.4972-.3253,.8666-.5944,1.7447-.7865,2.6157-.3958,1.7408-.5892,3.4252-.8262,4.8682-.2242,1.4462-.5252,2.6504-.8672,3.4432-.1601,.3978-.3305,.6937-.4457,.8922-.1218,.1922-.1858,.2934-.1858,.2934,0,0,.0499-.1121,.1383-.319,.0884-.212,.1973-.5239,.3062-.9306,.2318-.8102,.383-2.0015,.4906-3.4451,.1101-1.4443,.196-3.1537,.5341-4.979,.1756-.9108,.4048-1.8517,.7443-2.7752,.3394-.9249,.7775-1.8337,1.3053-2.6888,.5469-.8601,1.1464-1.6018,1.7869-2.3678,.6405-.7398,1.3488-1.4026,2.0636-2.0008,1.4551-1.1836,3.0282-1.9836,4.4116-2.4941,.3445-.1313,.6802-.2395,.9966-.3471,.324-.0929,.6289-.1832,.9133-.2638,.5764-.1544,1.0824-.2716,1.4987-.3574,.4163-.0961,.748-.1435,.9722-.1858,.2242-.0416,.3446-.0621,.3446-.0621Z"/>
    <path class="cls-1" d="M176.1151,48.815c4.2451,1.5404,8.0841,.319,8.0841,.319-4.6589,.3074-9.0141-2.0047-9.4739-6.1434-.4574-4.1382,2.7655-5.79,2.7655-5.79-6.0524-.4534-6.4919,4.0209-6.4919,4.0209-8.9845-1.4506-14.5246,6.2588-14.5246,6.2588,8.1609-4.1337,15.397-.2069,19.6408,1.3347Zm-3.3407-6.7749c-.0205-.1563-.0539-.383-.0372-.6552,.0026-.1365,.0256-.285,.0474-.4401,.0359-.1524,.0563-.3189,.1204-.4803,.0295-.0807,.0589-.1659,.0859-.2485,.0397-.0807,.0768-.1614,.1165-.244,.0705-.1685,.1832-.3171,.2754-.4746,.1089-.1499,.2293-.2908,.3459-.4304,.1281-.1256,.2562-.2472,.3855-.3612,.1371-.1038,.2729-.2012,.3997-.2908,.1294-.0852,.2651-.1492,.383-.2159,.1165-.0659,.2293-.1223,.333-.1562,.1038-.0385,.1922-.0724,.2665-.1006,.146-.0538,.2318-.0807,.2318-.0807,0,0-.0717,.0532-.2049,.1371-.0666,.0404-.1461,.0909-.2357,.1486-.0948,.0537-.1909,.1287-.2972,.2075-.1025,.0813-.219,.1588-.3369,.2523-.1114,.1012-.2267,.2062-.3509,.3107-.1128,.1139-.2268,.235-.3446,.3567-.1063,.1319-.214,.2652-.3126,.4042-.0871,.1453-.1985,.2786-.2651,.4335-.0385,.0756-.0756,.1493-.1153,.2217-.0321,.0768-.0641,.1511-.0936,.226-.0691,.1467-.105,.2992-.1562,.4375-.0321,.1447-.0782,.2799-.0961,.4092-.0512,.2569-.0756,.4753-.0833,.6303-.0089,.1543-.0063,.244-.0063,.244,0,0-.0308-.0833-.0551-.2408Zm-12.8249,3.2081c.123-.08,.2959-.2069,.5303-.3478,.2306-.1486,.5175-.3209,.848-.5078,.1691-.0917,.3497-.1864,.5393-.2883,.1947-.0915,.3971-.1921,.6136-.2863,.8659-.3842,1.9457-.7199,3.1447-.8288,.5969-.0454,1.2195-.0588,1.8458-.0051,.6366,.0673,1.2451,.139,1.8818,.2908,.6237,.1576,1.2322,.3779,1.8035,.6508,.57,.2728,1.0952,.602,1.5858,.9427,.9723,.6879,1.7754,1.436,2.4723,2.0502,.6981,.6155,1.3001,1.0958,1.7689,1.3661,.2332,.1371,.4228,.2319,.5586,.2895,.1345,.0551,.2075,.0845,.2075,.0845,0,0-.0756-.0166-.2191-.0512-.1409-.0397-.3509-.0999-.6046-.2113-.511-.2107-1.1887-.6309-1.9394-1.1952-.7544-.5559-1.5973-1.245-2.5593-1.8676-.4791-.3158-.9966-.5982-1.5333-.8512-.538-.2491-1.108-.4483-1.6934-.5879-.5726-.1429-1.2066-.23-1.7856-.294-.5944-.0519-1.1811-.0769-1.7511-.05-.5636,.0346-1.1093,.1089-1.6217,.2127-.5111,.1139-.9914,.2498-1.427,.3971-.4368,.1498-.8313,.308-1.1797,.4514-.3446,.1525-.6482,.2838-.8941,.3997-.4957,.2313-.7788,.3632-.7788,.3632,0,0,.0666-.0448,.187-.1262Z"/>
    <path class="cls-1" d="M237.0524,47.5097c-.0986-.3945-.2677-.8159-.5111-1.2239-.05,.032-.1,.0653-.1537,.0961-.0833,.0467-.1691,.0941-.2588,.1325-.0884,.0436-.1819,.0788-.2767,.1109-.0909,.0364-.1896,.0556-.2818,.0813-.0947,.0256-.1883,.0345-.2779,.0512-.0897,.0154-.1768,.0154-.2588,.0218-.0807,.0083-.1601,.0013-.2306,0-.0704-.0032-.1345,0-.1934-.0103-.0538-.0083-.1037-.0134-.1473-.0198-.0794-.0109-.1255-.0173-.1255-.0173,0,0,.0461-.0038,.1281-.0147,.0384-.0045,.0883-.0109,.1434-.0173,.0551-.0026,.1179-.0212,.1845-.0359,.0653-.0154,.1409-.0256,.2139-.0525,.0743-.0256,.1512-.0462,.228-.0782,.0769-.0365,.1589-.064,.2332-.1069,.0743-.0448,.1536-.08,.2267-.1326,.0717-.0474,.1434-.0961,.2075-.1524,.0679-.0487,.1255-.1083,.1844-.1627,.0526-.0512,.1-.1031,.1448-.1531-.6597-.8601-1.687-1.589-3.1498-1.7747-.0103,.0192-.0193,.0384-.0269,.0602-.0718,.1453-.1679,.3055-.2832,.4675-.0614,.0775-.1216,.1601-.1921,.2345-.0666,.08-.1435,.1511-.2178,.2216-.073,.0749-.1601,.1319-.2369,.1972-.082,.0627-.1704,.1127-.2485,.1652-.082,.0513-.1679,.0885-.2421,.1294-.0743,.0423-.155,.0673-.2242,.0961-.0705,.0256-.1332,.0576-.1921,.0705-.0589,.016-.1089,.0294-.1525,.0429-.0832,.0236-.1306,.0371-.1306,.0371,0,0,.0461-.0224,.123-.0608,.0371-.0192,.0845-.043,.1383-.0686,.0563-.0263,.1089-.0659,.1729-.1025,.0602-.0403,.1307-.0768,.1947-.1325,.0641-.0513,.1371-.1006,.2037-.1627,.064-.064,.1332-.1217,.1973-.1921,.0589-.0731,.1281-.1371,.178-.2165,.0564-.0769,.1115-.1512,.1576-.2332,.0486-.0768,.0884-.1575,.1255-.2344,.0589-.1268,.1063-.2485,.1409-.3599-.9966-.0359-2.1725,.164-3.5457,.7141,0,0,.7661-.9492-.1063-2.2884-.8723-1.3399-2.1763-1.322-2.1763-1.322,0,0,1.2463,1.6012,.6968,3.164-.4252,1.2169-2.2686,2.7796-5.4235,2.241,0,0,1.4039,.8807,4.7292,.6264,2.4877-.1909,9.2036-.5374,9.3919,3.0743,0,0,1.3707-.9172,.9198-2.7099Zm-8.6848-2.9001c.0141-.0384,.0358-.0857,.0589-.1408,.0179-.0539,.032-.1204,.0512-.1883,.0231-.0667,.0346-.1442,.0436-.2242,.0063-.0397,.0115-.0801,.0166-.123v-.1294c.0064-.0864-.0077-.1767-.0192-.269-.0038-.0909-.0358-.1831-.0551-.2741-.0269-.0884-.0537-.1799-.0884-.2664-.0371-.0846-.0678-.1717-.1114-.2498-.0371-.0814-.0781-.1556-.1191-.2267-.041-.0731-.0858-.1371-.1217-.1998-.0794-.1186-.1486-.221-.1985-.287-.0513-.0666-.0833-.105-.0833-.105,0,0,.0397,.0282,.1012,.0852,.064,.0588,.1524,.144,.2485,.2568,.0448,.0589,.0986,.1191,.146,.1902,.0487,.0685,.0987,.1428,.1434,.2267,.0462,.0788,.0871,.1666,.1281,.2569,.0359,.0897,.068,.1857,.0987,.2805,.0166,.0999,.0513,.1947,.0538,.2953,.0102,.0979,.0167,.1953,.0077,.2895-.0051,.048-.0064,.0935-.0102,.1389-.0078,.0449-.0193,.0878-.0296,.1307-.0076,.0423-.0179,.0813-.0268,.121-.0103,.0391-.0295,.0737-.0423,.1083-.0295,.0705-.0564,.1332-.0833,.1857-.0345,.0513-.0602,.0948-.0857,.13-.0475,.073-.0744,.1108-.0744,.1108,0,0,.0167-.0461,.0513-.123Zm1.76,1.0517c-.0628,.0333-.1268,.0538-.1871,.0782-.0589,.0243-.1152,.0397-.1703,.0538-.1076,.032-.1998,.0403-.2613,.0499-.064,.009-.1025,.0103-.1025,.0103,0,0,.0333-.0148,.0935-.0385,.0602-.0211,.1448-.0551,.2408-.1024,.05-.0205,.1012-.0449,.1576-.075,.0525-.0275,.1114-.0557,.1678-.0903,.114-.0679,.2344-.1415,.3471-.228,.1166-.0794,.2229-.1742,.3254-.2613,.0961-.0897,.1883-.1749,.26-.2536,.0782-.0776,.1396-.1441,.1794-.1909,.0422-.0506,.064-.0768,.064-.0768,0,0-.0115,.0345-.0397,.0915-.0321,.0558-.073,.139-.1371,.2287-.1217,.1844-.3253,.406-.5648,.5822-.059,.0442-.1218,.0826-.1858,.1223-.0589,.0397-.1281,.0679-.187,.0999Zm2.4927,.3894c-.0615,.0269-.1204,.0506-.1806,.0679-.059,.0179-.1127,.0365-.1665,.0449-.0525,.0102-.1,.0179-.1435,.0237-.0448,.0032-.0807,.0057-.1127,.0076-.0628,.0032-.0961,.0007-.0961,.0007,0,0,.0333-.0102,.0909-.0289,.0308-.0095,.0641-.0198,.1051-.0332,.0397-.0148,.0845-.034,.1306-.0507,.05-.0166,.0987-.0435,.1512-.0665,.0564-.0212,.1102-.0513,.1652-.0814,.059-.0276,.1141-.064,.1717-.098,.0576-.0301,.114-.073,.1691-.1089,.0576-.0371,.1101-.0781,.1665-.1159,.0512-.0436,.1063-.0813,.1563-.1223,.0999-.0807,.1921-.1589,.269-.2268,.0768-.0704,.1422-.1267,.1857-.1704,.0449-.0409,.0704-.0665,.0704-.0665,0,0-.064,.1281-.1946,.2946-.0653,.0839-.1486,.1755-.2447,.2665-.0961,.0934-.2075,.1812-.3254,.2625-.0602,.0384-.1204,.0788-.1818,.1108-.0628,.0346-.1243,.0647-.1858,.0903Zm1.1221,.2819c-.0692,.0358-.1434,.0576-.2101,.0857-.0678,.0282-.1383,.0404-.2023,.0602-.0641,.0186-.1256,.0244-.1845,.0347-.0576,.0063-.1089,.0179-.1576,.0179-.0473,0-.0883,.0025-.1229,.0038-.0654,0-.1038-.0013-.1038-.0013,0,0,.0359-.0108,.1-.0282,.0345-.0083,.0729-.0179,.1177-.0294,.0449-.0089,.0923-.0295,.1474-.0448,.0538-.018,.1114-.0321,.1716-.059,.0603-.0243,.1243-.0442,.1883-.0743,.0615-.032,.1281-.0589,.1922-.0934,.064-.0347,.1332-.0641,.1947-.107,.1255-.075,.2459-.164,.3548-.2505,.1089-.0871,.2049-.1754,.2857-.2548,.0794-.0795,.1434-.1493,.1869-.1999,.0423-.0518,.068-.0819,.068-.0819,0,0-.0154,.0364-.0449,.0966-.032,.0596-.0768,.1454-.146,.2389-.0333,.0475-.0743,.0961-.1178,.148-.0462,.048-.091,.1025-.1461,.1518-.1076,.0986-.2331,.1947-.3663,.2767-.0667,.0435-.1358,.0736-.205,.1102Zm2.0905,1.3232c.0295,.0089,.0615,.0281,.1051,.041,.0218,.0082,.0448,.0166,.0679,.0281,.0243,.0083,.0499,.0122,.0755,.0231,.0231,.0115,.0512,.0109,.0769,.0211,.0256,.0083,.0538,.0083,.082,.0148,.1063,.0134,.2152,0,.2984-.0295,.0833-.0256,.1435-.0557,.1435-.0557,0,0-.023,.0666-.1025,.1306-.0384,.032-.0909,.0641-.1549,.0814-.0641,.0211-.1333,.0243-.205,.0179-.0333-.0077-.0679-.0115-.0999-.0237-.0308-.0103-.0628-.0198-.0897-.0371-.0563-.0301-.1012-.0654-.1358-.0993-.0397-.0314-.0615-.0673-.0781-.089-.0179-.0237-.0256-.0385-.0256-.0385,0,0,.0179,.0045,.0422,.0148Zm.7494,1.1029c-.0269,0-.0563-.0039-.0884-.0122-.032-.0071-.0704-.0122-.1063-.0276-.0795-.0269-.1691-.0627-.255-.1178-.0448-.0269-.0947-.0493-.1318-.0845-.0423-.0327-.0859-.066-.1281-.1-.0449-.0333-.0846-.0697-.1204-.1101-.0359-.0372-.0731-.0775-.1064-.114-.0717-.0724-.1242-.1512-.1678-.2203-.0871-.1359-.1358-.2319-.1358-.2319,0,0,.0871,.0679,.1999,.1768,.0294,.0282,.0601,.0576,.0909,.0896,.0321,.0346,.0692,.0609,.1063,.0936,.0346,.0345,.0743,.0665,.1089,.1024,.0384,.0372,.0756,.0717,.1178,.1012,.0794,.0666,.1551,.1345,.237,.1883,.0385,.0275,.0756,.059,.1115,.082,.0384,.0231,.0755,.0461,.1075,.0679,.0321,.0218,.0641,.0358,.091,.0525,.0282,.0147,.0538,.0282,.0743,.0372,.041,.0198,.0666,.0294,.0666,.0294,0,0-.0256,.0051-.0717-.0025Z"/>
    <path class="cls-1" d="M52.8224,43.3818s-.31-.1357-.8749-.4194c-.5674-.2774-1.3783-.7276-2.3941-1.3226-2.0123-1.2022-4.8253-3.1051-7.5793-5.9994-.3318-.3714-.6687-.7506-1.0145-1.1381-.3293-.3977-.6469-.8191-.9799-1.2361-.3062-.4426-.6174-.8916-.9339-1.3488-.2613-.4733-.561-.9293-.8083-1.4309-.2382-.5065-.5046-1.0087-.6878-1.5518-.2229-.5271-.3702-1.085-.5278-1.6448-.2626-1.1297-.4175-2.307-.3599-3.4957,.0999-2.3736,1.076-4.7805,3.0179-6.2894,1.8522-1.5634,4.5115-2.1456,6.8044-1.2489,1.1554,.3945,2.2083,1.1048,3.0897,1.9797,.0973,.1024,.2485,.2305,.3048,.3118l.3254,.3831c.2408,.2607,.3881,.5021,.5546,.7442,.3344,.4829,.6021,1.0472,.8134,1.5993,.3959,1.1265,.4676,2.3383,.2229,3.4701-.1396,.561-.3459,1.1035-.6302,1.5967-.2998,.4816-.6418,.9408-1.0645,1.2956-.0973,.1032-.2177,.1691-.324,.2549l-.1666,.1198-.0205,.0167c.0051-.0019-.041,.0269,.0077-.0019l-.0512,.0288-.1025,.0589-.4061,.2344c-.1294,.0653-.2446,.1076-.3663,.1653-.4906,.2087-1.035,.3701-1.5679,.4137-1.076,.123-2.1533-.1486-3.0819-.6462-.9236-.5259-1.6909-1.2362-2.2366-2.1238-.4368-.7693-.6533-1.7927-.31-2.5786,.064-.2069,.1832-.3824,.2946-.563,.0077-.014,.0397-.0634,.0282-.0499l.0602-.0705,.1217-.1396c.0781-.0897,.1434-.1345,.2139-.2076,.3113-.2677,.6905-.4303,1.0798-.5021,.7827-.1466,1.5987,.1486,2.1201,.661l.0973,.0974c.0115,.0051,.0589,.0691,.0858,.1012,.0615,.0781,.1358,.1601,.1691,.2293,.0909,.1351,.1716,.2946,.2254,.4521,.1089,.3216,.1218,.6584,.0487,.9691-.1396,.6199-.5905,1.1374-1.1068,1.2636-.497,.1051-1.0285-.0961-1.3654-.3561-.3561-.2593-.5623-.5995-.6341-.8966-.0858-.2998-.0282-.5432,.009-.6994,.0563-.1538,.0845-.2332,.0845-.2332,0,0-.0358,.0769-.105,.2254-.0499,.1525-.1319,.399-.0717,.7238,.0473,.3228,.2369,.7083,.5994,1.0241,.3523,.3145,.8826,.6014,1.5615,.5066,.6469-.1236,1.2221-.7006,1.4462-1.4474,.1153-.3747,.1281-.8058,.0154-1.2221-.0551-.2075-.1371-.4073-.255-.6097-.055-.1108-.1126-.18-.1716-.2651-.0359-.0474-.0448-.0711-.1012-.1396l-.1127-.1256c-.6059-.6738-1.5871-1.1247-2.6426-1.003-.5239,.0551-1.0529,.26-1.4949,.6027-.1076,.0935-.2369,.1966-.324,.2869l-.1256,.1358-.0641,.0673c-.0524,.0576-.0499,.066-.0768,.1012-.1665,.2312-.3331,.4675-.4381,.7436-.1396,.2606-.178,.5546-.2549,.8421-.0141,.2947-.0679,.597-.0153,.8935,.0294,.6027,.2523,1.174,.5354,1.753,.5572,1.003,1.4577,1.9125,2.5312,2.5619,1.0849,.6373,2.4081,1.0254,3.7685,.9197,.6828-.0371,1.3412-.2062,1.9957-.4726,.1614-.0711,.3382-.1416,.4868-.214l.4124-.2267,.1025-.057,.0525-.0288c.0666-.0384,.0333-.0205,.0551-.034l.0269-.0185,.2204-.1524c.1421-.1064,.2984-.198,.4265-.3209,.5559-.4516,1.0004-1.0178,1.3873-1.616,.3702-.6142,.6443-1.2848,.83-1.9835,.3471-1.4033,.2716-2.9276-.2126-4.3072-.2562-.6879-.5585-1.3393-.9812-1.9605-.2101-.3126-.424-.6347-.6405-.8704l-.3228-.3856c-.1486-.1851-.26-.2709-.3932-.4118-1.0159-1.0215-2.2481-1.8733-3.6482-2.3627-.6904-.2651-1.4308-.3932-2.1673-.4752-.743-.0321-1.4962-.027-2.2199,.1422-1.4616,.2773-2.8002,.9824-3.912,1.9009l-.3792,.3215-.0935,.082-.0487,.0403-.0487,.0455-.0243,.0243-.1909,.1973-.3779,.3984-.3279,.4278c-.4394,.5739-.7737,1.2054-1.0619,1.8446-.5623,1.2899-.8275,2.6631-.8621,4.0023-.0359,1.3431,.1524,2.6515,.4906,3.8807,.1909,.6072,.3753,1.2092,.6341,1.7709,.2191,.5809,.5214,1.1099,.7955,1.6441,.2844,.5284,.6289,1.0241,.9325,1.523,.3459,.4586,.6495,.8864,1.0133,1.3476,.3676,.4201,.7173,.839,1.0772,1.2361,.374,.383,.7429,.7583,1.1029,1.1259,1.4757,1.4353,2.9846,2.5651,4.3668,3.4784,1.3847,.9172,2.6451,1.6198,3.7019,2.1584,1.0542,.5438,1.9163,.8999,2.5043,1.1369,.5892,.2325,.9094,.3413,.9094,.3413Z"/>
    <path class="cls-1" d="M83.7087,16.9629s-.2165-.1153-.6213-.3305c-.4073-.2113-1.0209-.5072-1.8279-.8133-.8057-.3139-1.819-.6162-3.0089-.8493-1.1901-.2325-2.5594-.3561-4.0427-.3939-1.4821-.0275-3.0781,.0269-4.728-.0077-1.6499-.0237-3.3587-.2158-5.0354-.7244-.839-.2581-1.6704-.5828-2.4543-1.0043-.7673-.4163-1.4898-.9504-2.079-1.5935-.5918-.6417-1.067-1.3943-1.3527-2.2211-.2843-.8288-.3868-1.7216-.2856-2.594,.0973-.8684,.3971-1.7234,.8774-2.412,.5124-.7474,1.149-1.3872,1.874-1.8816,.7238-.4919,1.5411-.8173,2.3788-.9198,.8377-.1063,1.6908,.0064,2.4914,.2767,.4035,.1345,.7865,.3036,1.1669,.5104,.3383,.1883,.6815,.4362,.962,.7039,.5701,.5381,.9467,1.2297,1.0402,1.9535,.1012,.725-.0897,1.459-.4637,2.0649-.1896,.3017-.4176,.5815-.6777,.8133-.2356,.2101-.5444,.385-.8518,.5144-.6212,.2619-1.295,.3529-1.906,.2856-.3061-.0365-.6008-.1069-.8634-.2286-.2754-.1294-.5149-.278-.7186-.4547-.415-.3536-.6302-.8372-.6033-1.2964,.0256-.4624,.2255-.8749,.5444-1.0907,.3189-.2229,.6981-.2786,1.003-.23,.3099,.05,.5418,.2153,.6802,.3882,.2715,.36,.2574,.6392,.2728,.6283-.0179,.0077,.0333-.2607-.2101-.6744-.1255-.1973-.3612-.4125-.7045-.5079-.3395-.0961-.7801-.0762-1.1926,.1582-.2011,.1134-.4009,.2997-.529,.5219-.1319,.2351-.2139,.4919-.2421,.7782-.0653,.5733,.1896,1.2234,.6738,1.6588,.2357,.2249,.5188,.4113,.8108,.5624,.3049,.164,.6443,.2677,.9979,.3292,.7109,.1204,1.4795,.0641,2.2288-.1985,.3767-.1332,.7391-.3138,1.0901-.5944,.3202-.2632,.6059-.5751,.8557-.9325,.4906-.7116,.7916-1.6352,.7084-2.5888-.0679-.9582-.5483-1.8818-1.2323-2.5773-.3472-.3523-.7225-.6469-1.1618-.9101-.4023-.2389-.8454-.4579-1.3053-.6296-.9185-.3497-1.9586-.5316-2.9974-.4163-1.0414,.1024-2.056,.4855-2.9347,1.0542-.88,.5688-1.6473,1.3168-2.2558,2.1623-.6443,.9043-1.0055,1.9547-1.1375,3.0256-.1318,1.0695-.0127,2.1667,.3293,3.185,.3432,1.0178,.9171,1.9477,1.628,2.7176,.7187,.7724,1.5602,1.3802,2.4518,1.8586,.8813,.467,1.7997,.8096,2.7156,1.0805,1.842,.5438,3.7045,.6533,5.4082,.6334,1.7126-.0269,3.2907-.187,4.7421-.2279,1.4487-.0711,2.7719-.0379,3.9402,.0857,1.1681,.1128,2.1763,.3254,2.9987,.5342,.8223,.2159,1.4577,.4253,1.8919,.5751,.4317,.1576,.661,.2434,.661,.2434Z"/>
    <g>
      <path class="cls-1" d="M126.8075,42.6088s-3.7699-3.7513,.0282-6.5546c3.7685,2.8379-.0282,6.5546-.0282,6.5546Z"/>
      <path class="cls-1" d="M128.5611,36.3443c.0064-.9536-.766-1.7312-1.719-1.735-.9556-.0045-1.7319,.7647-1.737,1.719-.0038,.9556,.7686,1.7306,1.7216,1.7357,.9543,.0052,1.7306-.7647,1.7344-1.7197Z"/>
      <path class="cls-1" d="M126.8421,34.6093s1.6127-.6905,2.4031,.8928c.5264,1.053,.4701,2.3288,2.3979,2.5863,0,0-2.7054,.8889-4.1542-1.2785-.3163-.4771-.6378-1.261-.6468-2.2006Z"/>
      <path class="cls-1" d="M126.8421,34.6093s-1.6076-.7084-2.412,.8704c-.5368,1.0497-.4919,2.3243-2.4185,2.5625,0,0,2.6964,.9159,4.1631-1.2386,.3228-.474,.652-1.2554,.6674-2.1943Z"/>
    </g>
    <path class="cls-1" d="M122.9813,35.3574s-.3484,.3541-1.0722,.93c-.7224,.5776-1.8291,1.3667-3.333,2.198-1.5025,.8301-3.4226,1.6653-5.7181,2.2558-2.2981,.5918-4.9714,.8531-7.8676,.6097-2.8693-.2421-5.9167-1.1144-8.8117-2.6733-1.4526-.7775-2.8706-1.7197-4.263-2.7797-1.3923-1.06-2.7694-2.2225-4.1861-3.4182-1.4168-1.197-2.868-2.4357-4.4423-3.6007-1.5731-1.1612-3.2754-2.266-5.17-3.0814-1.8855-.8249-3.9465-1.359-6.0384-1.5204-.57-.0321-.9773-.0641-1.555-.0558-.5483-.0083-1.0645,.0263-1.5961,.0673-1.0542,.0922-2.1123,.2869-3.1422,.6014-2.0623,.6168-3.9939,1.7799-5.5004,3.3465-1.5127,1.5595-2.5875,3.5226-3.0858,5.6176-.2549,1.0465-.3548,2.1321-.292,3.2158,.0205,.2716,.0448,.5425,.0858,.8128,.032,.2267,.0807,.4912,.1319,.7589,.1051,.5111,.2345,1.0094,.3882,1.5026,.6161,1.963,1.6562,3.8069,3.1191,5.248,1.459,1.4385,3.3241,2.4248,5.2237,2.8194,.9479,.2075,1.8984,.2971,2.8257,.2997,.9159,.0103,1.8907-.0877,2.7887-.3292,1.8113-.4663,3.4983-1.5794,4.4257-3.1562,.9504-1.5628,1.1272-3.408,.7801-4.981-.0833-.4067-.1909-.7558-.3434-1.1676-.1165-.3042-.3317-.7493-.5431-1.0548-.424-.6584-.9479-1.2061-1.5127-1.6608-1.1299-.9088-2.4467-1.4731-3.7532-1.5781-1.2541-.0749-2.5748,.1588-3.4701,.9332-.4432,.3798-.7712,.8601-.9415,1.3635-.1691,.5022-.2345,1.0024-.1627,1.4815,.1729,.9959,.8582,1.6287,1.4987,1.9284,.6597,.3016,1.3181,.2562,1.7588,.0653,.4483-.1915,.6993-.4714,.8492-.6571,.0769-.0948,.1255-.1717,.1576-.2229,.0346-.0512,.0512-.0768,.0512-.0768,0,0-.0205,.023-.0589,.0704-.0372,.0493-.0948,.1192-.1793,.2024-.1666,.1653-.442,.4067-.8724,.5361-.4227,.1313-1.0068,.1018-1.5486-.2235-.5316-.3075-1.0491-.9287-1.1017-1.6781-.0461-.7711,.2537-1.6845,.9954-2.2404,.3612-.2856,.8223-.4733,1.3257-.5758,.2588-.0531,.5035-.0762,.7763-.0915,.1409,0,.2818-.0014,.4253-.0026,.1357,.0128,.2702,.0256,.4086,.0371,1.0939,.1512,2.2109,.7072,3.1383,1.55,.9312,.8403,1.6588,1.9772,1.8267,3.3035,.2228,1.3271-.0103,2.7682-.7943,3.9198-.7737,1.1554-2.0623,1.9765-3.5495,2.3044-.7531,.1684-1.5102,.2267-2.3377,.1863-.816-.0313-1.6293-.1402-2.4197-.3451-1.5781-.4036-3.0512-1.2099-4.2105-2.4076-1.1618-1.1951-2.0034-2.747-2.4914-4.4321-.1217-.4214-.2229-.8512-.301-1.2841-.0359-.2037-.0705-.4138-.1012-.6636-.0257-.2068-.0449-.4176-.0577-.627-.0435-.8422,.0397-1.7094,.2511-2.5529,.415-1.6915,1.304-3.2927,2.5452-4.5519,1.2349-1.2707,2.8143-2.1917,4.5371-2.7239,.8596-.2703,1.7588-.4426,2.6721-.5284,.4535-.0384,.9236-.0724,1.363-.0679,.4099-.0166,.9863,.0192,1.4013,.0391,1.842,.1294,3.6366,.5783,5.3249,1.3033,3.3933,1.4411,6.3317,3.8506,9.2062,6.1825,2.8616,2.3525,5.8066,4.598,8.9666,6.1479,3.146,1.5782,6.4663,2.3237,9.5162,2.4377,3.0333,.1326,5.8322-.3311,8.1673-1.0702,2.3455-.7353,4.2412-1.7517,5.7105-2.6919,1.4718-.946,2.5081-1.851,3.187-2.4844,.6789-.6386,.9953-1.019,.9953-1.019Z"/>
    <path class="cls-1" d="M55.2742,35.3407c0-3.4938,2.7258-9.4681,10.4243-11.6899,7.1798-2.0713,14.1968-.4958,21.105,6.3355,5.394,5.3326,11.2582,7.6102,11.2582,7.6102-5.2019-2.7131-6.6212-9.196-11.4299-14.508-.0551,.0851-.1088,.169-.1511,.2651-.0705,.146-.1435,.2959-.2178,.4464-.0845,.1505-.1333,.3158-.1921,.4797-.0564,.1678-.1153,.3337-.173,.4983-.0538,.1665-.073,.3356-.1101,.5002-.0346,.1659-.0666,.3254-.0961,.4784-.0423,.1525-.0333,.2998-.0435,.4356-.0282,.554-.0475,.9222-.0475,.9222,0,0-.0973-.3611-.2433-.9018-.0334-.1383-.0897-.2881-.0987-.4495-.0204-.1628-.0397-.335-.0602-.5137-.0153-.1781-.0525-.3689-.0538-.5592,.0039-.1927,.0077-.3874,.0116-.5809,.0051-.1985,.0012-.3983,.0371-.5892,.0282-.196,.0551-.3855,.0807-.5726,.0205-.1902,.0807-.3618,.1166-.5329,.0448-.1614,.0743-.3196,.1268-.4598-2.0739-1.8798-5.0508-3.4714-8.3915-4.4103-.0807,.1896-.1614,.3939-.2319,.6226-.1012,.3125-.1806,.6519-.2344,1.0004-.0153,.1735-.0512,.3528-.05,.5239-.0051,.1742-.0166,.3484,.0026,.5143,.009,.1671,.0205,.3324,.0525,.4841,.0295,.1519,.0461,.3024,.0948,.4311,.0398,.1332,.0782,.2555,.1102,.3625,.0474,.1044,.0884,.1941,.1217,.269,.0691,.1518,.1076,.2376,.1076,.2376,0,0-.064-.0711-.1742-.194-.0577-.0628-.1255-.1397-.2037-.2267-.0679-.0974-.1435-.2076-.2267-.3274-.0909-.1204-.1576-.2632-.2383-.4157-.0858-.1485-.1524-.315-.219-.4924-.0769-.1736-.1255-.3626-.1794-.5541-.064-.1934-.0871-.3919-.1293-.5931-.0653-.4015-.0974-.812-.0961-1.1976-.0026-.2902,.0179-.5572,.0397-.8077-4.1746-.9069-8.7732-.7628-12.8415,1.0792,.1576,.4817,.4009,1.0465,.7468,1.5717,.1025,.1672,.219,.3229,.3382,.4753,.1127,.1588,.2485,.292,.374,.433,.123,.1454,.2639,.2574,.392,.3772,.1255,.1223,.2574,.221,.3817,.3094,.2421,.1934,.4663,.324,.6251,.415,.1589,.0941,.2498,.1479,.2498,.1479,0,0-.1038-.0192-.2831-.0538-.1832-.032-.4483-.0813-.7557-.1838-.1576-.0435-.328-.0974-.4984-.1729-.1729-.073-.3651-.141-.5456-.2434-.1832-.0973-.3805-.1915-.5637-.317-.1882-.116-.3791-.2402-.5559-.3824-.6123-.456-1.1388-1.0139-1.5359-1.5256-.1345,.0801-.2728,.155-.4048,.2382-3.3406,2.1174-4.9892,4.7703-5.7386,7.3059,.0602-.0031,.1204-.0064,.1806-.0064,.1512-.0064,.3049-.0064,.4535-.0403,.1499-.0256,.2984-.0506,.4419-.0756,.1435-.0269,.2882-.0442,.4189-.0788,.1307-.0391,.2523-.0762,.3663-.1107,.4638-.1435,.7725-.2371,.7725-.2371,0,0-.2575,.1986-.6431,.4983-.0986,.0743-.2049,.1576-.3177,.2453-.1165,.0814-.2497,.1493-.3842,.2319-.1358,.08-.2767,.1633-.4215,.2472-.1409,.0929-.2997,.1557-.4586,.2223-.1627,.0679-.3241,.1344-.4829,.2011-.0679,.0282-.1409,.0486-.2126,.0685-.7942,4.0562,.5047,7.5198,.5047,7.5198Zm26.1749-13.2591c.0103-.1473,.0269-.2652,.0525-.3504,.0218-.0813,.0436-.1261,.0436-.1261,0,0,.0743,.1845,.1665,.4355,.0589,.1268,.0986,.2742,.1639,.4266,.0616,.1537,.1128,.3202,.1871,.4803,.0538,.1678,.123,.3273,.1844,.4836,.0577,.1556,.1038,.3068,.1563,.4316,.0973,.2569,.1306,.4567,.1306,.4567,0,0-.1614-.1089-.3586-.3177-.1076-.1005-.2037-.235-.2947-.3894-.1024-.1473-.1857-.3189-.2536-.4989-.0692-.1787-.1191-.3632-.146-.5425-.0371-.1748-.0333-.3478-.032-.4893Zm-1.5064-.7314c-.0141-.1294,.0103-.2536,.0282-.3728,.0179-.1178,.0307-.2274,.0615-.3279,.0307-.0986,.064-.1883,.0934-.2652,.0231-.0781,.0705-.1434,.0949-.1947,.0551-.1063,.1012-.1562,.1012-.1562,0,0-.0103,.0685-.0141,.1857-.0141,.1115-.0051,.2773-.0116,.4669-.0025,.0948,.018,.1985,.0192,.3055,.0065,.1063,.0116,.2203,.0346,.3356,.0192,.1147,.0436,.2306,.0564,.3523,.0154,.1204,.064,.237,.0961,.3554,.032,.1198,.0538,.2428,.0934,.3568,.0539,.1114,.0923,.2261,.1371,.335,.0449,.1095,.0794,.2184,.1166,.3215,.0436,.0992,.0987,.1889,.1383,.2773,.1756,.3433,.2665,.6078,.2665,.6078,0,0-.2114-.162-.4893-.4637-.0692-.0749-.1525-.1518-.2178-.2478-.0602-.1012-.1255-.2063-.1858-.3203-.0602-.114-.1293-.2293-.1857-.3509-.0512-.1262-.0832-.262-.123-.3946-.0294-.1358-.0781-.269-.0896-.4048-.0141-.1357-.0141-.2722-.0205-.4009Zm-8.7207-.652c-.1166-.1108-.2126-.237-.3138-.3581-.0974-.121-.1743-.2555-.2537-.3798-.1473-.258-.2587-.5104-.3254-.7352-.1473-.4471-.1395-.7654-.1395-.7654,0,0,.1447,.2773,.3817,.6546,.1165,.1902,.2626,.4016,.424,.62,.1691,.2126,.3471,.44,.5546,.6334,.0974,.105,.2024,.2024,.3125,.2882,.1077,.0941,.2165,.1749,.3267,.2523,.1063,.0833,.2191,.1448,.3254,.2114,.105,.0685,.21,.123,.3099,.1691,.0987,.0474,.1871,.1025,.2703,.1371,.0859,.0333,.1602,.0653,.2204,.0903,.1229,.057,.1934,.089,.1934,.089,0,0-.0756,.0038-.2126,.0019-.1371,0-.3331-.0057-.5624-.0659-.1166-.0218-.2433-.0513-.3676-.1077-.1268-.0486-.2652-.0947-.392-.1767-.2651-.139-.5265-.3337-.7519-.5585Zm-3.1294-2.2385s.0244,.0737,.082,.1838c.023,.0577,.0602,.1217,.105,.1947,.0474,.073,.0859,.1582,.1486,.2421,.0628,.0833,.1294,.173,.1948,.269,.0614,.0987,.1639,.1794,.2408,.2806,.0871,.0909,.1601,.2011,.2651,.2856,.0987,.0922,.1986,.1851,.2985,.2786,.0935,.1006,.1947,.1928,.3074,.269,.1102,.0788,.2114,.1691,.3126,.2505,.1037,.0768,.1908,.1729,.2933,.2395,.0986,.0653,.1921,.1326,.278,.1954,.3433,.2491,.561,.4566,.561,.4566,0,0-.2831-.064-.693-.2248-.1025-.0378-.2151-.0813-.3304-.1326-.1179-.0474-.2255-.1249-.3434-.1973-.1152-.0755-.2382-.1485-.3573-.2344-.123-.0781-.2358-.1716-.3421-.2792-.105-.1057-.21-.2101-.3138-.3151-.1114-.0942-.1755-.2332-.2613-.3446-.0782-.1166-.1614-.2242-.2114-.3459-.0537-.1178-.0986-.2305-.1396-.3356-.0435-.1031-.0538-.2107-.0743-.2971-.023-.0885-.0294-.1691-.0281-.2358-.0077-.1313,.0076-.203,.0076-.203Zm-9.1383,4.835s.0564,.0038,.155,.0122c.0961,.0108,.2344,.0249,.401,.0416,.1627,.023,.3561,.0332,.5559,.0653,.1012,.0103,.2075,.0205,.3126,.032,.1063,.009,.2138,.032,.3215,.032,.2152,.0128,.4316,.05,.6315,.0513,.2024,.0038,.3945,.032,.5559,.0314,.3267,.0006,.5572,.025,.5572,.025,0,0-.2062,.0832-.5379,.1748-.1666,.0468-.3638,.0557-.5752,.0769-.214,.0269-.4381-.0051-.6648-.0116-.4509-.0467-.8903-.1569-1.2067-.2837-.3138-.123-.506-.2472-.506-.2472Z"/>
    <path class="cls-1" d="M96.8371,27.3796c.5611,7.3322,8.9449,11.5426,15.7852,11.1218,6.1652-.381,13.6946-5.3204,12.8863-14.5957-.7135-8.1699-5.0713-9.5495-6.1217-9.7961-1.0362-.2465-2.2083-.2517-3.2177,.292-.497,.2672-.9312,.6783-1.2002,1.1792-.2742,.4906-.3817,1.0709-.3689,1.5679-.0077,1.0734,.5303,2.0981,1.3475,2.6349,.7993,.5451,1.7793,.6943,2.5888,.4342,.1998-.0666,.3894-.1588,.5598-.2703l.1319-.0935,.1038-.0896c.0846-.0795,.1499-.155,.2075-.2383,.237-.3241,.3215-.7006,.3151-1.0382-.0077-.6846-.365-1.2073-.725-1.4865-.3638-.2895-.7225-.376-.9543-.4189-.2344-.041-.3612-.041-.3612-.041,0,0,.1268,.0198,.3483,.0922,.2191,.0756,.5432,.2139,.8429,.5073,.2998,.2857,.547,.7776,.4919,1.3334-.0282,.2742-.1306,.554-.3164,.7756-.0461,.0558-.0999,.1058-.1486,.1442l-.1024,.0768c-.018,.0064-.0641,.0365-.0935,.0538-.1384,.0756-.2895,.1346-.4497,.1729-.643,.1525-1.4333-.0019-2.0354-.4745-.6135-.4516-.9901-1.2355-.9607-2.054,.0102-.442,.091-.8346,.2933-1.1939,.196-.3542,.5047-.6437,.8826-.8403,.757-.3932,1.7268-.4445,2.6337-.2293,.912,.2127,4.4948,1.3796,5.5247,7.2137,.3151,1.7882,.0781,4.5576-.9479,5.9109-1.3143,1.7357-2.4543,1.7017-3.2613,2.754-.807,1.0518-.7711,2.4198-2.7361,2.6312-1.9637,.21-3.123-.6662-3.1921-1.7889,0,0-1.7191,.8403-.9121,3.1915,0,0-3.9645,.3151-5.5081-1.965-1.5435-2.2788-.1396-3.9287,1.0184-4.0004,0,0-3.1576-1.6114-4.8407,1.2304,0,0-1.6141-1.6506-1.86-4.6313-.2459-2.9821,2.5619-3.4035,4.3143-2.5254,0,0-.702-2.4217-3.1921-2.2449,0,0,.6315-2.8078,4.3155-2.3864,3.4444,.3939,4.9367,3.105,4.4205,4.6653-.3522,1.0593-1.0273,3.4956,1.2272,3.4034,2.3415-.0973,3.0512-6.3061-3.684-8.8744-6.7878-2.5875-13.5794,2.9565-13.0491,9.8902Zm17.8898,6.5264s.0473,.0603,.1409,.1429c.0423,.0454,.0973,.0941,.1678,.1479,.0704,.05,.1383,.1153,.2254,.1729,.0897,.0539,.1871,.1121,.2831,.1774,.0909,.0724,.2203,.1044,.3305,.1672,.1191,.0513,.2293,.1236,.36,.1602,.128,.0422,.2587,.0858,.3893,.1293,.1269,.05,.2575,.0967,.3946,.1141,.1345,.0243,.2638,.0602,.392,.0883,.1281,.0243,.2497,.0743,.3701,.0858,.1205,.0141,.2332,.0314,.3395,.0475,.4215,.0653,.7109,.1447,.7109,.1447,0,0-.2843,.0615-.725,.0967-.1102,.0096-.2293,.0198-.3561,.025-.1268,.0076-.26-.0186-.3971-.0334-.1383-.0185-.2818-.032-.4265-.0588-.1461-.0155-.2895-.0577-.4305-.1089-.1408-.0539-.2805-.1051-.4201-.1563-.1409-.0449-.2575-.1454-.3817-.2126-.1179-.0782-.2408-.1359-.3318-.2345-.0973-.0871-.1844-.1754-.2638-.2543-.0769-.08-.1307-.1728-.1845-.2453-.0538-.0704-.0884-.1459-.1153-.2062-.0577-.1172-.0717-.1896-.0717-.1896Zm-9.8198-1.263c.0026-.1204,.0077-.2383,.0308-.356,.0192-.1153,.0345-.2287,.0576-.3383,.0346-.1075,.0679-.2138,.0999-.3163,.0615-.2005,.1575-.3817,.2434-.5419,.091-.162,.1845-.301,.2805-.4157,.0872-.1184,.1832-.2055,.2562-.2798,.155-.1454,.2574-.2075,.2574-.2075,0,0-.2651,.4034-.4623,1.0452-.0449,.1608-.091,.3356-.1217,.5214-.0141,.0928-.0282,.1883-.0423,.2856-.0013,.0999-.0103,.1985-.0166,.2991-.0218,.2018,.0179,.4118,.0204,.6232,.0423,.2081,.0436,.4265,.1192,.6334,.0551,.212,.0973,.4259,.1883,.627,.082,.1986,.1371,.4087,.2408,.5919,.0987,.1837,.1652,.3804,.2652,.5475,.0999,.1665,.187,.3312,.2689,.4836,.1627,.3042,.3344,.538,.4317,.7225,.1051,.1767,.1602,.2843,.1602,.2843,0,0-.0949-.0704-.2537-.2037-.1524-.1383-.3984-.3157-.6302-.5892-.1179-.1357-.246-.2825-.374-.4432-.1333-.1601-.2409-.3529-.3613-.5457-.1255-.1896-.2267-.4054-.3164-.6289-.105-.2178-.1665-.4599-.2344-.6981-.0743-.237-.0743-.4932-.1115-.734-.0089-.1217,0-.2453,.0039-.3664Zm-6.0883-5.7527c.0089-.0909,.0179-.1883,.0268-.2882,.0193-.2012,.0424-.4215,.0744-.6521,.0537-.2267,.1088-.4688,.178-.7159,.0692-.2466,.1781-.4919,.2818-.7424,.1076-.2504,.2626-.4836,.3945-.7269,.1679-.2203,.3279-.4516,.515-.6501,.1883-.1992,.3817-.3875,.5918-.5438,.196-.1704,.4189-.2908,.6199-.4137,.2102-.1102,.4099-.2114,.6047-.2767,.1908-.0768,.3727-.1255,.5341-.1639,.1615-.0391,.3049-.0564,.4215-.0731,.2356-.0243,.3702-.0154,.3702-.0154,0,0-.5137,.1717-1.167,.5765-.1665,.0954-.3305,.2248-.5085,.3459-.1678,.1383-.3484,.2766-.5163,.4444-.1793,.1505-.3266,.3446-.4944,.5214-.1614,.1845-.2985,.3945-.4432,.5956-.123,.2177-.2703,.4214-.374,.6456-.0948,.23-.228,.4381-.3074,.6635-.0769,.223-.164,.4388-.2447,.6443-.0551,.2127-.1153,.4151-.173,.6008-.0602,.1857-.1089,.3587-.1383,.5163-.0371,.1562-.0692,.292-.0961,.4047-.0576,.2255-.0973,.3549-.0973,.3549,0,0-.0141-.132-.0282-.3651-.0051-.1179-.0115-.2613-.0179-.424-.0026-.0826-.0039-.1704-.0064-.2626Z"/>
    <path class="cls-1" d="M31.9007,33.8202c-.237-.055-.4765-.1166-.7212-.2011-.684-.2267-1.395-.5533-2.0328-1.0632-.6367-.5021-1.1977-1.2008-1.4898-2.0393-.0679-.2177-.123-.4099-.1614-.6603-.0282-.1748-.0525-.4515-.0282-.6872,.0384-.4753,.2088-.9549,.497-1.338,.5893-.7807,1.5039-1.1458,2.348-1.2783l.1602-.0237c.0986-.0103,.1114-.0097,.1728-.0129,.1025-.0038,.1883-.0192,.3075-.0166l.3535,.0192,.3369,.0596c.4419,.1069,.871,.3273,1.1862,.6578,.6251,.6507,.8659,1.6377,.4189,2.4274-.2754,.4047-.5995,.5809-.9467,.7339-.3446,.1371-.716,.1883-1.067,.132-.3497-.0532-.6674-.2197-.8915-.4381-.2178-.2267-.3779-.4663-.4433-.7641-.1165-.5893,.246-1.0318,.5483-1.2252,.3164-.2108,.6238-.2325,.8147-.2191,.1934,.0116,.2869,.059,.2882,.0519,0,.0071-.1025-.025-.2882-.0064-.1845,.0135-.4586,.0929-.7161,.3068-.2511,.2056-.4765,.6097-.3368,1.0113,.1332,.3811,.5827,.7743,1.0811,.7948,.2536,.018,.529-.0442,.7813-.1703,.2447-.1172,.5137-.3318,.6162-.5162,.2421-.4503,.0512-1.176-.3869-1.5859-.2203-.2133-.5111-.3497-.83-.4137l-.2447-.0359-.237-.0051c-.0781-.0071-.1908,.0103-.2856,.0166-.0372,.0046-.123,.0077-.1255,.0103l-.1345,.0244c-.7148,.1152-1.3988,.4419-1.8024,.9709-.2036,.26-.3164,.5745-.3497,.9024-.0192,.1659-.014,.2921,.0167,.5169,.0192,.1447,.0692,.3407,.1192,.5047,.2113,.6814,.6456,1.2758,1.1822,1.7338,.9441,.8101,2.1085,1.2316,3.1589,1.4775,6.8812-2.3543,13.9162,3.5687,21.06,9.2632,7.1606,5.7073,15.2075,7.2598,15.2075,7.2598-4.6652,.7058-13.2847-3.7993-16.9303-2.9462-3.6469,.8531-1.7806,3.5123-1.7806,3.5123,0,0-3.087-1.0746-3.4111-4.3142-.3267-3.2382,1.6512-3.4009,1.6512-3.4009-1.1529-1.1817-4.3425-3.0499-6.5393-2.3864-2.1955,.6667-1.7831,3.8461-1.7831,3.8461-4.728-4.9042,.2088-7.9234,.2088-7.9234,0,0-2.3736-2.5452-7.76-.7999-5.3864,1.7434-3.88,7.4929-1.3757,8.834,2.5042,1.3386,4.4001-.8057,2.9628-1.7164-.4368-.278-1.0529-1.2541-.3138-2.0892,.6212-.7033,1.4616-.6277,2.316,.2721,.8415,.8833,1.8881,3.0148-.2076,4.6525-2.5593,1.9989-5.8975,.1582-7.4064-2.1078-1.7626-2.644-1.5064-7.4705,3.2331-9.6072Z"/>
    <path class="cls-1" d="M46.9032,6.7S42.6133,4.963,43.191,.0096l-.0039-.0038h.0039c.0013-.0027,.0013-.0033,.0013-.0058l.0051,.0058c4.9855-.0027,6.2152,4.4602,6.2152,4.4602,1.3974-6.1056,6.1882-3.889,6.1882-3.889-5.6451,2.2148-2.9423,9.8242-2.7989,10.2169l.0129,.0134s-.0065-.0032-.009-.0045c0,.0026,.0039,.0103,.0039,.0103l-.0129-.0141c-.374-.1883-7.6191-3.7544-10.4718,1.5993,0,0-1.6485-5.0156,4.5782-5.6983Z"/>
    <path class="cls-1" d="M33.9015,33.4929s-.1447,.0634-.4163,.1825c-.2728,.1211-.6737,.2909-1.1836,.506-.4995,.2396-1.1208,.4778-1.8061,.8193-.6943,.3214-1.468,.6961-2.2865,1.1477-.83,.4265-1.6832,.9651-2.567,1.548-.8852,.5841-1.7498,1.2899-2.6375,2.0405-.8877,.7513-1.76,1.6076-2.7323,2.4108l-.365,.3049-.3856,.2984c-.2318,.1921-.5342,.3817-.8147,.5713-.5764,.3503-1.1772,.6648-1.8369,.8788-1.3001,.4354-2.8744,.4271-4.1131-.3293-.3164-.178-.579-.3977-.8531-.6609l-.1588-.1704-.1781-.2133c-.1063-.1377-.2063-.2812-.2972-.431-.3651-.5982-.5585-1.2963-.5597-1.9733-.0078-1.3674,.6853-2.6003,1.6587-3.317,.9749-.7187,2.2341-.9146,3.2383-.5598,.5034,.1813,.9236,.5092,1.2157,.8826,.1422,.187,.2715,.3817,.356,.5969,.091,.2293,.1256,.4509,.123,.6719-.0051,.44-.1781,.821-.3958,1.1054-.2177,.2888-.497,.4835-.7698,.5963-.5675,.2267-1.053,.041-1.2925-.1179-.1294-.0801-.2152-.1556-.269-.2094-.0551-.0544-.0833-.0813-.0833-.0813,0,0,.032,.0237,.0922,.0704,.0602,.0455,.155,.1096,.287,.1704,.2536,.1229,.7122,.2216,1.1733-.0307,.4509-.2287,.8813-.8147,.8339-1.4924-.0102-.1639-.0589-.3362-.1307-.4829-.0794-.1588-.1985-.3087-.3291-.4535-.2639-.2837-.6111-.5008-1.0081-.6148-.8032-.2229-1.7883-.0077-2.5222,.6148-.7391,.6021-1.2297,1.6076-1.1708,2.6222,.0307,.5034,.1896,.9978,.4701,1.4346,.0704,.1089,.1473,.2146,.2293,.3152l.1217,.1383,.1601,.1626c.1755,.1531,.3907,.3344,.6225,.4516,.9236,.5399,2.0995,.5175,3.1742,.1646,.5418-.1806,1.0632-.4573,1.5577-.7641,.2369-.1646,.4688-.3042,.7198-.5124l.3523-.2767,.3471-.3004c.921-.8038,1.8331-1.619,2.7554-2.3915,.9222-.7737,1.8881-1.4487,2.836-2.0245,.9517-.5681,1.8881-1.0382,2.7694-1.4187,.8838-.3766,1.7075-.6814,2.4453-.921,.7353-.2465,1.3937-.4163,1.924-.5674,.5393-.1345,.9658-.2287,1.2553-.2921,.2896-.0653,.4445-.0993,.4445-.0993Z"/>
    <path class="cls-1" d="M11.4068,42.377s-.0218-.0468-.0641-.1307c-.0345-.0769-.1037-.1985-.1921-.3548-.0973-.1493-.2037-.3401-.3548-.5431-.1422-.2075-.3203-.4304-.5201-.6713-.2024-.2369-.4329-.4867-.6904-.7378-.2626-.2446-.5393-.506-.8557-.7416-.301-.2563-.6482-.4701-.9953-.7033-.3497-.2248-.7289-.4112-1.099-.6167-.3907-.1647-.7737-.3523-1.167-.4965-.3984-.1267-.7865-.274-1.172-.3798-.3907-.0915-.7674-.1812-1.126-.2651-.3612-.0679-.7084-.1063-1.0261-.1557-.3189-.0493-.6123-.0896-.8749-.0947-.2612-.0167-.4893-.0295-.6776-.0397-.3766-.0218-.5917-.0333-.5917-.0333,0,0,.2151-.0013,.5917-.0039h.6828c.2651-.0102,.5585,.0128,.8825,.0436,.3228,.0294,.6764,.048,1.0453,.0935,.3676,.0628,.7545,.1306,1.1554,.1985,.3997,.0859,.8032,.2101,1.2195,.317,.4125,.123,.8159,.2908,1.2297,.4362,.3933,.1902,.8006,.3587,1.1785,.5714,.3715,.2203,.7493,.4227,1.0811,.6712,.3471,.2273,.6558,.4848,.9479,.7275,.2895,.2492,.5521,.4996,.7827,.7398,.2293,.2427,.4342,.472,.602,.6885,.1768,.2088,.3074,.4112,.424,.57,.1076,.1678,.1934,.2972,.251,.401,.0513,.0941,.0795,.1441,.0795,.1441l-.7468,.3657Z"/>
    <path class="cls-1" d="M91.8235,27.2207c3.0627,6.3344,8.6797,9.1461,8.6797,9.1461-5.5388-4.7203-7.8855-12.0391-3.8992-17.1571,3.985-5.1187,9.3791-3.4592,9.3791-3.4592-6.2626-7.083-11.6182-2.5689-11.6182-2.5689-8.4517-11.3864-23.0174-8.7989-23.0174-8.7989,13.605,4.2528,17.412,16.5038,20.476,22.838Zm3.6327-11.1954c.1474-.1947,.3562-.4855,.6739-.7705,.1498-.1518,.3355-.2889,.529-.44,.2075-.1281,.4124-.2933,.6584-.4022,.1204-.0615,.2421-.123,.3663-.1845,.1294-.05,.2614-.0986,.3933-.1492,.2613-.1108,.5495-.1518,.8262-.2313,.2831-.0447,.57-.0729,.8506-.0998,.2818-.0026,.5597,.0019,.8249,.0141,.2664,.032,.5213,.0716,.7621,.1101,.2383,.0429,.4574,.1166,.6623,.1736,.2037,.0544,.3868,.1121,.5406,.1895,.1575,.0686,.2946,.1275,.4073,.1762,.2229,.0993,.3472,.1614,.3472,.1614,0,0-.1397-.0205-.3779-.0692-.1179-.025-.2613-.0563-.4266-.0909-.1627-.041-.351-.0628-.5547-.0884-.2036-.0231-.4201-.0641-.6519-.0871-.2332-.009-.4766-.0192-.7289-.0384-.2498,.0083-.5085,.0179-.7737,.0268-.26,.0321-.5252,.0641-.7878,.1121-.2562,.066-.5239,.0974-.7686,.1967-.1229,.0403-.2472,.0794-.3689,.1204-.1191,.0505-.2357,.1012-.3497,.1511-.2357,.0897-.4406,.2184-.6507,.3183-.1921,.1269-.3881,.2293-.5508,.3529-.3369,.2293-.6021,.4471-.7788,.611-.1781,.164-.2728,.2665-.2728,.2665,0,0,.0589-.1269,.1997-.3292Zm-17.8026-10.3578c.2229,.0423,.556,.0897,.971,.1858,.4176,.0858,.9236,.203,1.4987,.3574,.2869,.0806,.5918,.1709,.9146,.2638,.3164,.1076,.652,.2158,.9966,.3471,1.3834,.5105,2.9552,1.3105,4.4103,2.4941,.7173,.5982,1.4244,1.261,2.0649,2.0008,.6404,.766,1.24,1.5077,1.7869,2.3678,.5265,.8551,.9658,1.7639,1.3053,2.6888,.3407,.9235,.57,1.8644,.7442,2.7752,.3382,1.8253,.424,3.5347,.5355,4.979,.1063,1.4436,.2587,2.6349,.488,3.4451,.1114,.4067,.219,.7186,.3061,.9306,.091,.2069,.1397,.319,.1397,.319,0,0-.0653-.1012-.1871-.2934-.1152-.1985-.2843-.4944-.4444-.8922-.3408-.7928-.6431-1.997-.8673-3.4432-.2382-1.443-.4291-3.1274-.8249-4.8682-.1934-.871-.4624-1.7491-.7865-2.6157-.3305-.8666-.7506-1.7062-1.2515-2.4972-.4842-.7833-1.0965-1.566-1.6729-2.2705-.6097-.7045-1.2374-1.3693-1.9009-1.9573-.6699-.5777-1.3591-1.0875-2.0444-1.5294-.693-.4272-1.3745-.7968-2.0226-1.1042-.6494-.3075-1.2617-.5611-1.8087-.7788-.5508-.205-1.0325-.3888-1.4334-.5265-.8032-.2805-1.263-.44-1.263-.44,0,0,.1204,.0205,.3458,.0621Z"/>
    <path class="cls-1" d="M97.1766,47.4803s-5.5388-7.7094-14.5234-6.2588c0,0-.4407-4.4743-6.4931-4.0209,0,0,3.2228,1.6518,2.7642,5.79-.4585,4.1387-4.8151,6.4508-9.4739,6.1434,0,0,3.8403,1.2214,8.0854-.319,4.2438-1.5416,11.4811-5.4684,19.6408-1.3347Zm-16.3539-5.1994s.0013-.0897-.0064-.244c-.009-.155-.032-.3734-.0845-.6303-.0192-.1293-.0641-.2645-.0961-.4092-.05-.1383-.0884-.2908-.1563-.4375-.0294-.0749-.0614-.1492-.0935-.226-.0385-.0724-.0769-.1461-.114-.2217-.0692-.1549-.1793-.2882-.2664-.4335-.1-.139-.2063-.2723-.3126-.4042-.1165-.1217-.2318-.2428-.3433-.3567-.1242-.1045-.2408-.2095-.3523-.3107-.1178-.0935-.2344-.171-.3381-.2523-.1063-.0788-.2024-.1538-.2959-.2075-.0909-.0577-.1704-.1082-.2357-.1486-.132-.0839-.2049-.1371-.2049-.1371,0,0,.0845,.0269,.2318,.0807,.0743,.0282,.1626,.0621,.2664,.1006,.1038,.0339,.2139,.0903,.3343,.1562,.1179,.0667,.2524,.1307,.3818,.2159,.1268,.0896,.2613,.187,.3984,.2908,.1281,.114,.2587,.2356,.3868,.3612,.1153,.1396,.2357,.2805,.3446,.4304,.0935,.1575,.2062,.3061,.2767,.4746,.0384,.0826,.0768,.1633,.1152,.244,.0295,.0826,.0564,.1678,.0859,.2485,.064,.1614,.0845,.3279,.1217,.4803,.0218,.1551,.0461,.3036,.0473,.4401,.018,.2722-.0166,.4989-.0371,.6552-.0243,.1575-.0538,.2408-.0538,.2408Zm13.0657,3.0935s-.2831-.1319-.7788-.3632c-.2447-.1159-.5496-.2472-.8942-.3997-.3483-.1434-.7441-.3016-1.1797-.4514-.4368-.1473-.9159-.2832-1.4257-.3971-.5136-.1038-1.0581-.1781-1.6242-.2127-.5675-.0269-1.1554-.0019-1.7498,.05-.5816,.064-1.2131,.1511-1.7856,.294-.5855,.1396-1.1555,.3388-1.6948,.5879-.5366,.253-1.0529,.5354-1.5333,.8512-.9606,.6226-1.8022,1.3117-2.558,1.8676-.7506,.5643-1.4283,.9845-1.9407,1.1952-.251,.1114-.4623,.1716-.6033,.2113-.1434,.0346-.2177,.0512-.2177,.0512,0,0,.073-.0294,.2075-.0845,.1345-.0576,.324-.1524,.5572-.2895,.4689-.2703,1.0709-.7506,1.7677-1.3661,.6981-.6142,1.5013-1.3623,2.4748-2.0502,.4881-.3407,1.0145-.6699,1.5858-.9427,.5688-.2729,1.1772-.4932,1.8036-.6508,.6366-.1518,1.2438-.2235,1.8817-.2908,.6251-.0537,1.2477-.0403,1.8446,.0051,1.199,.1089,2.2801,.4446,3.1447,.8288,.2165,.0942,.4202,.1948,.6136,.2863,.1909,.1019,.3702,.1966,.5393,.2883,.3318,.1869,.6174,.3592,.848,.5078,.2344,.1409,.4073,.2678,.5303,.3478,.1216,.0814,.187,.1262,.187,.1262Z"/>
    <path class="cls-1" d="M17.5182,50.2196c.1883-3.6117,6.903-3.2652,9.3919-3.0743,3.3253,.2543,4.728-.6264,4.728-.6264-3.1524,.5386-4.997-1.0241-5.4235-2.241-.547-1.5628,.6994-3.164,.6994-3.164,0,0-1.3066-.0179-2.1776,1.322-.8711,1.3392-.1063,2.2884-.1063,2.2884-1.3733-.5501-2.5492-.75-3.547-.7141,.0358,.1114,.082,.2331,.1422,.3599,.0371,.0769,.0768,.1576,.1268,.2344,.0435,.082,.0986,.1563,.1563,.2332,.0499,.0794,.1191,.1434,.1793,.2165,.0615,.0704,.1332,.1281,.196,.1921,.0666,.0621,.1383,.1114,.2024,.1627,.0653,.0557,.1358,.0922,.196,.1325,.064,.0366,.1178,.0762,.1729,.1025,.0525,.0256,.0999,.0494,.1396,.0686,.0768,.0384,.1217,.0608,.1217,.0608,0,0-.0474-.0135-.132-.0371-.041-.0135-.0922-.0269-.1511-.0429-.0602-.0129-.1204-.0449-.1921-.0705-.0679-.0288-.1486-.0538-.223-.0961-.0768-.0409-.1626-.0781-.2446-.1294-.0769-.0525-.1653-.1025-.2459-.1652-.0769-.0653-.164-.1223-.237-.1972-.0768-.0705-.1525-.1416-.219-.2216-.0705-.0744-.1307-.157-.1922-.2345-.1153-.162-.2126-.3222-.2818-.4675-.0102-.0218-.0192-.041-.0282-.0602-1.4628,.1857-2.4914,.9146-3.1485,1.7747,.0435,.05,.0909,.1019,.1421,.1531,.0589,.0544,.1179,.114,.1858,.1627,.064,.0563,.1357,.105,.2075,.1524,.0717,.0526,.1511,.0878,.2254,.1326,.0769,.0429,.1576,.0704,.2345,.1069,.0755,.032,.155,.0526,.2293,.0782,.073,.0269,.1459,.0371,.2126,.0525,.0666,.0147,.1281,.0333,.1844,.0359,.0551,.0064,.1038,.0128,.1448,.0173,.0807,.0109,.1268,.0147,.1268,.0147,0,0-.0461,.0064-.1268,.0173-.0423,.0064-.0909,.0115-.1474,.0198-.0563,.0103-.1216,.0071-.192,.0103-.0706,.0013-.1487,.0083-.2306,0-.082-.0064-.1691-.0064-.2601-.0218-.0884-.0167-.1832-.0256-.2754-.0512-.0935-.0257-.1921-.0449-.2818-.0813-.0961-.0321-.1896-.0673-.2767-.1109-.0922-.0384-.1755-.0858-.26-.1325-.0538-.0308-.105-.0641-.155-.0961-.2421,.408-.4112,.8294-.5098,1.2239-.4497,1.7927,.9197,2.7099,.9197,2.7099Zm7.8176-5.487s-.0281-.0378-.0755-.1108c-.0244-.0352-.0526-.0787-.0859-.13-.0281-.0525-.0538-.1152-.0832-.1857-.0128-.0346-.032-.0692-.041-.1083-.0102-.0397-.0192-.0787-.0295-.121-.0089-.0429-.0205-.0858-.0282-.1307-.0025-.0454-.0064-.0909-.0089-.1389-.0116-.0942-.0039-.1916,.0064-.2895,.0038-.1006,.0371-.1954,.0551-.2953,.0294-.0948,.0602-.1908,.0973-.2805,.0423-.0903,.0807-.1781,.1281-.2569,.0448-.0839,.0948-.1582,.1447-.2267,.0461-.0711,.0987-.1313,.1448-.1902,.0961-.1128,.1832-.198,.2472-.2568,.0628-.057,.1025-.0852,.1025-.0852,0,0-.0307,.0384-.082,.105-.0538,.066-.1204,.1684-.2011,.287-.0359,.0627-.0807,.1267-.1204,.1998-.041,.0711-.082,.1453-.1204,.2267-.0436,.0781-.073,.1652-.1102,.2498-.0346,.0865-.0628,.178-.0897,.2664-.0166,.091-.0499,.1832-.055,.2741-.0103,.0923-.0256,.1826-.0179,.269v.1294c.0038,.0429,.0102,.0833,.0153,.123,.0103,.08,.0192,.1575,.0435,.2242,.0206,.0679,.0347,.1344,.0526,.1883,.0243,.0551,.0435,.1024,.0602,.1408,.0333,.0769,.0512,.123,.0512,.123Zm-1.9995,.8288c-.0628-.0397-.1269-.0781-.1858-.1223-.2408-.1762-.4419-.3978-.5649-.5822-.064-.0897-.105-.1729-.137-.2287-.0282-.057-.041-.0915-.041-.0915,0,0,.0243,.0262,.0653,.0768,.041,.0468,.1025,.1133,.1781,.1909,.073,.0787,.1639,.1639,.2626,.2536,.1012,.0871,.2075,.1819,.324,.2613,.1128,.0865,.2332,.1601,.3472,.228,.0563,.0346,.1153,.0628,.169,.0903,.0539,.0301,.1064,.0545,.1563,.075,.0974,.0473,.1793,.0813,.2395,.1024,.0603,.0237,.0936,.0385,.0936,.0385,0,0-.0372-.0013-.1012-.0103-.0628-.0096-.155-.0179-.2613-.0499-.0538-.0141-.1114-.0295-.1704-.0538-.0589-.0244-.1242-.0449-.1857-.0782-.0615-.032-.1281-.0602-.1883-.0999Zm-2.4915,.399c-.0627-.032-.1217-.0724-.1819-.1108-.1165-.0813-.2293-.1691-.324-.2625-.0974-.091-.1807-.1826-.246-.2665-.1319-.1665-.196-.2946-.196-.2946,0,0,.0256,.0256,.0705,.0665,.0435,.0437,.1114,.1,.187,.1704,.0768,.0679,.1691,.1461,.269,.2268,.0487,.041,.1037,.0787,.155,.1223,.0564,.0378,.1088,.0788,.1678,.1159,.0563,.0359,.1114,.0788,.1691,.1089,.0589,.034,.1127,.0704,.1716,.098,.0551,.0301,.1102,.0602,.164,.0814,.0538,.023,.1025,.0499,.1511,.0665,.0487,.0167,.0923,.0359,.1307,.0507,.041,.0134,.0769,.0237,.1051,.0332,.0588,.0187,.0922,.0289,.0922,.0289,0,0-.0346,.0025-.0974-.0007-.0307-.0019-.0679-.0044-.1127-.0076-.041-.0058-.0897-.0135-.1422-.0237-.0538-.0084-.1076-.027-.1665-.0449-.0602-.0173-.1192-.041-.1819-.0679-.0602-.0256-.123-.0557-.1845-.0903Zm-1.1413,.262c-.1332-.082-.2588-.1781-.3664-.2767-.0538-.0493-.0999-.1038-.146-.1518-.0435-.0519-.0845-.1005-.1178-.148-.0692-.0935-.1153-.1793-.1473-.2389-.0295-.0602-.0436-.0966-.0436-.0966,0,0,.0243,.0301,.0679,.0819,.0423,.0506,.1076,.1204,.187,.1999,.0795,.0794,.1768,.1677,.2844,.2548,.1101,.0865,.2293,.1755,.3574,.2505,.0614,.0429,.1281,.0723,.1934,.107,.0628,.0345,.1294,.0614,.1922,.0934,.064,.0301,.128,.05,.1869,.0743,.0616,.0269,.1192,.041,.173,.059,.0538,.0153,.1024,.0359,.1473,.0448,.0449,.0115,.0845,.0211,.1165,.0294,.0654,.0174,.1012,.0282,.1012,.0282,0,0-.0384,.0013-.105,.0013-.0333-.0013-.0743-.0038-.1217-.0038-.0487,0-.0999-.0116-.1575-.0179-.0577-.0103-.1217-.0161-.1845-.0347-.0653-.0198-.1345-.032-.2023-.0602-.068-.0281-.141-.0499-.2102-.0857-.0679-.0366-.1395-.0667-.2049-.1102Zm-1.8433,1.4186s-.009,.0148-.0256,.0385c-.0179,.0217-.0397,.0576-.0769,.089-.0358,.0339-.0807,.0692-.137,.0993-.027,.0173-.059,.0268-.0897,.0371-.032,.0122-.0666,.016-.1012,.0237-.0691,.0064-.1409,.0032-.2037-.0179-.0627-.0173-.1153-.0494-.1549-.0814-.0795-.064-.1012-.1306-.1012-.1306,0,0,.0589,.0301,.1422,.0557,.0845,.0295,.1921,.0429,.2997,.0295,.0269-.0065,.0538-.0065,.0794-.0148,.0269-.0102,.0551-.0096,.0794-.0211,.0244-.0109,.05-.0148,.0743-.0231,.0231-.0115,.0461-.0199,.0666-.0281,.0435-.0129,.0782-.0321,.1051-.041,.0269-.0103,.0435-.0148,.0435-.0148Zm-.8647,1.1202s.027-.0096,.068-.0294c.0205-.009,.0448-.0225,.073-.0372,.0281-.0167,.0602-.0307,.0935-.0525,.032-.0218,.0679-.0448,.1063-.0679,.0359-.023,.0717-.0545,.1127-.082,.0794-.0538,.1563-.1217,.2357-.1883,.041-.0295,.0807-.064,.1166-.1012,.0358-.0359,.0756-.0679,.1114-.1024,.0346-.0327,.073-.059,.105-.0936,.0321-.032,.0616-.0614,.091-.0896,.1128-.1089,.1998-.1768,.1998-.1768,0,0-.0486,.096-.137,.2319-.0423,.0691-.0961,.1479-.1665,.2203-.0346,.0365-.0692,.0768-.1064,.114-.0358,.0404-.0755,.0768-.1191,.1101-.0423,.034-.0858,.0673-.1281,.1-.041,.0352-.0884,.0576-.1332,.0845-.0871,.0551-.1768,.0909-.2549,.1178-.0358,.0154-.0756,.0205-.1076,.0276-.0321,.0083-.0602,.0122-.0858,.0122-.0474,.0076-.0744,.0025-.0744,.0025Z"/>
  </g>
  <g>
    <path class="cls-1" d="M123.8608,65.6653c0-1.9171,1.5549-3.4719,3.473-3.4719s3.4731,1.5548,3.4731,3.4719c0,1.9192-1.5549,3.4753-3.4731,3.4753s-3.473-1.5561-3.473-3.4753Z"/>
    <path class="cls-1" d="M131.2173,65.6653c0,.6335-.1555,1.2288-.4246,1.7584l70.6362-1.7584-70.6362-1.7551c.2691,.5274,.4246,1.1237,.4246,1.7551Z"/>
    <path class="cls-1" d="M53.2378,65.6653l70.6372,1.7584c-.2692-.5296-.4245-1.1249-.4245-1.7584,0-.6314,.1553-1.2277,.4245-1.7551l-70.6372,1.7551Z"/>
    <g>
      <g>
        <path class="cls-1" d="M49.6838,61.957c.0208,.1017,.047,.2287,.0853,.3709,.0273,.1478,.1017,.2954,.1707,.4651,.0733,.1674,.1389,.3589,.2582,.5318,.1161,.1762,.22,.3796,.3731,.5525,.0756,.0887,.1521,.1773,.2299,.2692l.1192,.1357c.0438,.0427,.0908,.0821,.1346,.1225,.1816,.1631,.3655,.3327,.5767,.4662l.3097,.2057c.1082,.0591,.2188,.1138,.326,.1707,.2134,.1204,.4443,.1904,.6587,.2747,.1882,.0558,.3688,.1061,.5461,.1433-.1773,.0361-.3579,.0886-.5461,.1455-.2144,.0821-.4453,.1532-.6587,.2747-.1072,.0547-.2178,.1105-.326,.1685l-.3097,.2068c-.2112,.1346-.3951,.302-.5767,.4661-.0438,.0405-.0908,.0799-.1346,.1226l-.1192,.1356c-.0778,.0909-.1543,.1806-.2299,.2681-.1531,.174-.257,.3776-.3731,.5526-.1193,.174-.1849,.3644-.2582,.5318-.069,.1696-.1434,.3173-.1707,.4651-.0383,.1422-.0645,.2691-.0853,.372-.0438,.2068-.0569,.3261-.0569,.3261,0,0,.082-.0941,.2089-.2572,.0624-.082,.1412-.1794,.22-.2943,.0383-.058,.0842-.1171,.14-.174,.0515-.0591,.104-.1215,.1565-.1871,.1138-.1291,.2188-.2757,.3589-.4082,.1368-.1334,.2583-.291,.4147-.4245,.1587-.1313,.2955-.29,.4695-.4169,.1717-.1269,.3315-.2747,.5153-.3852l.267-.186c.0941-.0514,.1849-.1094,.2769-.163,.1783-.1182,.3742-.2003,.5525-.3042,.1871-.0843,.3666-.1794,.5428-.2506,.1772-.0755,.3435-.151,.5044-.2079,.3173-.1215,.592-.2156,.789-.2779,.1969-.0624,.3107-.0985,.3107-.0985,0,0-.1138-.035-.3107-.0974-.197-.0635-.4717-.1565-.789-.279-.1609-.0569-.3272-.1324-.5044-.2057-.1762-.0734-.3557-.1664-.5428-.2517-.1783-.104-.3742-.1849-.5525-.3042-.092-.0536-.1828-.1116-.2769-.163l-.267-.1861c-.1838-.1116-.3436-.2582-.5153-.3862-.174-.1248-.3108-.2845-.4695-.4158-.1564-.1324-.2779-.2922-.4147-.4235-.1401-.1334-.2451-.2801-.3589-.4081-.0525-.0668-.105-.1291-.1565-.1893-.0558-.0569-.1017-.1149-.14-.1729-.0788-.1149-.1576-.2123-.22-.2944-.1269-.163-.2089-.2571-.2089-.2571,0,0,.0131,.1193,.0569,.3261Z"/>
        <path class="cls-1" d="M48.2416,60.6308c-.0044,.1083-.0197,.2144-.0066,.3228l.0164,.3206c0,.1094,.0307,.2122,.046,.3173,.0186,.105,.0274,.209,.0624,.3108l.0886,.302c.0788,.1958,.1477,.3928,.255,.5733,.0491,.0908,.0973,.1828,.1575,.267,.0591,.0865,.1084,.1762,.1751,.2561,.1258,.1652,.2615,.3228,.4037,.4705,.1467,.1466,.2988,.2867,.4629,.4103,.081,.0635,.1619,.1248,.2473,.1817,.081,.0547,.174,.1127,.2495,.1521l1.1478,.7988-1.3995-.255c-.3141-.0865-.6248-.1784-.9388-.2582l-.4738-.0898c-.1587-.0295-.3152-.0678-.476-.0777l-.4782-.0514c-.1576-.0252-.3162-.0175-.476-.024-.1586,0-.3195-.0208-.4749-.0044l-.4738,.0284c-.1564,.0132-.3129,.0449-.4661,.0657-.1576,.0164-.3075,.0579-.4585,.0941-.1543,.0295-.3053,.0689-.4519,.1203-.151,.0449-.2976,.0908-.4399,.1543-.2932,.1084-.5668,.2517-.8305,.4081-.1226,.0756-.2451,.1554-.3578,.2408,.1127,.0875,.2352,.1663,.3578,.2418,.2637,.1565,.5373,.3009,.8295,.4092,.1433,.0624,.2899,.1095,.4409,.1543,.1466,.0514,.2976,.0898,.4519,.1215,.151,.0361,.3009,.0766,.4585,.0941,.1532,.0197,.3097,.0503,.4661,.0657l.4738,.0284c.1554,.0164,.3163-.0044,.4749-.0044,.1598-.0066,.3184,.0011,.4771-.024l.4771-.0515c.1608-.012,.3173-.0492,.476-.0777l.4738-.0908c.314-.0799,.6259-.1729,.9388-.2571l1.3722-.2418-1.1227,.7823c-.0733,.0394-.1663,.0963-.2473,.1532-.0854,.0558-.1685,.116-.2473,.1806-.1641,.1258-.3162,.2647-.4629,.4092-.1433,.1499-.2779,.3075-.4037,.4738-.0667,.0777-.1171,.1685-.1751,.2539-.0624,.0842-.1094,.1783-.1598,.2691-.105,.1794-.1739,.3764-.2538,.5734l-.0875,.302c-.035,.0996-.0438,.2057-.0635,.3097-.0142,.105-.0449,.2101-.0449,.3162l-.0175,.3195c-.012,.1061,.0033,.2156,.0077,.3239l.0197,.3271-.0712-.3184c-.0229-.1072-.0536-.2122-.059-.3228l-.0318-.3326c-.0164-.1105,0-.221,0-.3337,.0066-.1117,.0022-.2233,.0252-.3349l.0525-.3337c.0602-.2145,.1105-.4388,.2035-.6467,.0416-.1039,.0832-.2111,.1412-.3096,.0525-.0996,.0985-.2069,.1608-.3009,.1127-.1905,.2451-.3677,.3819-.5406l-.1838,.0471c-.1696,.0415-.3337,.0908-.5044,.1137l-.5165,.0843c-.1696,.0328-.3447,.0318-.5176,.0471-.1728,.0065-.3479,.0328-.523,.0229l-.5263-.0131c-.1751-.0087-.348-.035-.5253-.0525-.1739-.0131-.3479-.0515-.5208-.0865-.1729-.0328-.3458-.0744-.5132-.1302-.174-.0492-.3414-.1007-.5066-.1707-.3326-.1214-.6555-.2812-.9651-.4606-.1543-.0941-.3075-.1883-.4541-.2987-.151-.1106-.2823-.2124-.441-.3688l-.1203-.1171-.1697-.1871,.1675-.2178,.1225-.1192c.1587-.1565,.29-.2594,.441-.371,.1466-.1094,.2998-.2035,.4541-.2976,.3096-.1795,.6325-.3403,.9651-.4607,.1652-.07,.3326-.1214,.5066-.1717,.1674-.0548,.3381-.0963,.5132-.1292,.1729-.0372,.3447-.0733,.5208-.0875,.1762-.0175,.3502-.0448,.5253-.0536l.5263-.0121c.1751-.0098,.3502,.0154,.523,.0241,.1729,.0132,.3491,.0132,.5176,.0449l.5165,.0842c.1707,.0241,.3348,.0744,.5044,.1149l.1805,.046c-.1367-.1718-.2691-.3491-.3808-.5373-.0612-.0952-.1072-.2013-.1608-.3009-.0558-.0995-.0974-.2046-.139-.3118-.093-.2057-.1455-.429-.2068-.6467l-.0514-.3327c-.0208-.1105-.0186-.2243-.023-.3348,0-.1116-.0164-.2221,0-.3326l.0307-.3316c.0065-.1094,.0372-.2178,.0601-.3239l.0712-.3184-.0197,.325Z"/>
        <path class="cls-1" d="M44.1547,65.6653c3.7597-1.6939,6.5707,0,6.5707,0,0,0-2.811,1.696-6.5707,0Z"/>
        <path class="cls-1" d="M44.9666,68.182c-.2189-.0022-.4421-.0427-.6729-.0646-.2299-.0197-.4574-.0832-.6905-.1247-.2298-.0536-.4574-.1269-.6839-.1969-.2167-.0909-.4432-.1587-.6412-.2681-.1039-.0493-.2046-.1007-.302-.1489-.0941-.0558-.1871-.1116-.278-.1652-.1827-.1061-.3425-.2309-.4924-.3392-.1444-.1182-.2801-.2254-.3906-.3348-.1138-.1018-.2046-.2069-.2823-.2878-.0766-.0897-.1335-.1554-.1772-.2188-.0372-.0537-.0581-.081-.0581-.081l-.1608-.2867,.1608-.2856s.0209-.0274,.0581-.0788c.0437-.0645,.1006-.1313,.1772-.2199,.0777-.081,.1685-.1871,.2823-.2878,.1105-.1094,.2462-.2178,.3906-.3359,.1499-.1084,.3097-.232,.4924-.3381,.0909-.0536,.1839-.1094,.278-.1664,.0974-.0481,.1981-.0984,.302-.1488,.198-.1083,.4245-.1772,.6412-.267,.2265-.07,.4541-.1422,.6839-.1969,.2331-.0416,.4606-.1062,.6905-.1269,.2308-.0208,.454-.0591,.6729-.0613,.2177-.0055,.4267-.0099,.6248-.0143,.198,.0132,.3852,.0252,.5581,.0362,.1717,.0076,.3282,.0229,.465,.047,.1389,.0197,.2593,.0372,.3589,.0525,.1959,.0285,.3075,.046,.3075,.046,0,0-.1128,0-.3119,.0022-.0996,0-.2189,.0011-.3589,.0021-.1368-.0021-.2932,.0066-.4606,.0263-.1697,.0154-.3502,.0307-.5417,.0482-.1904,.0339-.3895,.0689-.5964,.1061-.2067,.034-.4103,.105-.6204,.1576-.2101,.0503-.4136,.1444-.6193,.2133-.2003,.0832-.3961,.1828-.5865,.2736-.1817,.1116-.3698,.2002-.5274,.3228-.081,.058-.1609,.1138-.2407,.1685-.0712,.0613-.1445,.1204-.2124,.1784-.1422,.1137-.256,.2385-.3665,.3469-.1028,.1148-.1991,.2188-.2713,.3173-.0537,.0667-.0964,.1269-.1325,.1827,.0361,.0569,.0788,.1171,.1325,.1827,.0722,.1007,.1685,.2036,.2713,.3195,.1105,.1073,.2243,.2342,.3665,.3447,.0679,.0602,.1412,.1193,.2124,.1795,.0798,.0558,.1597,.1127,.2407,.1696,.1576,.1214,.3457,.2101,.5274,.3238,.1904,.0909,.3862,.1894,.5865,.2714,.2057,.0701,.4092,.162,.6193,.2145s.4137,.1236,.6204,.1565c.2069,.0383,.406,.0733,.5964,.1061,.1915,.0175,.372,.035,.5417,.0493,.1674,.0196,.3238,.0284,.4606,.0262,.14,0,.2593,.0011,.3589,.0022,.1991,.0022,.3119,.0022,.3119,.0022,0,0-.1116,.0175-.3075,.046-.0996,.0142-.22,.0317-.3589,.0525-.1368,.0229-.2933,.0393-.465,.047-.1729,.0109-.3601,.023-.5581,.035-.1981-.0033-.4071-.0087-.6248-.012Z"/>
        <g>
          <path class="cls-1" d="M58.78,65.6653s-.0886,.0142-.255,.0394c-.1641,.0252-.4103,.058-.7156,.1258-.6127,.1368-1.4958,.3348-2.5167,.7299-.5077,.1958-1.057,.43-1.615,.7309-.5614,.2987-1.1424,.6401-1.707,1.0658-.5679,.4191-1.1282,.9093-1.6315,1.4925-.5001,.5854-.9509,1.2693-1.2245,2.0724-.2866,.7923-.3118,1.7365-.0372,2.5463,.0406,.1072,.0602,.186,.1171,.3151,.0438,.0876,.0766,.1663,.127,.2583,.1193,.2089,.2527,.3851,.3994,.5339,.3053,.3009,.6817,.4935,1.058,.5778,.7573,.1619,1.4936-.0143,2.0802-.465,.5405-.4159,.9476-1.1183,.8907-1.8219-.0263-.3447-.1511-.65-.3108-.8875-.0142-.0218-.0437-.0722-.0635-.0918-.0207-.0253-.0361-.046-.0656-.0767-.0558-.0602-.1083-.1072-.1642-.1477-.1148-.0832-.2374-.1378-.3599-.1685-.4935-.1138-.9126,.1215-1.1249,.4027-.2243,.2921-.2177,.6149-.1795,.7878,.0384,.1838,.0854,.2692,.0854,.2692,0,0-.0328-.0952-.0437-.2747-.0132-.1761,.035-.454,.2439-.6718,.2036-.2145,.5854-.3523,.9421-.2123,.1828,.0777,.3163,.1937,.4257,.4093,.1116,.2024,.1816,.4376,.1806,.6817-.0077,.488-.3097,.9793-.7835,1.3021-.4333,.2867-1.0614,.4136-1.6096,.2626-.2724-.0744-.5263-.221-.7287-.4333-.1007-.1094-.185-.2287-.2528-.3425-.0394-.069-.0799-.1675-.1193-.2495-.0197-.0383-.0503-.1466-.0755-.2167-.2101-.64-.1783-1.3524,.046-2.0155,.2188-.6686,.6062-1.2857,1.0581-1.8251,.4465-.5483,.9553-1.0308,1.4816-1.4488,1.0504-.848,2.1457-1.4772,3.1109-1.9455,.965-.4771,1.8043-.7977,2.3985-.9968,.5919-.2101,.9388-.3119,.9388-.3119Z"/>
          <path class="cls-1" d="M58.78,65.6653s-.0886-.0121-.255-.0383c-.1641-.0251-.4103-.058-.7156-.1269-.6127-.1357-1.4958-.3338-2.5167-.731-.5077-.1947-1.057-.4289-1.615-.7276-.5614-.2999-1.1424-.6423-1.707-1.0647-.5679-.4213-1.1282-.9093-1.6315-1.4958-.5001-.5843-.9509-1.2682-1.2245-2.0714-.2866-.7921-.3118-1.7365-.0372-2.5451,.0406-.1083,.0602-.1871,.1171-.3162,.0438-.0876,.0766-.1652,.127-.2572,.1193-.2079,.2527-.3851,.3994-.5339,.3053-.3021,.6817-.4936,1.058-.5778,.7573-.1631,1.4936,.0131,2.0802,.4618,.5405,.4179,.9476,1.1205,.8907,1.824-.0263,.3447-.1511,.65-.3108,.8863-.0142,.023-.0437,.0733-.0635,.0919-.0207,.0274-.0361,.0471-.0656,.0788-.0558,.0602-.1083,.1062-.1642,.1467-.1148,.082-.2374,.1378-.3599,.1674-.4935,.1149-.9126-.1204-1.1249-.4005-.2243-.2933-.2177-.6139-.1795-.79,.0384-.1817,.0854-.2692,.0854-.2692,0,0-.0328,.0952-.0437,.2757-.0132,.1751,.035,.453,.2439,.6719,.2036,.2134,.5854,.3512,.9421,.2112,.1828-.0755,.3163-.1937,.4257-.406,.1116-.2068,.1816-.4409,.1806-.6839-.0077-.488-.3097-.9804-.7835-1.2999-.4333-.2889-1.0614-.4158-1.6096-.2659-.2724,.0755-.5263,.2221-.7287,.4333-.1007,.1116-.185,.2309-.2528,.3447-.0394,.07-.0799,.1641-.1193,.2462-.0197,.0426-.0503,.1477-.0755,.2188-.2101,.639-.1783,1.3514,.046,2.0156,.2188,.6697,.6062,1.2868,1.0581,1.8252,.4465,.5492,.9553,1.0307,1.4816,1.4497,1.0504,.8448,2.1457,1.4762,3.1109,1.9456,.965,.4749,1.8043,.7966,2.3985,.9979,.5919,.2068,.9388,.3086,.9388,.3086Z"/>
        </g>
      </g>
      <g>
        <path class="cls-1" d="M206.4819,61.957c-.0229,.1017-.047,.2287-.0864,.3709-.0273,.1478-.1017,.2954-.1707,.4651-.0722,.1674-.1389,.3589-.2582,.5318-.116,.1762-.22,.3796-.3731,.5525-.0756,.0887-.1521,.1773-.2299,.2692l-.1181,.1357c-.0438,.0427-.0908,.0821-.1357,.1225-.1816,.1631-.3655,.3327-.5767,.4662l-.3096,.2057c-.1072,.0591-.2189,.1138-.3272,.1707-.2123,.1204-.4431,.1904-.6576,.2747-.1882,.0558-.3677,.1061-.5461,.1433,.1784,.0361,.3579,.0886,.5461,.1455,.2145,.0821,.4453,.1532,.6576,.2747,.1083,.0547,.22,.1105,.3272,.1685l.3096,.2068c.2112,.1346,.3951,.302,.5767,.4661,.0449,.0405,.0919,.0799,.1357,.1226l.1181,.1356c.0778,.0909,.1543,.1806,.2299,.2681,.1531,.174,.2571,.3776,.3731,.5526,.1193,.174,.186,.3644,.2582,.5318,.069,.1696,.1434,.3173,.1707,.4651,.0394,.1422,.0635,.2691,.0864,.372,.0416,.2068,.0558,.3261,.0558,.3261,0,0-.0831-.0941-.2089-.2572-.0635-.082-.1412-.1794-.22-.2943-.0383-.058-.0842-.1171-.1412-.174-.0492-.0591-.1028-.1215-.1564-.1871-.1127-.1291-.2177-.2757-.3578-.4082-.1379-.1334-.2572-.291-.4147-.4245-.1587-.1313-.2955-.29-.4695-.4169-.1706-.1269-.3304-.2747-.5164-.3852l-.2659-.186c-.0941-.0514-.1849-.1094-.2769-.163-.1783-.1182-.3741-.2003-.5536-.3042-.186-.0843-.3655-.1794-.5417-.2506-.1772-.0755-.3446-.151-.5033-.2079-.3184-.1215-.5931-.2156-.7889-.2779-.1981-.0624-.3119-.0985-.3119-.0985,0,0,.1138-.035,.3119-.0974,.1958-.0635,.4705-.1565,.7889-.279,.1587-.0569,.3261-.1324,.5033-.2057,.1762-.0734,.3557-.1664,.5417-.2517,.1795-.104,.3753-.1849,.5536-.3042,.092-.0536,.1828-.1116,.2769-.163l.2659-.1861c.186-.1116,.3458-.2582,.5164-.3862,.174-.1248,.3108-.2845,.4695-.4158,.1575-.1324,.2768-.2922,.4147-.4235,.1401-.1334,.2451-.2801,.3578-.4081,.0536-.0668,.1072-.1291,.1564-.1893,.057-.0569,.1029-.1149,.1412-.1729,.0788-.1149,.1565-.2123,.22-.2944,.1258-.163,.2089-.2571,.2089-.2571,0,0-.0142,.1193-.0558,.3261Z"/>
        <path class="cls-1" d="M207.923,60.6308c.0044,.1083,.0197,.2144,.0066,.3228l-.0164,.3206c0,.1094-.0307,.2122-.046,.3173-.0197,.105-.0274,.209-.0634,.3108l-.0876,.302c-.0788,.1958-.1477,.3928-.2549,.5733-.0493,.0908-.0974,.1828-.1565,.267-.0613,.0865-.1105,.1762-.1762,.2561-.1258,.1652-.2615,.3228-.4037,.4705-.1467,.1466-.2988,.2867-.4618,.4103-.0821,.0635-.163,.1248-.2484,.1817-.081,.0547-.174,.1127-.2495,.1521l-1.1478,.7988,1.3995-.255c.3141-.0865,.6248-.1784,.9388-.2582l.4749-.0898c.1587-.0295,.3152-.0678,.4738-.0777l.4793-.0514c.1576-.0252,.3162-.0175,.476-.024,.1587,0,.3184-.0208,.4749-.0044l.4738,.0284c.1564,.0132,.3118,.0449,.4672,.0657,.1565,.0164,.3064,.0579,.4585,.0941,.1521,.0295,.3042,.0689,.4508,.1203,.151,.0449,.2976,.0908,.4399,.1543,.2932,.1084,.5668,.2517,.8305,.4081,.1226,.0756,.2451,.1554,.3578,.2408-.1127,.0875-.2352,.1663-.3578,.2418-.2637,.1565-.5373,.3009-.8283,.4092-.1445,.0624-.2911,.1095-.4421,.1543-.1466,.0514-.2987,.0898-.4508,.1215-.1521,.0361-.302,.0766-.4585,.0941-.1554,.0197-.3108,.0503-.4672,.0657l-.4738,.0284c-.1565,.0164-.3162-.0044-.4749-.0044-.1598-.0066-.3184,.0011-.4782-.024l-.4771-.0515c-.1586-.012-.3151-.0492-.4738-.0777l-.4749-.0908c-.314-.0799-.6259-.1729-.9388-.2571l-1.3722-.2418,1.1227,.7823c.0733,.0394,.1663,.0963,.2473,.1532,.0854,.0558,.1685,.116,.2484,.1806,.163,.1258,.3151,.2647,.4618,.4092,.1433,.1499,.2779,.3075,.4037,.4738,.0657,.0777,.1171,.1685,.1762,.2539,.0613,.0842,.1094,.1783,.1576,.2691,.1061,.1794,.175,.3764,.2549,.5734l.0865,.302c.036,.0996,.0448,.2057,.0656,.3097,.0131,.105,.0438,.2101,.0438,.3162l.0175,.3195c.012,.1061-.0033,.2156-.0077,.3239l-.0197,.3271,.0712-.3184c.0229-.1072,.0547-.2122,.059-.3228l.0318-.3326c.0164-.1105-.0011-.221-.0011-.3337-.0066-.1117,0-.2233-.023-.3349l-.0525-.3337c-.0613-.2145-.1117-.4388-.2047-.6467-.0426-.1039-.0831-.2111-.14-.3096-.0536-.0996-.0996-.2069-.1619-.3009-.1117-.1905-.2441-.3677-.3819-.5406l.1849,.0471c.1685,.0415,.3327,.0908,.5033,.1137l.5154,.0843c.1707,.0328,.3458,.0318,.5187,.0471,.1728,.0065,.3479,.0328,.523,.0229l.5263-.0131c.1751-.0087,.348-.035,.5253-.0525,.1739-.0131,.349-.0515,.5208-.0865,.1729-.0328,.3458-.0744,.5143-.1302,.1718-.0492,.3403-.1007,.5055-.1707,.3338-.1214,.6544-.2812,.9651-.4606,.1554-.0941,.3064-.1883,.4541-.2987,.151-.1106,.2823-.2124,.441-.3688l.1203-.1171,.1697-.1871-.1686-.2178-.1214-.1192c-.1587-.1565-.29-.2594-.441-.371-.1477-.1094-.2987-.2035-.4541-.2976-.3107-.1795-.6313-.3403-.9651-.4607-.1652-.07-.3337-.1214-.5055-.1717-.1685-.0548-.3403-.0963-.5143-.1292-.1718-.0372-.3458-.0733-.5208-.0875-.1762-.0175-.3502-.0448-.5253-.0536l-.5263-.0121c-.1751-.0098-.3502,.0154-.523,.0241-.1729,.0132-.3491,.0132-.5187,.0449l-.5154,.0842c-.1706,.0241-.3348,.0744-.5033,.1149l-.1806,.046c.1357-.1718,.267-.3491,.3786-.5373,.0624-.0952,.1095-.2013,.1631-.3009,.0547-.0995,.0963-.2046,.1378-.3118,.093-.2057,.1456-.429,.2058-.6467l.0525-.3327c.0219-.1105,.0186-.2243,.0219-.3348,0-.1116,.0175-.2221,.0011-.3326l-.0296-.3316c-.0065-.1094-.0383-.2178-.0612-.3239l-.0712-.3184,.0197,.325Z"/>
        <path class="cls-1" d="M212.0099,65.6653c-3.7597-1.6939-6.5697,0-6.5697,0,0,0,2.81,1.696,6.5697,0Z"/>
        <path class="cls-1" d="M211.198,68.182c.2189-.0022,.4421-.0427,.6729-.0646,.231-.0197,.4575-.0832,.6905-.1247,.2298-.0536,.4585-.1269,.6839-.1969,.2167-.0909,.4421-.1587,.6412-.2681,.104-.0493,.2036-.1007,.302-.1489,.0941-.0558,.1882-.1116,.278-.1652,.1827-.1061,.3425-.2309,.4924-.3392,.1444-.1182,.2801-.2254,.3906-.3348,.1138-.1018,.2046-.2069,.2823-.2878,.0755-.0897,.1324-.1554,.1784-.2188,.0372-.0537,.0569-.081,.0569-.081l.1608-.2867-.1608-.2856s-.0197-.0274-.0569-.0788c-.046-.0645-.1029-.1313-.1784-.2199-.0777-.081-.1685-.1871-.2823-.2878-.1105-.1094-.2462-.2178-.3906-.3359-.1499-.1084-.3097-.232-.4924-.3381-.0898-.0536-.1839-.1094-.278-.1664-.0984-.0481-.198-.0984-.302-.1488-.1991-.1083-.4245-.1772-.6412-.267-.2254-.07-.4541-.1422-.6839-.1969-.233-.0416-.4595-.1062-.6905-.1269-.2308-.0208-.454-.0591-.6729-.0613-.2177-.0055-.4267-.0099-.6259-.0143-.1969,.0132-.3841,.0252-.5558,.0362-.1729,.0076-.3294,.0229-.4673,.047-.1378,.0197-.2582,.0372-.3567,.0525-.197,.0285-.3086,.046-.3086,.046,0,0,.1128,0,.313,.0022,.0995,0,.2178,.0011,.3567,.0021,.1379-.0021,.2943,.0066,.4629,.0263,.1685,.0154,.3479,.0307,.5416,.0482,.1893,.0339,.3885,.0689,.5953,.1061,.2067,.034,.4114,.105,.6204,.1576,.2112,.0503,.4125,.1444,.6193,.2133,.2014,.0832,.3961,.1828,.5865,.2736,.1805,.1116,.3688,.2002,.5274,.3228,.081,.058,.1609,.1138,.2397,.1685,.0733,.0613,.1455,.1204,.2134,.1784,.1411,.1137,.257,.2385,.3665,.3469,.1029,.1148,.1991,.2188,.2713,.3173,.0548,.0667,.0963,.1269,.1335,.1827-.0372,.0569-.0787,.1171-.1335,.1827-.0722,.1007-.1684,.2036-.2713,.3195-.1095,.1073-.2254,.2342-.3665,.3447-.0679,.0602-.1401,.1193-.2134,.1795-.0788,.0558-.1587,.1127-.2397,.1696-.1586,.1214-.3469,.2101-.5274,.3238-.1904,.0909-.3851,.1894-.5865,.2714-.2068,.0701-.4081,.162-.6193,.2145-.209,.0525-.4137,.1236-.6204,.1565-.2068,.0383-.406,.0733-.5953,.1061-.1937,.0175-.3731,.035-.5416,.0493-.1686,.0196-.325,.0284-.4629,.0262-.1389,0-.2572,.0011-.3567,.0022-.2002,.0022-.313,.0022-.313,.0022,0,0,.1116,.0175,.3086,.046,.0985,.0142,.2189,.0317,.3567,.0525,.1379,.0229,.2944,.0393,.4673,.047,.1717,.0109,.3589,.023,.5558,.035,.1992-.0033,.4082-.0087,.6259-.012Z"/>
        <g>
          <path class="cls-1" d="M197.3846,65.6653s.0886,.0142,.255,.0394c.1652,.0252,.4103,.058,.7167,.1258,.6128,.1368,1.4947,.3348,2.5145,.7299,.5088,.1958,1.0581,.43,1.6161,.7309,.5603,.2987,1.1424,.6401,1.707,1.0658,.5679,.4191,1.1282,.9093,1.6315,1.4925,.5001,.5854,.9509,1.2693,1.2245,2.0724,.2866,.7923,.3107,1.7365,.0372,2.5463-.0406,.1072-.0592,.186-.116,.3151-.0438,.0876-.0777,.1663-.1281,.2583-.1193,.2089-.2516,.3851-.3994,.5339-.3041,.3009-.6816,.4935-1.058,.5778-.7573,.1619-1.4936-.0143-2.0802-.465-.5405-.4159-.9487-1.1183-.8918-1.8219,.0285-.3447,.1532-.65,.3108-.8875,.0153-.0218,.0449-.0722,.0646-.0918,.0219-.0253,.0361-.046,.0656-.0767,.0547-.0602,.1084-.1072,.1642-.1477,.1148-.0832,.2374-.1378,.3589-.1685,.4945-.1138,.9136,.1215,1.1259,.4027,.2243,.2921,.2177,.6149,.1795,.7878-.0384,.1838-.0843,.2692-.0843,.2692,0,0,.0317-.0952,.0427-.2747,.0131-.1761-.035-.454-.244-.6718-.2036-.2145-.5844-.3523-.9421-.2123-.1828,.0777-.3163,.1937-.4257,.4093-.1116,.2024-.1816,.4376-.1806,.6817,.0077,.488,.3097,.9793,.7824,1.3021,.4344,.2867,1.0625,.4136,1.6107,.2626,.2724-.0744,.5263-.221,.7287-.4333,.1007-.1094,.185-.2287,.2528-.3425,.0394-.069,.0788-.1675,.1193-.2495,.0197-.0383,.0503-.1466,.0766-.2167,.209-.64,.1772-1.3524-.0471-2.0155-.2177-.6686-.6062-1.2857-1.0581-1.8251-.4453-.5483-.9553-1.0308-1.4816-1.4488-1.0504-.848-2.1446-1.4772-3.1108-1.9455-.9651-.4771-1.8055-.7977-2.3986-.9968-.5919-.2101-.9388-.3119-.9388-.3119Z"/>
          <path class="cls-1" d="M197.3846,65.6653s.0886-.0121,.255-.0383c.1652-.0251,.4103-.058,.7167-.1269,.6128-.1357,1.4947-.3338,2.5145-.731,.5088-.1947,1.0581-.4289,1.6161-.7276,.5603-.2999,1.1424-.6423,1.707-1.0647,.5679-.4213,1.1282-.9093,1.6315-1.4958,.5001-.5843,.9509-1.2682,1.2245-2.0714,.2866-.7921,.3107-1.7365,.0372-2.5451-.0406-.1083-.0592-.1871-.116-.3162-.0438-.0876-.0777-.1652-.1281-.2572-.1193-.2079-.2516-.3851-.3994-.5339-.3041-.3021-.6816-.4936-1.058-.5778-.7573-.1631-1.4936,.0131-2.0802,.4618-.5405,.4179-.9487,1.1205-.8918,1.824,.0285,.3447,.1532,.65,.3108,.8863,.0153,.023,.0449,.0733,.0646,.0919,.0219,.0274,.0361,.0471,.0656,.0788,.0547,.0602,.1084,.1062,.1642,.1467,.1148,.082,.2374,.1378,.3589,.1674,.4945,.1149,.9136-.1204,1.1259-.4005,.2243-.2933,.2177-.6139,.1795-.79-.0384-.1817-.0843-.2692-.0843-.2692,0,0,.0317,.0952,.0427,.2757,.0131,.1751-.035,.453-.244,.6719-.2036,.2134-.5844,.3512-.9421,.2112-.1828-.0755-.3163-.1937-.4257-.406-.1116-.2068-.1816-.4409-.1806-.6839,.0077-.488,.3097-.9804,.7824-1.2999,.4344-.2889,1.0625-.4158,1.6107-.2659,.2724,.0755,.5263,.2221,.7287,.4333,.1007,.1116,.185,.2309,.2528,.3447,.0394,.07,.0788,.1641,.1193,.2462,.0197,.0426,.0503,.1477,.0766,.2188,.209,.639,.1772,1.3514-.0471,2.0156-.2177,.6697-.6062,1.2868-1.0581,1.8252-.4453,.5492-.9553,1.0307-1.4816,1.4497-1.0504,.8448-2.1446,1.4762-3.1108,1.9456-.9651,.4749-1.8055,.7966-2.3986,.9979-.5919,.2068-.9388,.3086-.9388,.3086Z"/>
        </g>
      </g>
    </g>
  </g>
</svg>